<?xml version="1.0" encoding="UTF-8"?>
<svg width="163px" height="25px" viewBox="0 0 163 25" version="1.1" xmlns="http://www.w3.org/2000/svg" xmlns:xlink="http://www.w3.org/1999/xlink">
    <title>0E5ED6A3-2D33-404F-ADB7-4B4362D5D9EB</title>
    <defs>
        <linearGradient x1="50%" y1="0%" x2="50%" y2="100%" id="linearGradient-1">
            <stop stop-color="#6AA643" offset="0%"></stop>
            <stop stop-color="#7DB24A" offset="96.7932876%"></stop>
        </linearGradient>
        <linearGradient x1="50%" y1="0%" x2="50%" y2="100%" id="linearGradient-2">
            <stop stop-color="#6AA643" offset="0%"></stop>
            <stop stop-color="#7DB24A" offset="96.7932876%"></stop>
        </linearGradient>
        <linearGradient x1="50%" y1="0%" x2="50%" y2="100%" id="linearGradient-3">
            <stop stop-color="#6AA643" offset="0%"></stop>
            <stop stop-color="#7DB24A" offset="96.7932876%"></stop>
        </linearGradient>
        <linearGradient x1="50%" y1="0%" x2="50%" y2="100%" id="linearGradient-4">
            <stop stop-color="#6AA643" offset="0%"></stop>
            <stop stop-color="#7DB24A" offset="96.7932876%"></stop>
        </linearGradient>
        <linearGradient x1="50%" y1="0%" x2="50%" y2="100%" id="linearGradient-5">
            <stop stop-color="#6AA643" offset="0%"></stop>
            <stop stop-color="#7DB24A" offset="96.7932876%"></stop>
        </linearGradient>
        <linearGradient x1="50%" y1="0%" x2="50%" y2="100%" id="linearGradient-6">
            <stop stop-color="#6AA643" offset="0%"></stop>
            <stop stop-color="#7DB24A" offset="96.7932876%"></stop>
        </linearGradient>
        <linearGradient x1="50%" y1="0%" x2="50%" y2="100%" id="linearGradient-7">
            <stop stop-color="#6AA643" offset="0%"></stop>
            <stop stop-color="#7DB24A" offset="96.7932876%"></stop>
        </linearGradient>
    </defs>
    <g id="Page-1" stroke="none" stroke-width="1" fill="none" fill-rule="evenodd">
        <g id="Desktop-HD-Copy-25" transform="translate(-63.000000, -2361.000000)" fill-rule="nonzero">
            <g id="brands" transform="translate(-409.180211, 2074.500000)">
                <g id="Group-18" transform="translate(439.180211, 249.000000)">
                    <g id="logo/bv" transform="translate(33.667946, 38.000000)">
                        <path d="M2.52364604,21.1841563 L6.09533266,21.1841563 C8.57601958,21.1841563 10.3940822,19.5626631 10.3940822,17.1520512 C10.3940822,14.9334636 8.87551764,13.1627978 6.2023252,13.1627978 L2.50216648,13.1627978 L2.50216648,21.1841563 L2.52364604,21.1841563 Z M2.52364604,10.9652318 L5.41082356,10.9652318 C7.57093813,10.9652318 8.81148422,9.42944203 8.81148422,7.46675201 C8.81148422,5.50406199 7.74196408,4.11744473 5.49633654,4.11744473 L2.52364604,4.11744473 L2.52364604,10.9652318 Z M0,3.24262265 C0,2.41065229 0.406490602,1.77070619 1.34753864,1.77070619 L5.81731416,1.77070619 C9.4530342,1.77070619 11.3566099,4.48006738 11.3566099,6.95455258 C11.3566099,9.34414284 10.1800971,11.1572561 8.4905066,11.711903 L8.4905066,11.7761806 C10.9715988,12.053504 12.9392078,14.2720916 12.9392078,17.1520512 C12.9392078,20.5656361 10.5436287,23.4880431 6.22339949,23.4880431 L1.34753864,23.4880431 C0.385011039,23.4880431 0,22.848097 0,22.0161267 L0,3.24262265 Z" id="Fill-1" fill="#000000"></path>
                        <path d="M24.723342,14.4214663 C24.723342,12.0961536 23.4613164,9.4082183 20.6596518,9.4082183 C17.5159353,9.28006738 16.3823818,11.9465768 16.2968689,14.4214663 L24.723342,14.4214663 Z M16.2968689,16.427008 C16.2968689,19.2002426 17.9649799,21.3763827 20.831083,21.3763827 C24.2098588,21.3763827 25.065394,19.1788167 26.0279215,19.1788167 C26.4984455,19.1788167 26.94749,19.6053127 26.94749,20.3734097 C26.94749,21.6747278 23.8037736,23.7016954 20.8096035,23.7016954 C15.9118578,23.7016954 13.7732228,19.7120377 13.7732228,15.4026092 C13.7732228,11.0082857 16.3609023,7.10392723 20.6596518,7.10392723 C24.8518141,7.10392723 27.2684676,11.0935849 27.2684676,14.9975391 C27.2684676,15.9362345 26.94749,16.427008 25.8568956,16.427008 L16.2968689,16.427008 L16.2968689,16.427008 Z" id="Fill-3" fill="#000000"></path>
                        <path d="M38.9242918,14.4214663 C38.9242918,12.0961536 37.6622662,9.4082183 34.8606016,9.4082183 C31.7168852,9.28006738 30.5833316,11.9465768 30.4978186,14.4214663 L38.9242918,14.4214663 Z M30.4978186,16.427008 C30.4978186,19.2002426 32.1659296,21.3763827 35.0320328,21.3763827 C38.4108087,21.3763827 39.2663437,19.1788167 40.2288714,19.1788167 C40.6993954,19.1788167 41.1484398,19.6053127 41.1484398,20.3734097 C41.1484398,21.6747278 38.0047233,23.7016954 35.0105533,23.7016954 C30.1128076,23.7016954 27.974041,19.7120377 27.974041,15.4026092 C27.952693,11.0082857 30.5618521,7.08290563 34.8395273,7.08290563 C39.0312844,7.08290563 41.4479379,11.072159 41.4479379,14.9761132 C41.4479379,15.9148086 41.1269602,16.4055822 40.0363658,16.4055822 L30.4978186,16.4055822 L30.4978186,16.427008 Z" id="Fill-5" fill="#000000"></path>
                        <path d="M42.6670044,8.53339622 C42.6670044,7.65857414 43.159008,7.10392723 43.9290301,7.10392723 C44.6986469,7.10392723 45.1906505,7.65857414 45.1906505,8.53339622 L45.1906505,9.17334232 L45.2546839,9.23721565 C46.3882374,7.70142586 47.9708354,7.10392723 49.4894,7.10392723 C51.8634996,7.10392723 54.8361902,8.68256875 54.8361902,13.2693208 L54.8361902,22.2722264 C54.8361902,23.1466442 54.3441866,23.7016954 53.5741645,23.7016954 C52.8045477,23.7016954 52.3125441,23.1466442 52.3125441,22.2722264 L52.3125441,13.3974717 C52.3125441,10.5599596 50.4304481,9.4082183 48.762337,9.4082183 C47.094226,9.4082183 45.21213,10.5599596 45.21213,13.3974717 L45.21213,22.2508005 C45.21213,23.1256226 44.7201264,23.6802695 43.9501043,23.6802695 C43.1800823,23.6802695 42.6884839,23.1256226 42.6884839,22.2508005 L42.6884839,8.53339622 L42.6670044,8.53339622 Z" id="Fill-7" fill="#000000"></path>
                        <path d="M55.0072971,4.92807007 C54.8577508,4.5225957 54.8147916,4.22425064 54.8147916,3.7973504 C54.8147916,2.51745821 55.8843117,1.60018866 57.0389396,1.60018866 C58.0229467,1.60018866 58.6215376,2.26156062 59.0065487,3.09353097 L63.4767295,15.7869407 L67.946505,3.09353097 C68.3315161,2.26156062 68.9301069,1.60018866 69.914114,1.60018866 C71.0687419,1.60018866 72.138262,2.51745821 72.138262,3.7973504 C72.138262,4.22425064 72.0742286,4.5225957 71.9457565,4.92807007 L65.6364388,21.9309083 C65.251833,22.9120512 64.781309,23.7015741 63.4978038,23.7015741 C62.2361834,23.7015741 61.7441798,22.9120512 61.3591688,21.9309083 L55.0072971,4.92807007 Z" id="Fill-9" fill="url(#linearGradient-1)"></path>
                        <path d="M80.6502482,13.9307736 C80.4151888,12.0109353 79.2601557,10.5814663 77.3351005,10.5814663 C75.4959636,10.5814663 74.2554175,12.0748086 74.0418376,13.9307736 L80.6502482,13.9307736 Z M74.1273506,16.8535849 C74.4053691,19.0293208 76.1160339,20.0322938 78.0410892,20.0322938 C80.1797242,20.0322938 81.6553297,18.261628 82.7463294,18.261628 C83.6444182,18.261628 84.4569942,19.2003234 84.4569942,20.1600404 C84.4569942,22.0588571 80.7572407,23.8723746 77.6775577,23.8723746 C73.0152767,23.8723746 69.8926345,20.2667655 69.8926345,15.4241159 C69.8926345,10.9655148 72.950838,6.91198383 77.3351005,6.91198383 C81.8263556,6.91198383 84.7994514,11.2428383 84.7994514,14.9123207 C84.7994514,16.2136388 84.2434143,16.8746065 82.9813887,16.8746065 L74.1273506,16.8746065 L74.1273506,16.8535849 Z" id="Fill-11" fill="url(#linearGradient-2)"></path>
                        <path d="M86.2108613,9.28006738 C86.2108613,7.80815092 87.3014557,7.08290563 88.3494963,7.08290563 C89.4400907,7.08290563 90.3600648,7.50940161 90.3600648,8.91744473 L90.424098,8.91744473 C91.1941202,7.70142586 92.0496555,7.08290563 93.3327548,7.08290563 C94.3378362,7.08290563 95.3429177,7.85059839 95.3429177,9.4292399 C95.3429177,10.8587089 94.102777,10.9654339 92.8622311,11.5629326 C91.6216853,12.1814528 90.3600648,12.7575256 90.3600648,14.4853396 L90.3600648,21.2268059 C90.3600648,22.6987224 89.5045294,23.6588436 88.2854629,23.6588436 C87.0663964,23.6588436 86.2108613,22.6777008 86.2108613,21.2268059 L86.2108613,9.28006738 Z" id="Fill-13" fill="url(#linearGradient-3)"></path>
                        <path d="M95.813604,9.53608624 C95.813604,8.06416979 96.6691392,7.10404851 97.8882053,7.10404851 C99.1072723,7.10404851 99.9628075,8.08559565 99.9628075,9.53608624 L99.9628075,21.2483531 C99.9628075,22.7202695 99.1072723,23.6803908 97.8882053,23.6803908 C96.6691392,23.6803908 95.813604,22.6988436 95.813604,21.2483531 L95.813604,9.53608624 Z M100.240825,2.92277088 C100.240825,4.28796227 99.1927853,5.46153367 97.909685,5.46153367 C96.6691392,5.46153367 95.5781396,4.2665364 95.5781396,2.92277088 C95.5781396,1.66390028 96.6691392,0.51215901 97.909685,0.51215901 C99.1498257,0.51215901 100.240825,1.62145282 100.240825,2.92277088 L100.240825,2.92277088 Z" id="Fill-15" fill="url(#linearGradient-4)"></path>
                        <path d="M103.234914,11.1147682 L102.315346,11.1147682 C101.181793,11.1147682 100.497284,10.3895229 100.497284,9.19492989 C100.497284,8.10665768 101.267306,7.27468733 102.315346,7.27468733 L103.234914,7.27468733 L103.234914,5.01324799 C103.234914,1.77066577 105.052977,0 107.597697,0 C109.073708,0 110.48528,0.447921843 110.48528,1.98411589 C110.48528,3.26400809 109.929244,3.84008085 108.77421,3.84008085 C108.089702,3.84008085 107.384118,3.84008085 107.384118,5.46157409 L107.384118,7.25326146 L108.688698,7.25326146 C109.928839,7.25326146 110.784373,7.7654609 110.784373,9.17350402 C110.784373,10.5386954 109.886284,11.0933423 108.688698,11.0933423 L107.384118,11.0933423 L107.384118,21.2269676 C107.384118,22.6988841 106.528583,23.6590053 105.309516,23.6590053 C104.090449,23.6590053 103.234914,22.6774582 103.234914,21.2269676 L103.234914,11.1147682 Z" id="Fill-17" fill="url(#linearGradient-5)"></path>
                        <path d="M111.575834,9.53608624 C111.575834,8.06416979 112.43137,7.10404851 113.650436,7.10404851 C114.869503,7.10404851 115.725038,8.08559565 115.725038,9.53608624 L115.725038,21.2483531 C115.725038,22.7202695 114.869503,23.6803908 113.650436,23.6803908 C112.43137,23.6803908 111.575834,22.6988436 111.575834,21.2483531 L111.575834,9.53608624 Z M115.981577,2.92277088 C115.981577,4.28796227 114.933536,5.46153367 113.650436,5.46153367 C112.40989,5.46153367 111.319295,4.2665364 111.319295,2.92277088 C111.319295,1.66390028 112.40989,0.51215901 113.650436,0.51215901 C114.890982,0.51215901 115.981577,1.62145282 115.981577,2.92277088 L115.981577,2.92277088 Z" id="Fill-19" fill="url(#linearGradient-6)"></path>
                        <path d="M127.894061,13.9307736 C127.659002,12.0109353 126.503969,10.5814663 124.578914,10.5814663 C122.739777,10.5814663 121.49923,12.0748086 121.285651,13.9307736 L127.894061,13.9307736 Z M121.371164,16.8535849 C121.649182,19.0293208 123.359847,20.0322938 125.284902,20.0322938 C127.423537,20.0322938 128.899142,18.261628 129.990142,18.261628 C130.888232,18.261628 131.700807,19.2003234 131.700807,20.1600404 C131.700807,22.0588571 128.001054,23.8723746 124.921371,23.8723746 C120.259089,23.8723746 117.136447,20.2667655 117.136447,15.4241159 C117.136447,10.9655148 120.194651,6.91198383 124.578914,6.91198383 C129.070168,6.91198383 132.043265,11.2428383 132.043265,14.9123207 C132.043265,16.2136388 131.487227,16.8746065 130.225201,16.8746065 L121.371164,16.8746065 L121.371164,16.8535849 Z" id="Fill-21" fill="url(#linearGradient-2)"></path>
                        <path d="M153.70816,23.2961806 C153.70816,22.9121321 154.029137,22.5923611 154.413744,22.5923611 C154.798754,22.5923611 155.119732,22.9121321 155.119732,23.2961806 C155.119732,23.6802291 154.798754,24 154.413744,24 C154.029137,24 153.70816,23.6802291 153.70816,23.2961806" id="Fill-23" fill="#000000"></path>
                        <path d="M151.548086,18.4961401 C151.548086,18.8163153 151.291547,19.1146604 151.291547,19.5201348 C151.291547,20.2668059 151.954576,20.6080027 152.617606,20.6080027 C153.259155,20.6080027 153.922186,20.2239542 153.922186,19.5201348 C153.922186,19.1999596 153.644167,18.7095903 153.644167,18.5600135 C153.644167,18.2616684 153.900706,18.0053666 154.221278,18.0053666 C154.884308,18.0053666 155.119772,19.1146604 155.119772,19.5840081 C155.119772,20.9706253 153.964739,21.9093208 152.617606,21.9093208 C151.291547,21.9093208 150.09396,20.9496037 150.09396,19.5840081 C150.09396,19.0722129 150.286465,18.0053666 150.906535,18.0053666 C151.206034,18.0053666 151.548086,18.1973908 151.548086,18.4961401" id="Fill-25" fill="#000000"></path>
                        <path d="M152.617404,16.4481509 C153.237473,16.4481509 153.921983,16.1279757 153.921983,15.4241563 C153.921983,14.7199326 153.237473,14.4001617 152.617404,14.4001617 C151.997333,14.4001617 151.291344,14.7199326 151.291344,15.4241563 C151.291344,16.1279757 151.997333,16.4481509 152.617404,16.4481509 M152.617404,13.0988436 C153.964942,13.0988436 155.11957,14.0161132 155.11957,15.4241563 C155.11957,16.8107736 153.964942,17.749469 152.617404,17.749469 C151.291344,17.749469 150.093757,16.7893477 150.093757,15.4241563 C150.115236,14.0589649 151.312824,13.0988436 152.617404,13.0988436" id="Fill-27" fill="#000000"></path>
                        <path d="M150.885056,12.5654609 C150.457491,12.5654609 150.157993,12.2881374 150.157993,11.9255148 C150.157993,11.584318 150.329019,11.3708679 150.649591,11.3280162 C150.30754,11.0082453 150.115034,10.6027709 150.115034,10.1334232 C150.115034,9.60020213 150.350499,9.13085442 150.778064,8.78925338 C150.371573,8.42663073 150.115034,7.87198383 150.115034,7.42406199 C150.115034,6.37864151 150.73551,5.65339622 151.868658,5.65339622 L154.34975,5.65339622 C154.777315,5.65339622 155.076813,5.93071967 155.076813,6.29334232 C155.076813,6.67739083 154.798795,6.93328842 154.34975,6.93328842 L152.082643,6.93328842 C151.569566,6.93328842 151.184554,7.21061187 151.184554,7.67995957 C151.184554,8.14930728 151.548086,8.4480566 152.082643,8.4480566 L154.34975,8.4480566 C154.777315,8.4480566 155.076813,8.72538005 155.076813,9.0880027 C155.076813,9.47205121 154.798795,9.72794879 154.34975,9.72794879 L152.082643,9.72794879 C151.569566,9.72794879 151.184554,10.0052722 151.184554,10.47462 C151.184554,11.0082453 151.548086,11.242717 152.082643,11.242717 L154.34975,11.242717 C154.777315,11.242717 155.076813,11.5200404 155.076813,11.8826631 C155.076813,12.2667116 154.798795,12.5226092 154.34975,12.5226092 L150.885056,12.5226092 L150.885056,12.5654609 Z" id="Fill-29" fill="#000000"></path>
                        <path d="M142.11641,15.5521455 L143.463948,19.1363288 L140.298346,16.8534636 L137.133151,19.1363288 L138.480689,15.5521455 L135.700504,13.5466038 L139.229232,13.5466038 L140.277273,10.7519434 L141.324908,13.5466038 L144.85404,13.5466038 L142.11641,15.5521455 Z M145.624063,0.0212237339 C144.404996,0.0212237339 143.549461,1.00277088 143.549461,2.45326146 L143.549461,8.42663073 C142.458462,7.42406199 141.04689,6.89084095 139.592763,6.89084095 C135.122988,6.89084095 132.898435,11.3065903 132.898435,15.5949973 C132.898435,19.754849 135.550553,23.8722533 139.74231,23.8722533 C141.153882,23.8722533 142.779439,23.2108814 143.549461,21.8667116 C143.806,23.0188571 144.46903,23.7016549 145.624063,23.7016549 C146.84313,23.7016549 147.698259,22.7201078 147.698259,21.2696172 L147.698259,2.45326146 C147.698259,0.981345012 146.84313,0.0212237339 145.624063,0.0212237339 L145.624063,0.0212237339 Z" id="Fill-31" fill="url(#linearGradient-7)"></path>
                        <polygon id="Fill-33" fill="#000000" points="158.969356 0.511997305 158.969356 0.959919148 158.220813 0.959919148 158.220813 2.9864825 157.70733 2.9864825 157.70733 0.959919148 156.958788 0.959919148 156.958788 0.511997305"></polygon>
                        <polygon id="Fill-35" fill="#000000" points="160.915566 0.511997305 161.664109 0.511997305 161.664109 2.9864825 161.172105 2.9864825 161.172105 1.32254179 161.172105 1.13051754 161.172105 0.938493283 160.701582 3.00790837 160.188504 3.00790837 159.739459 0.896045816 159.739459 1.08807007 159.739459 1.28009433 159.739459 2.94403504 159.247455 2.94403504 159.247455 0.511997305 159.995998 0.511997305 160.445043 2.45326146"></polygon>
                    </g>
                </g>
            </g>
        </g>
    </g>
</svg>