<svg width="19" height="19" viewBox="0 0 19 19" fill="none" xmlns="http://www.w3.org/2000/svg">
<path d="M17.5611 8.29391L12.4601 6.43976L10.606 1.33881C10.5146 1.09261 10.3501 0.880268 10.1345 0.73032C9.91885 0.580373 9.66252 0.5 9.3999 0.5C9.13728 0.5 8.88096 0.580373 8.66535 0.73032C8.44975 0.880268 8.2852 1.09261 8.19382 1.33881L6.33966 6.43976L1.23871 8.29391C0.992509 8.3853 0.78017 8.54985 0.630222 8.76545C0.480275 8.98105 0.399902 9.23738 0.399902 9.5C0.399902 9.76262 0.480275 10.0189 0.630222 10.2345C0.78017 10.4502 0.992509 10.6147 1.23871 10.7061L6.33966 12.561L8.19382 17.6612C8.2852 17.9074 8.44975 18.1197 8.66535 18.2697C8.88096 18.4196 9.13728 18.5 9.3999 18.5C9.66252 18.5 9.91885 18.4196 10.1345 18.2697C10.3501 18.1197 10.5146 17.9074 10.606 17.6612L12.461 12.5602L17.5611 10.7061C17.8073 10.6147 18.0196 10.4502 18.1696 10.2345C18.3195 10.0189 18.3999 9.76262 18.3999 9.5C18.3999 9.23738 18.3195 8.98105 18.1696 8.76545C18.0196 8.54985 17.8073 8.3853 17.5611 8.29391ZM11.7381 11.4539C11.6499 11.486 11.5697 11.537 11.5033 11.6034C11.4369 11.6698 11.3859 11.75 11.3538 11.8382L9.3999 17.2109L7.44604 11.8382C7.41391 11.75 7.36286 11.6698 7.29646 11.6034C7.23006 11.537 7.14993 11.486 7.0617 11.4539L1.68899 9.5L7.0617 7.54614C7.14993 7.51401 7.23006 7.46296 7.29646 7.39656C7.36286 7.33016 7.41391 7.25003 7.44604 7.1618L9.3999 1.78908L11.3538 7.1618C11.3859 7.25003 11.4369 7.33016 11.5033 7.39656C11.5697 7.46296 11.6499 7.51401 11.7381 7.54614L17.1108 9.5L11.7381 11.4539Z" fill="#0C0C0C"/>
</svg>
