<svg xmlns="http://www.w3.org/2000/svg" width="628" height="186" fill="none" viewBox="0 0 628 186"><path fill="#2E3091" d="M221.651.915014h27.929c3.753-.010406 7.499.350686 11.181 1.078006 3.393.64163 6.642 1.89176 9.59 3.69 2.797 1.73674 5.104 4.16022 6.7 7.03998 1.787 3.4684 2.648 7.3393 2.5 11.238.177 5.2986-1.532 10.4881-4.824 14.644-3.216 3.9333-7.813 6.3174-13.792 7.152l21.341 35.531h-17.258L246.402 47.23h-10.444v34.055h-14.307V.915014ZM247.079 34.97c2.043 0 4.087-.0947 6.13-.284 1.932-.1619 3.827-.6214 5.619-1.362 1.662-.687 3.098-1.8278 4.143-3.292 1.162-1.8462 1.717-4.0094 1.589-6.187.094-1.9978-.42-3.9772-1.476-5.676-.96-1.4174-2.297-2.538-3.86-3.235-1.676-.7425-3.457-1.2211-5.279-1.419-1.865-.2233-3.741-.3371-5.619-.341h-12.368v21.8l11.121-.004Zm55.737 23.838c.125 1.8257.61 3.6084 1.429 5.2451.818 1.6367 1.953 3.0948 3.339 4.2899 2.774 2.288 6.281 3.4971 9.876 3.405 2.996.1035 5.961-.6233 8.57-2.1 2.31-1.4016 4.363-3.1869 6.073-5.279l9.762 7.379c-2.804 3.6431-6.472 6.53-10.671 8.4-3.913 1.6614-8.122 2.5118-12.373 2.5-3.949.0225-7.869-.6704-11.57-2.045-3.497-1.2785-6.701-3.2472-9.422-5.789-2.687-2.5522-4.83-5.6218-6.3-9.024-1.59-3.7101-2.383-7.7129-2.327-11.749-.056-4.0361.737-8.0389 2.327-11.749 1.47-3.4025 3.613-6.4724 6.3-9.025 2.721-2.5418 5.925-4.5105 9.422-5.789 3.704-1.375 7.627-2.0672 11.579-2.043 3.561-.0431 7.093.6328 10.387 1.987 3.082 1.2829 5.837 3.2421 8.06 5.733 2.348 2.6992 4.124 5.8462 5.222 9.251 1.312 4.0882 1.945 8.364 1.873 12.657v3.746l-41.556-.001Zm27.925-10.217c-.075-4.0107-1.324-7.1703-3.746-9.479-2.422-2.3087-5.789-3.4627-10.1-3.462-4.087 0-7.322 1.173-9.706 3.519-2.484 2.554-4.025 5.8765-4.37 9.422h27.922Zm18.957-21.8h14.871l14.53 38.142h.227l14.644-38.142h13.962l-21.451 54.493h-14.53l-22.253-54.493Zm77.191 32.012c.125 1.8257.61 3.6085 1.429 5.2452.818 1.6367 1.953 3.0948 3.339 4.2898 2.774 2.288 6.281 3.4971 9.876 3.405 2.996.1035 5.961-.6233 8.57-2.1 2.31-1.4016 4.363-3.1869 6.073-5.279l9.762 7.379c-2.804 3.643-6.472 6.53-10.671 8.4-3.913 1.6614-8.122 2.5118-12.373 2.5-3.952.0242-7.875-.668-11.579-2.043-3.497-1.2785-6.701-3.2472-9.422-5.789-2.687-2.5522-4.83-5.6218-6.3-9.024-1.59-3.7101-2.383-7.7129-2.327-11.749-.056-4.0361.737-8.0389 2.327-11.749 1.47-3.4025 3.613-6.4724 6.3-9.025 2.721-2.5418 5.925-4.5105 9.422-5.789 3.704-1.375 7.627-2.0672 11.579-2.043 3.561-.043 7.093.6328 10.387 1.987 3.082 1.2829 5.837 3.2422 8.06 5.733 2.348 2.6992 4.124 5.8462 5.222 9.251 1.312 4.0882 1.945 8.364 1.873 12.657v3.746l-41.547-.003Zm27.925-10.217c-.076-4.0107-1.325-7.1703-3.746-9.479-2.421-2.3087-5.788-3.4627-10.1-3.462-4.087 0-7.322 1.173-9.706 3.519-2.484 2.554-4.025 5.8765-4.37 9.422h27.922Zm26.336-21.8h13.622v8.627h.227c1.39-3.0385 3.639-5.6036 6.47-7.379 2.903-1.769 6.25-2.6746 9.649-2.611.819-.0012 1.636.0748 2.441.227.795.1513 1.608.3407 2.441.568v13.168c-1.133-.3026-2.25-.5487-3.349-.738-1.068-.1867-2.151-.2817-3.235-.284-2.667-.1236-5.316.4847-7.662 1.759-1.75 1.0074-3.26 2.3824-4.427 4.03-.959 1.3728-1.652 2.913-2.043 4.541-.284 1.1149-.456 2.2557-.511 3.405v29.174h-13.622l-.001-54.487Zm73.218 15.1c-1.165-1.7523-2.754-3.1813-4.62-4.1538-1.866-.9726-3.948-1.457-6.051-1.4082-1.863.0117-3.695.4793-5.335 1.362-.826.3981-1.514 1.0323-1.979 1.8222-.465.7898-.685 1.6999-.632 2.6148-.038.7505.147 1.4954.53 2.1415.384.6461.95 1.1646 1.627 1.4905 1.731.8625 3.561 1.5106 5.449 1.93 2.195.53 4.56 1.0787 7.095 1.646 2.472.5445 4.859 1.4229 7.095 2.611 2.173 1.1536 4.04 2.807 5.449 4.824 1.438 2.0433 2.157 4.8434 2.157 8.4.096 2.8872-.632 5.742-2.1 8.23-1.368 2.2004-3.234 4.0476-5.449 5.392-2.333 1.4013-4.885 2.399-7.549 2.951-2.76.601-5.576.9054-8.4.908-3.971.0422-7.921-.5713-11.692-1.816-3.705-1.3119-6.996-3.5839-9.535-6.584l9.081-8.514c1.629 1.872 3.522 3.4971 5.619 4.824 2.214 1.3042 4.753 1.9537 7.322 1.873 1.031-.0053 2.058-.1196 3.065-.341 1.038-.2188 2.034-.602 2.951-1.135.871-.4966 1.626-1.1741 2.214-1.987.573-.8125.871-1.7869.851-2.781.051-.8293-.122-1.6572-.501-2.3964-.38-.7392-.952-1.3623-1.656-1.8036-1.692-1.0132-3.53-1.7599-5.449-2.214-2.195-.5673-4.56-1.097-7.095-1.589-2.463-.4675-4.85-1.2696-7.095-2.384-2.162-1.0699-4.032-2.6484-5.449-4.6-1.438-1.9673-2.157-4.6917-2.157-8.173-.068-2.7473.577-5.4654 1.873-7.889 1.207-2.1859 2.896-4.0684 4.938-5.505 2.133-1.4789 4.518-2.5563 7.038-3.179 2.633-.6792 5.341-1.0226 8.06-1.022 3.675.0073 7.322.6407 10.784 1.873 3.475 1.188 6.492 3.4323 8.629 6.419l-9.083 8.163Zm-332.717 61.098h27.021c3.756-.009 7.502.373 11.179 1.139 3.369.665 6.584 1.954 9.479 3.8 2.742 1.798 4.987 4.257 6.527 7.152 1.736 3.464 2.575 7.309 2.441 11.181 0 5.071-.87 9.157-2.611 12.26-1.642 3.001-4.075 5.494-7.036 7.207-3.18 1.781-6.664 2.955-10.273 3.462-4.037.616-8.116.919-12.2.908h-10.22v33.26h-14.307v-80.369Zm22.93 34.85c2.043 0 4.162-.076 6.357-.227 2.084-.126 4.134-.586 6.073-1.362 1.791-.709 3.359-1.885 4.541-3.405 1.277-1.864 1.896-4.101 1.76-6.357.11-2.104-.446-4.19-1.589-5.96-1.048-1.466-2.456-2.639-4.087-3.405-1.755-.819-3.635-1.337-5.562-1.532-1.959-.222-3.929-.336-5.9-.341h-10.216v22.59l8.623-.001Zm58.8-1.362h.227c1.287-2.527 3.227-4.663 5.619-6.187 3.096-1.969 6.721-2.94 10.387-2.781 3.181-.092 6.342.528 9.252 1.816 2.395 1.102 4.51 2.732 6.187 4.768 1.606 2.002 2.767 4.324 3.405 6.811.689 2.631 1.032 5.34 1.022 8.06v34.4h-13.617v-27.584c0-1.513-.076-3.197-.227-5.051-.137-1.79-.539-3.55-1.192-5.222-.626-1.603-1.663-3.013-3.008-4.087-1.608-1.175-3.574-1.756-5.562-1.646-1.972-.061-3.933.327-5.733 1.135-1.502.717-2.821 1.765-3.86 3.065-1.033 1.309-1.787 2.815-2.214 4.427-.459 1.702-.688 3.459-.681 5.222v29.741h-13.621V97.541h13.622l-.006 38.931Zm48.812 19.638c-.056-4.036.737-8.039 2.327-11.749 1.47-3.403 3.613-6.472 6.3-9.025 2.721-2.542 5.925-4.51 9.422-5.789 3.704-1.375 7.627-2.067 11.579-2.043 3.951-.024 7.874.668 11.579 2.043 3.497 1.279 6.701 3.247 9.422 5.789 2.687 2.553 4.83 5.622 6.3 9.025 1.59 3.71 2.383 7.713 2.327 11.749.056 4.036-.737 8.039-2.327 11.749-1.47 3.403-3.613 6.472-6.3 9.025-2.721 2.542-5.925 4.51-9.422 5.789-3.705 1.375-7.628 2.067-11.579 2.043-3.948.023-7.868-.669-11.57-2.043-3.497-1.279-6.701-3.247-9.422-5.789-2.687-2.553-4.83-5.622-6.3-9.025-1.591-3.71-2.385-7.713-2.33-11.749h-.006Zm13.622 0c-.005 2.091.36 4.166 1.078 6.13.699 1.936 1.78 3.711 3.178 5.222 1.427 1.533 3.143 2.768 5.051 3.633 2.107.937 4.394 1.402 6.7 1.362 2.306.04 4.593-.425 6.7-1.362 1.907-.865 3.624-2.1 5.051-3.633 1.398-1.511 2.479-3.286 3.178-5.222.718-1.964 1.083-4.039 1.078-6.13.005-2.091-.36-4.166-1.078-6.13-.699-1.936-1.78-3.711-3.178-5.222-1.427-1.533-3.144-2.768-5.051-3.633-2.107-.937-4.394-1.402-6.7-1.362-2.306-.04-4.593.425-6.7 1.362-1.908.865-3.624 2.1-5.051 3.633-1.398 1.511-2.479 3.286-3.178 5.222-.716 1.964-1.079 4.039-1.072 6.13h-.006Zm58.347-27.244h12.941v8.741h.227c1.358-2.811 3.383-5.247 5.9-7.095 2.649-2.005 6.243-3.008 10.784-3.008 3.181-.092 6.342.528 9.252 1.816 2.395 1.103 4.51 2.733 6.187 4.768 1.606 2.002 2.767 4.324 3.405 6.811.689 2.631 1.032 5.34 1.022 8.06v34.4h-13.613v-27.584c0-1.513-.076-3.197-.227-5.051-.137-1.79-.538-3.55-1.192-5.222-.626-1.603-1.663-3.013-3.008-4.087-1.608-1.175-3.574-1.756-5.562-1.646-1.972-.061-3.933.327-5.733 1.135-1.502.717-2.821 1.765-3.86 3.065-1.033 1.309-1.787 2.815-2.214 4.427-.459 1.702-.688 3.459-.681 5.222v29.741h-13.622l-.006-54.493Zm76.056 32.012c.125 1.826.61 3.608 1.429 5.245.818 1.637 1.953 3.095 3.339 4.29 2.774 2.288 6.281 3.497 9.876 3.405 2.996.104 5.961-.623 8.57-2.1 2.31-1.402 4.363-3.187 6.073-5.279l9.762 7.379c-2.804 3.643-6.471 6.53-10.671 8.4-3.913 1.661-8.122 2.512-12.373 2.5-3.949.023-7.87-.67-11.572-2.045-3.497-1.279-6.701-3.247-9.422-5.789-2.687-2.553-4.83-5.622-6.3-9.025-1.59-3.71-2.383-7.713-2.327-11.749-.056-4.036.737-8.039 2.327-11.749 1.47-3.403 3.613-6.472 6.3-9.025 2.721-2.542 5.925-4.51 9.422-5.789 3.704-1.375 7.627-2.067 11.579-2.043 3.561-.043 7.093.633 10.387 1.987 3.082 1.283 5.837 3.242 8.06 5.733 2.348 2.7 4.124 5.847 5.222 9.252 1.312 4.088 1.945 8.364 1.873 12.657v3.746l-41.554-.001Zm27.933-10.217c-.076-4.011-1.325-7.17-3.746-9.479-2.421-2.309-5.788-3.463-10.1-3.462-4.087 0-7.322 1.173-9.706 3.519-2.484 2.554-4.025 5.877-4.37 9.422h27.922Z" opacity=".97"/><path fill="#2E3091" d="M585.895 58.808c.125 1.8257.61 3.6084 1.429 5.2451.818 1.6367 1.953 3.0948 3.339 4.2899 2.774 2.288 6.281 3.4971 9.876 3.405 2.996.1035 5.962-.6233 8.57-2.1 2.31-1.4017 4.364-3.1869 6.073-5.279l9.762 7.379c-2.804 3.643-6.471 6.53-10.671 8.4-3.913 1.6613-8.122 2.5118-12.373 2.5-3.951.0242-7.874-.668-11.579-2.043-3.497-1.2786-6.701-3.2473-9.422-5.789-2.687-2.5523-4.83-5.6219-6.3-9.024-1.59-3.7102-2.383-7.7129-2.327-11.749-.056-4.0361.737-8.0389 2.327-11.749 1.47-3.4025 3.613-6.4724 6.3-9.025 2.721-2.5418 5.925-4.5105 9.422-5.789 3.705-1.375 7.628-2.0672 11.579-2.043 3.561-.043 7.094.6328 10.387 1.987 3.082 1.2829 5.837 3.2422 8.06 5.733 2.348 2.6992 4.124 5.8462 5.222 9.251 1.312 4.0881 1.945 8.3639 1.873 12.657v3.746l-41.547-.003Zm27.925-10.217c-.076-4.0107-1.325-7.1704-3.746-9.479-2.421-2.3087-5.788-3.4627-10.1-3.462-4.087 0-7.322 1.173-9.706 3.519-2.483 2.5539-4.024 5.8765-4.37 9.422h27.922Z" opacity=".97"/><path fill="#2E3192" d="M141 1.08496H43c-23.7482 0-43 19.25174-43 43.00004v98c0 23.748 19.2518 43 43 43h98c23.748 0 43-19.252 43-43v-98c0-23.7483-19.252-43.00004-43-43.00004Z"/><mask id="a" width="63" height="84" x="29" y="51" maskUnits="userSpaceOnUse" style="mask-type:luminance"><path fill="#fff" d="M91.8161 51.238h-62.049v83.325h62.049V51.238Z"/></mask><g mask="url(#a)"><path fill="#fff" d="M53.4142 96.161c1.9833-1.9832 4.6732-3.0973 7.478-3.0973 2.8047 0 5.4946 1.1141 7.478 3.0973l20.348 20.348c.9979.978 1.792 2.145 2.3363 3.432.5444 1.288.8282 2.67.8351 4.068.0068 1.397-.2634 2.782-.795 4.075-.5317 1.292-1.3143 2.467-2.3026 3.455-.9882.988-2.1625 1.771-3.4551 2.302-1.2925.532-2.6776.802-4.0752.795-1.3976-.006-2.78-.29-4.0672-.835-1.2872-.544-2.4538-1.338-3.4323-2.336l-20.348-20.345c-1.9832-1.983-3.0973-4.673-3.0973-7.478 0-2.805 1.1141-5.4946 3.0973-7.478"/><path fill="#fff" d="M53.4142 111.117c-1.9832-1.983-3.0973-4.673-3.0973-7.478 0-2.805 1.1141-5.4946 3.0973-7.4779l20.348-20.349c1.9871-1.9655 4.6715-3.0644 7.4664-3.0567 2.7949.0077 5.4731 1.1215 7.4494 3.0979 1.9762 1.9763 3.0898 4.6546 3.0973 7.4496.0076 2.7949-1.0916 5.4792-3.0571 7.4662l-20.348 20.3479c-1.9834 1.983-4.6733 3.097-7.478 3.097-2.8048 0-5.4947-1.114-7.478-3.097Z"/><path fill="#fff" d="M68.1671 110.917c-1.9833 1.983-4.6732 3.097-7.478 3.097-2.8047 0-5.4946-1.114-7.478-3.097l-20.344-20.348c-1.9417-1.9916-3.0206-4.668-3.0031-7.4494.0175-2.7815 1.13-5.4441 3.0967-7.4111 1.9666-1.967 4.6289-3.0801 7.4104-3.0982 2.7814-.018 5.458 1.0604 7.45 3.0017l20.346 20.349c1.9832 1.9834 3.0973 4.673 3.0973 7.478 0 2.805-1.1141 5.495-3.0973 7.478Z"/><path fill="#fff" d="M68.1671 95.961c1.9831 1.9834 3.0973 4.673 3.0973 7.478 0 2.805-1.1142 5.495-3.0973 7.478l-20.346 20.348c-1.9934 1.934-4.6674 3.006-7.4445 2.984-2.777-.021-5.4343-1.134-7.3979-3.098-1.9636-1.963-3.0759-4.621-3.0968-7.398-.0209-2.777 1.0514-5.451 2.9852-7.444l20.346-20.348c1.9833-1.9831 4.6732-3.0972 7.478-3.0972 2.8047 0 5.4946 1.1141 7.478 3.0972"/><path fill="#61BB6D" d="M68.2701 69.292c-1.4791 1.4792-3.3635 2.4866-5.4151 2.8948-2.0516.4081-4.1781.1987-6.1107-.6017-1.9326-.8005-3.5844-2.156-4.7465-3.8952-1.1622-1.7393-1.7825-3.7841-1.7825-5.8759 0-2.0917.6203-4.1365 1.7825-5.8758 1.1621-1.7392 2.8139-3.0948 4.7465-3.8952 1.9326-.8004 4.0591-1.0098 6.1107-.6017 2.0516.4082 3.936 1.4156 5.4151 2.8947 1.9831 1.9834 3.0972 4.6733 3.0972 7.478 0 2.8048-1.1141 5.4947-3.0972 7.478Z"/></g><path fill="#EB6B56" d="M108.406 96.161c1.983-1.9832 4.673-3.0973 7.478-3.0973 2.805 0 5.495 1.1141 7.478 3.0973l20.348 20.348c.998.978 1.792 2.145 2.336 3.432.545 1.288.828 2.67.835 4.068.007 1.397-.263 2.782-.795 4.075-.531 1.292-1.314 2.467-2.302 3.455-.989.988-2.163 1.771-3.455 2.302-1.293.532-2.678.802-4.076.795-1.397-.006-2.78-.29-4.067-.835-1.287-.544-2.454-1.338-3.432-2.336l-20.348-20.345c-1.983-1.983-3.097-4.673-3.097-7.478 0-2.805 1.114-5.4946 3.097-7.478"/><path fill="#EB6B56" d="M108.406 111.117c-1.983-1.983-3.097-4.673-3.097-7.478 0-2.805 1.114-5.4946 3.097-7.4779l20.348-20.349c1.987-1.9655 4.671-3.0644 7.466-3.0567 2.795.0077 5.473 1.1215 7.45 3.0979 1.976 1.9763 3.089 4.6546 3.097 7.4496.008 2.7949-1.092 5.4792-3.057 7.4662l-20.348 20.3479c-1.983 1.983-4.673 3.097-7.478 3.097-2.805 0-5.495-1.114-7.478-3.097Z"/><mask id="b" width="184" height="185" x="0" y="1" maskUnits="userSpaceOnUse" style="mask-type:luminance"><path fill="#fff" d="M141 1.08496H43c-23.7482 0-43 19.25174-43 43.00004v98c0 23.748 19.2518 43 43 43h98c23.748 0 43-19.252 43-43v-98c0-23.7483-19.252-43.00004-43-43.00004Z"/></mask><g fill="#FCC222" mask="url(#b)"><path d="M160.453 96.161c1.983-1.9832 4.673-3.0973 7.478-3.0973 2.805 0 5.495 1.1141 7.478 3.0973l20.348 20.348c.998.978 1.792 2.145 2.336 3.432.545 1.288.829 2.67.835 4.068.007 1.397-.263 2.782-.795 4.075-.531 1.292-1.314 2.467-2.302 3.455s-2.163 1.771-3.455 2.302c-1.293.532-2.678.802-4.075.795-1.398-.006-2.78-.29-4.068-.835-1.287-.544-2.454-1.338-3.432-2.336l-20.348-20.345c-1.983-1.983-3.097-4.673-3.097-7.478 0-2.805 1.114-5.4946 3.097-7.478"/><path d="M160.453 111.117c-1.983-1.983-3.097-4.673-3.097-7.478 0-2.805 1.114-5.4946 3.097-7.4779l20.348-20.349c1.987-1.9655 4.671-3.0644 7.466-3.0567 2.795.0077 5.474 1.1215 7.45 3.0979 1.976 1.9763 3.09 4.6546 3.097 7.4496.008 2.7949-1.091 5.4792-3.057 7.4662l-20.348 20.3479c-1.983 1.983-4.673 3.097-7.478 3.097-2.805 0-5.495-1.114-7.478-3.097Z"/></g><path fill="#2E3192" d="M552.155 181.814c-.004-.364.068-.726.211-1.061.143-.335.355-.637.621-.886.261-.263.573-.471.917-.611.344-.14.712-.209 1.083-.203.737-.007 1.447.272 1.982.779.271.238.488.532.635.862.146.33.219.688.214 1.049.004.365-.068.726-.211 1.061-.144.335-.355.637-.621.886-.262.263-.573.471-.917.611-.344.14-.712.209-1.083.203-.371.002-.738-.07-1.08-.212-.331-.135-.635-.326-.9-.566-.261-.238-.472-.527-.619-.849-.155-.333-.234-.696-.232-1.063Zm22.087-9.415c-.455-.487-.98-.905-1.557-1.239-.505-.296-1.079-.455-1.664-.46-.687-.015-1.368.117-2 .385-.632.268-1.2.668-1.666 1.172-.436.471-.773 1.025-.991 1.628-.449 1.235-.449 2.588 0 3.823.218.604.555 1.157.991 1.628.466.504 1.033.903 1.664 1.172.632.268 1.313.399 1.999.385.637.006 1.266-.133 1.841-.407.571-.275 1.068-.681 1.451-1.186l2.832 3.044c-.436.434-.93.804-1.469 1.1-.536.299-1.099.547-1.681.743-.531.18-1.075.316-1.628.407-.445.076-.894.118-1.345.124-1.232.008-2.455-.208-3.61-.637-1.091-.398-2.09-1.012-2.938-1.805-.838-.796-1.506-1.753-1.964-2.814-.968-2.346-.968-4.98 0-7.327.458-1.061 1.126-2.018 1.964-2.814.848-.792 1.847-1.406 2.938-1.805 1.155-.428 2.378-.644 3.61-.637 1.12.006 2.229.216 3.274.619 1.104.417 2.092 1.09 2.885 1.964l-2.936 2.937Zm4.6 3.4c-.017-1.258.23-2.506.726-3.663.458-1.061 1.126-2.018 1.964-2.814.848-.792 1.847-1.406 2.938-1.805 2.332-.849 4.889-.849 7.221 0 1.09.399 2.09 1.013 2.938 1.805.838.796 1.506 1.753 1.964 2.814.967 2.347.967 4.981 0 7.327-.458 1.061-1.126 2.018-1.964 2.814-.848.793-1.848 1.407-2.938 1.805-2.332.85-4.889.85-7.221 0-1.091-.398-2.09-1.012-2.938-1.805-.838-.796-1.506-1.753-1.964-2.814-.496-1.158-.743-2.407-.725-3.666l-.001.002Zm4.247 0c-.002.652.112 1.299.336 1.911.218.604.555 1.157.991 1.628.469.501 1.037.901 1.667 1.174.63.273 1.31.414 1.996.414.687 0 1.367-.141 1.997-.414.63-.273 1.197-.673 1.667-1.174.436-.471.773-1.024.991-1.628.448-1.235.448-2.588 0-3.823-.218-.603-.555-1.157-.991-1.628-.47-.501-1.037-.901-1.667-1.174-.63-.273-1.31-.414-1.997-.414-.686 0-1.366.141-1.996.414-.63.273-1.198.673-1.667 1.174-.436.471-.773 1.025-.991 1.628-.223.612-.336 1.259-.334 1.91l-.002.002Zm18.016-8.495h4.035v2.655h.071c.421-.854 1.047-1.589 1.823-2.141.995-.671 2.181-1.001 3.38-.938 2.667 0 4.436 1.05 5.309 3.15.527-.996 1.324-1.824 2.3-2.389 1.015-.53 2.148-.792 3.292-.761.986-.03 1.966.164 2.867.566.751.354 1.401.889 1.894 1.557.499.695.854 1.483 1.044 2.318.218.934.325 1.89.319 2.849v10.123h-4.245v-9.628c.001-.503-.047-1.006-.142-1.5-.084-.453-.253-.885-.5-1.274-.238-.367-.567-.666-.956-.867-.486-.231-1.02-.34-1.557-.319-.583-.017-1.16.11-1.681.372-.449.238-.837.578-1.133.991-.299.425-.513.903-.632 1.409-.129.527-.195 1.068-.195 1.61v9.2h-4.243v-10.118c.047-.893-.189-1.779-.673-2.531-.265-.328-.608-.586-.997-.75-.389-.163-.813-.228-1.233-.188-.615-.019-1.226.102-1.787.354-.467.224-.877.551-1.2.956-.322.408-.557.878-.69 1.381-.143.531-.214 1.078-.212 1.628v9.274h-4.256l-.002-16.989Z" opacity=".97"/></svg>
