<?xml version="1.0" encoding="UTF-8"?>
<svg width="160px" height="26px" viewBox="0 0 160 26" version="1.1" xmlns="http://www.w3.org/2000/svg" xmlns:xlink="http://www.w3.org/1999/xlink">
    <!-- Generator: Sketch 54.1 (76490) - https://sketchapp.com -->
    <title>PL-Logo-darker-teal</title>
    <desc>Created with Sketch.</desc>
    <defs>
        <polygon id="path-1" points="7.99510204 14.7150043 7.99510204 0.33147234 0.40892517 0.33147234 0.40892517 14.7150043 7.99510204 14.7150043"></polygon>
    </defs>
    <g id="Page-1" stroke="none" stroke-width="1" fill="none" fill-rule="evenodd">
        <g id="PL_LandingFlow_NewLP_Desktop_opt1A_v2" transform="translate(-230.000000, -20.000000)">
            <g id="Hero">
                <g id="Header" transform="translate(230.000000, 20.000000)">
                    <g id="PL-Logo-darker-teal">
                        <path d="M5.00108844,5.6313234 C4.7355102,5.6313234 3.65306122,5.64072766 3.38748299,5.65842979 L3.38748299,12.7625149 C3.67156463,12.7984723 4.83292517,12.8161745 5.24,12.8161745 C5.64761905,12.8161745 6.07319728,12.7287702 6.51564626,12.5534085 C6.95918367,12.3774936 7.33088435,12.1324298 7.63183673,11.8171106 C8.26095238,11.1599191 8.5755102,10.295834 8.5755102,9.22374894 C8.5755102,6.82898298 7.38421769,5.6313234 5.00108844,5.6313234 L5.00108844,5.6313234 Z M0.000272108827,2.61974894 C1.2307483,2.45766383 2.49333333,2.37634468 3.78639456,2.37634468 C6.19564626,2.37634468 8.84380952,2.95055745 10.0965986,4.09842979 C11.349932,5.24685532 11.9768707,6.9639617 11.9768707,9.25085532 C11.9768707,11.2948979 11.2906122,12.9107702 9.9170068,14.0995787 C8.63319728,15.2159191 6.9814966,15.7740894 4.96190476,15.7740894 C4.73115646,15.7740894 3.66231293,15.7608128 3.38748299,15.7337064 L3.38748299,20.6764723 L0.000272108827,20.6764723 L0.000272108827,2.61974894 Z" id="Fill-1" fill="#2BB29E"></path>
                        <path d="M23.4098503,12.0330213 C23.0463129,10.0974043 22.0101224,9.12931915 20.3007347,9.12931915 C18.9537959,9.12931915 17.9312109,9.71902128 17.2308027,10.8984255 C17.0185578,11.2591064 16.8547483,11.6546383 16.7399184,12.087234 C16.9527075,12.0960851 17.2133878,12.1054894 17.5235918,12.1137872 L18.506449,12.1137872 C18.8346122,12.1231915 19.1486259,12.127617 19.4506667,12.127617 L20.2071293,12.127617 C20.6588299,12.127617 21.1023673,12.1231915 21.5361088,12.1137872 L22.6256327,12.0734043 C22.9178776,12.0651064 23.179102,12.0512766 23.4098503,12.0330213 M13.259102,13.7346383 C13.259102,12.6813617 13.4354286,11.7044255 13.7902585,10.8038298 C14.1445442,9.90378723 14.6452245,9.11604255 15.2912109,8.44059574 C16.6729796,7.00893617 18.4797823,6.29310638 20.7121633,6.29310638 C22.598966,6.29310638 24.1135238,6.92761702 25.256381,8.19719149 C26.3812789,9.42195745 26.944,10.9614894 26.944,12.8163404 C26.944,13.5277447 26.8906667,14.014 26.7845442,14.2751064 C25.8980136,14.5273617 24.0961088,14.6529362 21.3766531,14.6529362 L16.6996463,14.6529362 C16.9303946,15.6171489 17.4659048,16.3661702 18.3078095,16.9022128 C19.1486259,17.4382553 20.2430476,17.7054468 21.588898,17.7054468 C22.9973333,17.7054468 24.2071293,17.448766 25.2166531,16.9354043 C25.4827755,16.8004255 25.681415,16.6748511 25.8142041,16.5575745 C25.7967891,16.9354043 25.7750204,17.3231915 25.7483537,17.7187234 L25.601415,19.8258298 C24.9287619,20.294383 23.8392381,20.6185532 22.3328435,20.7983404 C21.8903946,20.852 21.4653605,20.8791064 21.0577415,20.8791064 C18.8079456,20.8791064 16.9478095,20.2130638 15.4773333,18.8804255 C13.9981497,17.5389362 13.259102,15.8240426 13.259102,13.7346383" id="Fill-3" fill="#2BB29E"></path>
                        <path d="M31.7219592,13.6131574 C31.7219592,14.1801787 31.8144762,14.7300511 32.0005986,15.2611149 C32.1867211,15.7921787 32.4522993,16.2469021 32.7978776,16.6247319 C33.5331156,17.4445617 34.4985578,17.8539234 35.6942041,17.8539234 C36.8016871,17.8539234 37.6746122,17.4534128 38.3118912,16.6518383 C38.9317551,15.8779234 39.2419592,14.8694553 39.2419592,13.626434 C39.2419592,12.3662638 38.9230476,11.3489447 38.2857687,10.5744766 C37.6033197,9.74634894 36.668898,9.33200851 35.481415,9.33200851 C34.2770612,9.33200851 33.3333878,9.77345532 32.6520272,10.6552426 C32.0310748,11.4656681 31.7219592,12.4514553 31.7219592,13.6131574 M28.4925714,13.6939234 C28.4925714,12.7037106 28.659102,11.7566468 28.9910748,10.8516255 C29.3235918,9.94660426 29.7992381,9.15609362 30.4196463,8.4812 C31.7752925,7.02243404 33.5331156,6.29332766 35.6942041,6.29332766 C37.846585,6.29332766 39.556517,6.98205106 40.8229116,8.35949787 C42.036517,9.67443404 42.6433197,11.3804766 42.6433197,13.4781787 C42.6433197,15.576434 42.0185578,17.3134553 40.7695782,18.6914553 C39.4498503,20.1496681 37.7007347,20.8793277 35.5216871,20.8793277 C33.2718912,20.8793277 31.5091701,20.1634979 30.234068,18.7318383 C29.0732517,17.4268596 28.4925714,15.746817 28.4925714,13.6939234" id="Fill-5" fill="#2BB29E"></path>
                        <path d="M47.4543129,16.9895617 C48.126966,17.5659872 48.9998912,17.8536468 50.0714558,17.8536468 C51.8249252,17.8536468 52.9590748,16.9945404 53.4728163,15.2741149 C53.6502313,14.6893915 53.7383946,14.0615191 53.7383946,13.3904979 C53.7383946,12.7194766 53.676898,12.1839872 53.5522721,11.7834766 C53.4287347,11.3824128 53.267102,11.0361149 53.0673741,10.7434766 C52.8681905,10.4508383 52.644517,10.207434 52.396898,10.0143702 C52.1481905,9.82075319 51.8962177,9.66530638 51.6388027,9.54802979 C51.187102,9.34113617 50.7228844,9.23713617 50.244517,9.23713617 C49.7661497,9.23713617 49.2698231,9.34998723 48.7566259,9.57513617 C48.2417959,9.80028511 47.8080544,10.1017745 47.4543129,10.4796043 L47.4543129,16.9895617 Z M47.4543129,20.3927957 L47.4543129,24.3636043 C47.4543129,25.1375191 47.4711837,25.642583 47.5076463,25.8760298 L44.1988027,25.8760298 L44.1988027,6.56300851 L47.4543129,6.56300851 L47.4543129,7.4409234 C48.5258776,6.67585957 49.5533605,6.29305106 50.5367619,6.29305106 C51.5201633,6.29305106 52.392,6.43300851 53.1539048,6.71181702 C53.9158095,6.99117872 54.5846531,7.42322128 55.1604354,8.00849787 C56.4262857,9.27807234 57.0597551,11.0875617 57.0597551,13.4375191 C57.0597551,14.9958596 56.7016599,16.386583 55.984381,17.6107957 C55.3732245,18.6463702 54.526966,19.4744979 53.4461497,20.0957319 C52.489415,20.6450511 51.4532245,20.919434 50.337034,20.919434 C49.2208435,20.919434 48.2597551,20.7440723 47.4543129,20.3927957 L47.4543129,20.3927957 Z" id="Fill-7" fill="#2BB29E"></path>
                        <path d="M62.1162993,19.1639915 C62.1162993,19.9384596 62.1342585,20.4429702 62.1696327,20.676417 L58.7943946,20.676417 L58.7943946,0.552970213 L62.1162993,0.552970213 L62.1162993,19.1639915 Z" id="Fill-9" fill="#2BB29E"></path>
                        <path d="M74.2484898,12.0330213 C73.8849524,10.0974043 72.8487619,9.12931915 71.1393741,9.12931915 C69.7924354,9.12931915 68.7698503,9.71902128 68.0694422,10.8984255 C67.8571973,11.2591064 67.6933878,11.6546383 67.5785578,12.087234 C67.7913469,12.0960851 68.0520272,12.1054894 68.3622313,12.1137872 L69.3450884,12.1137872 C69.6732517,12.1231915 69.9872653,12.127617 70.2893061,12.127617 L71.0457687,12.127617 C71.4974694,12.127617 71.9410068,12.1231915 72.3747483,12.1137872 L73.4642721,12.0734043 C73.756517,12.0651064 74.0177415,12.0512766 74.2484898,12.0330213 M64.0977415,13.7346383 C64.0977415,12.6813617 64.274068,11.7044255 64.628898,10.8038298 C64.9831837,9.90378723 65.4838639,9.11604255 66.1298503,8.44059574 C67.511619,7.00893617 69.3184218,6.29310638 71.5508027,6.29310638 C73.4376054,6.29310638 74.9521633,6.92761702 76.0950204,8.19719149 C77.2199184,9.42195745 77.7826395,10.9614894 77.7826395,12.8163404 C77.7826395,13.5277447 77.7293061,14.014 77.6231837,14.2751064 C76.7366531,14.5273617 74.9347483,14.6529362 72.2152925,14.6529362 L67.5382857,14.6529362 C67.769034,15.6171489 68.3045442,16.3661702 69.146449,16.9022128 C69.9872653,17.4382553 71.0816871,17.7054468 72.4275374,17.7054468 C73.8359728,17.7054468 75.0457687,17.448766 76.0552925,16.9354043 C76.321415,16.8004255 76.5200544,16.6748511 76.6528435,16.5575745 C76.6354286,16.9354043 76.6136599,17.3231915 76.5869932,17.7187234 L76.4400544,19.8258298 C75.7674014,20.294383 74.6778776,20.6185532 73.171483,20.7983404 C72.729034,20.852 72.304,20.8791064 71.896381,20.8791064 C69.646585,20.8791064 67.786449,20.2130638 66.3159728,18.8804255 C64.8367891,17.5389362 64.0977415,15.8240426 64.0977415,13.7346383" id="Fill-12" fill="#2BB29E"></path>
                        <path d="M84.7194014,20.6766383 C83.4170884,20.6766383 82.553415,20.7037447 82.1278367,20.7574043 L82.1278367,2.63319149 C82.3406259,2.68685106 82.7814422,2.71395745 83.4502857,2.71395745 C84.118585,2.71395745 84.8957279,2.69625532 85.7822585,2.66029787 L85.7822585,17.4354894 L88.5321905,17.4354894 C89.3294694,17.4354894 89.9672925,17.408383 90.4451156,17.3541702 C90.383619,19.4612766 90.3531429,20.5549362 90.3531429,20.6362553 L90.3531429,20.771234 C89.4845714,20.7081702 88.0271565,20.6766383 85.980898,20.6766383 L84.7194014,20.6766383 Z" id="Fill-14" fill="#030C0D"></path>
                        <path d="M125.425143,19.4746085 C125.425143,20.2490766 125.456163,20.8437574 125.518748,21.2575447 L122.170721,21.2575447 L122.170721,1.9445234 L125.425143,1.9445234 L125.425143,13.7750766 L131.497524,7.14397021 L135.443102,7.14397021 L130.208272,12.7489064 L133.198204,16.8950766 C133.844735,17.9400553 134.331265,18.704566 134.659973,19.1908213 L135.536707,20.4471191 C135.802286,20.7983957 136.023782,21.0683532 136.201197,21.2575447 L134.101605,21.2575447 C133.321741,21.2575447 132.652898,21.325034 132.095075,21.4600128 L127.949769,15.3013319 L125.425143,18.0296723 L125.425143,19.4746085 Z" id="Fill-16" fill="#030C0D"></path>
                        <path d="M145.947592,12.0330213 C145.584054,10.0974043 144.547864,9.12931915 142.838476,9.12931915 C141.491537,9.12931915 140.469497,9.71902128 139.769633,10.8984255 C139.557388,11.2591064 139.39249,11.6546383 139.27766,12.087234 C139.490449,12.0960851 139.751673,12.1054894 140.062422,12.1137872 L141.045279,12.1137872 C141.372898,12.1231915 141.687456,12.127617 141.988408,12.127617 L142.745959,12.127617 C143.19766,12.127617 143.640109,12.1231915 144.074939,12.1137872 L145.164463,12.0734043 C145.456707,12.0651064 145.716844,12.0512766 145.947592,12.0330213 M135.796844,13.7346383 C135.796844,12.6813617 135.974259,11.7044255 136.328,10.8038298 C136.682286,9.90378723 137.182966,9.11604255 137.830041,8.44059574 C139.21181,7.00893617 141.018612,6.29310638 143.250993,6.29310638 C145.137796,6.29310638 146.652354,6.92761702 147.795211,8.19719149 C148.919565,9.42195745 149.481741,10.9614894 149.481741,12.8163404 C149.481741,13.5277447 149.428408,14.014 149.322286,14.2751064 C148.436844,14.5273617 146.634395,14.6529362 143.915483,14.6529362 L139.238476,14.6529362 C139.468136,15.6171489 140.003646,16.3661702 140.845551,16.9022128 C141.687456,17.4382553 142.781333,17.7054468 144.127728,17.7054468 C145.536163,17.7054468 146.744871,17.448766 147.754395,16.9354043 C148.020517,16.8004255 148.220245,16.6748511 148.353034,16.5575745 C148.335075,16.9354043 148.312762,17.3231915 148.286095,17.7187234 L148.140245,19.8258298 C147.466503,20.294383 146.37698,20.6185532 144.871673,20.7983404 C144.42868,20.852 144.003646,20.8791064 143.596571,20.8791064 C141.346231,20.8791064 139.486095,20.2130638 138.016163,18.8804255 C136.536435,17.5389362 135.796844,15.8240426 135.796844,13.7346383" id="Fill-18" fill="#030C0D"></path>
                        <g id="Group-22" transform="translate(151.292517, 5.961413)">
                            <mask id="mask-2" fill="white">
                                <use xlink:href="#path-1"></use>
                            </mask>
                            <g id="Clip-21"></g>
                            <path d="M3.66389116,13.2025787 C3.66389116,13.9770468 3.68130612,14.4815574 3.71722449,14.7150043 L0.40892517,14.7150043 L0.40892517,0.601982979 L3.66389116,0.601982979 L3.66389116,1.64198298 C4.41654422,0.768493617 5.20729252,0.33147234 6.03559184,0.33147234 C6.86389116,0.33147234 7.51695238,0.43547234 7.99531973,0.642365957 L7.75640816,4.27517447 L7.70307483,4.31611064 C7.39287075,3.75794043 6.75069388,3.47857872 5.77654422,3.47857872 C5.40429932,3.47857872 5.02606803,3.60691915 4.64021769,3.8636 C4.25545578,4.12028085 3.92946939,4.45994043 3.66389116,4.88313191 L3.66389116,13.2025787 Z" id="Fill-20" fill="#231F20" mask="url(#mask-2)"></path>
                        </g>
                        <path d="M91.8784762,5.15751489 C91.8784762,5.15751489 91.9856871,4.93015319 92.2022857,4.56504681 C92.2572517,4.4743234 92.3176599,4.37419574 92.3835102,4.26521702 C92.4597007,4.15845106 92.5538503,4.05445106 92.6518095,3.93606809 C92.8477279,3.69930213 93.0784762,3.42215319 93.3652789,3.1876 C93.5094966,3.06479149 93.6591565,2.93700426 93.8142585,2.80479149 C93.9840544,2.69194043 94.1592925,2.57577021 94.3388844,2.45572766 C94.6986122,2.20347234 95.1241905,2.03364255 95.5584762,1.82951489 C96.0085442,1.68015319 96.4765714,1.50147234 96.9745306,1.42955745 C97.4665034,1.31283404 97.9797007,1.30398298 98.4901769,1.27189787 C99.0011973,1.30342979 99.5143946,1.31117447 100.006367,1.42789787 C100.504871,1.4976 100.972354,1.67904681 101.422966,1.82674894 C101.857252,2.0308766 102.283374,2.20015319 102.643102,2.4529617 C102.823238,2.57245106 102.998476,2.68917447 103.167728,2.80202553 C103.32283,2.9342383 103.473034,3.06202553 103.616707,3.18483404 C103.906231,3.42215319 104.128272,3.69211064 104.320381,3.92666383 C104.416707,4.04394043 104.510313,4.14683404 104.585959,4.25304681 C104.655619,4.36534468 104.719293,4.46879149 104.776435,4.56172766 C105.001197,4.93457872 105.102422,5.15751489 105.102422,5.15751489 C105.102422,5.15751489 104.862966,5.06789787 104.49181,4.89308936 C104.312218,4.79849362 104.080381,4.7083234 103.822422,4.60542979 C103.566095,4.5003234 103.285279,4.38138723 102.968,4.28513191 C102.815619,4.23091915 102.656163,4.17449362 102.49181,4.11585532 C102.324735,4.06994043 102.152218,4.02291915 101.974259,3.9742383 C101.633034,3.85308936 101.247184,3.8116 100.876571,3.70925957 C100.489088,3.66279149 100.103782,3.57428085 99.700517,3.5516 C99.3026939,3.4996 98.895619,3.50402553 98.4901769,3.48411064 C98.0852789,3.50347234 97.6782041,3.49738723 97.2798367,3.55049362 C96.8765714,3.57040851 96.4918095,3.6622383 96.1032381,3.70649362 C95.7326259,3.80883404 95.3462313,3.8503234 95.0050068,3.97091915 C94.8270476,4.0196 94.6545306,4.06717447 94.4874558,4.11308936 C94.3225578,4.17172766 94.1636463,4.22815319 94.0107211,4.28236596 C93.6907211,4.38194043 93.4191565,4.49313191 93.1666395,4.59602553 C93.0392925,4.64581277 92.9222857,4.69947234 92.8036463,4.73819574 C92.6899048,4.79351489 92.585415,4.84440851 92.4907211,4.8903234 C92.1119456,5.0723234 91.8784762,5.15751489 91.8784762,5.15751489" id="Fill-23" fill="#2BB29E"></path>
                        <path d="M105.936054,13.2613277 C105.936054,17.5939234 102.480816,21.1066894 98.2179592,21.1066894 C93.9556463,21.1066894 90.5004082,17.5939234 90.5004082,13.2613277 C90.5004082,8.92873191 93.9556463,5.41596596 98.2179592,5.41596596 C102.480816,5.41596596 105.936054,8.92873191 105.936054,13.2613277" id="Fill-25" fill="#030C0D"></path>
                        <path d="M102.799673,13.2613277 C102.799673,15.8331149 100.748517,17.9180936 98.218449,17.9180936 C95.6878367,17.9180936 93.6366803,15.8331149 93.6366803,13.2613277 C93.6366803,10.6895404 95.6878367,8.6045617 98.218449,8.6045617 C100.748517,8.6045617 102.799673,10.6895404 102.799673,13.2613277" id="Fill-27" fill="#FFFFFF"></path>
                        <path d="M100.395048,13.2613277 C100.395048,14.4833277 99.4203537,15.4740936 98.2181769,15.4740936 C97.016,15.4740936 96.0413061,14.4833277 96.0413061,13.2613277 C96.0413061,12.0393277 97.016,11.0485617 98.2181769,11.0485617 C99.4203537,11.0485617 100.395048,12.0393277 100.395048,13.2613277" id="Fill-29" fill="#2BB29E"></path>
                        <path d="M101.199401,13.2730553 C101.199401,13.8843319 100.712327,14.3794383 100.110966,14.3794383 C99.5096054,14.3794383 99.0225306,13.8843319 99.0225306,13.2730553 C99.0225306,12.6617787 99.5096054,12.1666723 100.110966,12.1666723 C100.712327,12.1666723 101.199401,12.6617787 101.199401,13.2730553" id="Fill-31" fill="#FFFFFF"></path>
                        <path d="M106.504327,5.15751489 C106.504327,5.15751489 106.611537,4.93015319 106.828136,4.56504681 C106.883102,4.4743234 106.94351,4.37419574 107.009361,4.26521702 C107.085551,4.15845106 107.179701,4.05445106 107.27766,3.93606809 C107.473578,3.69930213 107.704327,3.42215319 107.991129,3.1876 C108.135347,3.06479149 108.285007,2.93700426 108.440109,2.80479149 C108.609905,2.69194043 108.785143,2.57577021 108.964735,2.45572766 C109.324463,2.20347234 109.750585,2.03308936 110.184327,1.82951489 C110.634395,1.68015319 111.102422,1.50147234 111.600381,1.42955745 C112.092354,1.31283404 112.605551,1.30398298 113.116027,1.27189787 C113.627048,1.30342979 114.140245,1.31117447 114.632218,1.42789787 C115.130721,1.4976 115.598204,1.67904681 116.048816,1.82674894 C116.483102,2.0308766 116.909224,2.20015319 117.268952,2.4529617 C117.449088,2.57245106 117.624327,2.68917447 117.793578,2.80202553 C117.94868,2.9342383 118.098884,3.06202553 118.242558,3.18483404 C118.532082,3.42215319 118.754122,3.69211064 118.946231,3.92666383 C119.042558,4.04394043 119.136163,4.14683404 119.21181,4.25304681 C119.281469,4.36534468 119.345143,4.46879149 119.402286,4.56172766 C119.627048,4.93457872 119.728272,5.15751489 119.728272,5.15751489 C119.728272,5.15751489 119.488816,5.06789787 119.11766,4.89308936 C118.938068,4.79849362 118.706231,4.7083234 118.448272,4.60542979 C118.191946,4.5003234 117.911129,4.38138723 117.59385,4.28513191 C117.441469,4.23091915 117.282014,4.17449362 117.11766,4.11585532 C116.950585,4.06994043 116.778068,4.02291915 116.600109,3.9742383 C116.258884,3.85308936 115.873034,3.8116 115.502422,3.70925957 C115.114939,3.66279149 114.729633,3.57428085 114.326367,3.5516 C113.928544,3.4996 113.521469,3.50347234 113.116027,3.48411064 C112.711129,3.50347234 112.304054,3.49738723 111.905687,3.54994043 C111.502422,3.57040851 111.11766,3.6622383 110.729088,3.70649362 C110.358476,3.80883404 109.972082,3.8503234 109.630857,3.97091915 C109.452898,4.0196 109.280381,4.06717447 109.113306,4.11308936 C108.948408,4.17172766 108.789497,4.22815319 108.636571,4.28236596 C108.316571,4.38138723 108.045007,4.49313191 107.79249,4.59602553 C107.665143,4.64581277 107.548136,4.69891915 107.429497,4.73819574 C107.315755,4.79351489 107.211265,4.84440851 107.116571,4.8903234 C106.737796,5.0723234 106.504327,5.15751489 106.504327,5.15751489" id="Fill-33" fill="#2BB29E"></path>
                        <path d="M121.106122,13.2613277 C121.106122,17.5939234 117.650884,21.1066894 113.388027,21.1066894 C109.125714,21.1066894 105.670476,17.5939234 105.670476,13.2613277 C105.670476,8.92873191 109.125714,5.41596596 113.388027,5.41596596 C117.650884,5.41596596 121.106122,8.92873191 121.106122,13.2613277" id="Fill-35" fill="#030C0D"></path>
                        <path d="M117.969741,13.2613277 C117.969741,15.8331149 115.918585,17.9180936 113.388517,17.9180936 C110.857905,17.9180936 108.806748,15.8331149 108.806748,13.2613277 C108.806748,10.6895404 110.857905,8.6045617 113.388517,8.6045617 C115.918585,8.6045617 117.969741,10.6895404 117.969741,13.2613277" id="Fill-37" fill="#FFFFFF"></path>
                        <path d="M115.565116,13.2613277 C115.565116,14.4833277 114.590422,15.4740936 113.388245,15.4740936 C112.186068,15.4740936 111.211374,14.4833277 111.211374,13.2613277 C111.211374,12.0393277 112.186068,11.0485617 113.388245,11.0485617 C114.590422,11.0485617 115.565116,12.0393277 115.565116,13.2613277" id="Fill-39" fill="#2BB29E"></path>
                        <path d="M116.369469,13.2730553 C116.369469,13.8843319 115.882395,14.3794383 115.281034,14.3794383 C114.679673,14.3794383 114.192599,13.8843319 114.192599,13.2730553 C114.192599,12.6617787 114.679673,12.1666723 115.281034,12.1666723 C115.882395,12.1666723 116.369469,12.6617787 116.369469,13.2730553" id="Fill-41" fill="#FFFFFF"></path>
                    </g>
                </g>
            </g>
        </g>
    </g>
</svg>