<svg xmlns="http://www.w3.org/2000/svg" width="213" height="37" viewBox="0 0 213 37">
    <g fill="none" fill-rule="evenodd">
        <g>
            <g>
                <g fill="#1f2e64">
                    <path d="M14.581.65L14.581 19.311 11.4 19.311 4.22 9.178 4.22 19.311 0 19.311 0 .65 3.203.65 10.383 10.778 10.383.65zM24.365 16.111c.95.028 1.871-.338 2.546-1.01l3.182 1.838c-1.298 1.811-3.259 2.744-5.777 2.744-4.535 0-7.346-3.066-7.346-7.038-.057-1.894.67-3.726 2.007-5.06 1.337-1.334 3.164-2.051 5.046-1.98 3.866 0 6.733 3.017 6.733 7.04.001.537-.053 1.073-.16 1.6h-9.39c.48 1.388 1.701 1.866 3.16 1.866zm2.442-4.85c-.392-1.251-1.546-2.102-2.85-2.102-1.305 0-2.458.85-2.85 2.102h5.7zM32.346 2.406c-.002-.972.578-1.848 1.47-2.222.89-.373 1.918-.169 2.601.517.684.686.889 1.719.52 2.616-.369.898-1.24 1.483-2.205 1.483-1.31-.015-2.368-1.077-2.386-2.394zm.398 3.572h3.976V19.31h-3.954l-.022-13.333zM53.496 5.978v12.667c0 4.477-3.468 6.372-6.997 6.372-2.762 0-5.06-1.04-6.28-3.228L43.61 19.8c.503.933 1.27 1.667 3.021 1.667 1.856 0 2.994-.961 2.994-2.856v-1.194c-.942 1.162-2.377 1.806-3.866 1.733-1.764-.01-3.45-.733-4.676-2.007-1.228-1.274-1.893-2.992-1.847-4.765-.045-1.773.621-3.49 1.848-4.763 1.227-1.274 2.912-1.998 4.675-2.01 1.488-.07 2.922.574 3.866 1.734V5.978h3.871zm-3.866 6.4c0-1.839-1.32-3.089-3.203-3.089-1.883 0-3.209 1.25-3.209 3.089s1.326 3.094 3.209 3.094c.843.057 1.67-.247 2.28-.836.608-.589.941-1.409.918-2.258h.005zM69.138 11.128v8.183H65.16v-7.6c0-1.666-1.033-2.422-2.303-2.422-1.458 0-2.469.85-2.469 2.744v7.278h-3.976V.651h3.976v6.582c.718-.983 2.044-1.627 3.795-1.627 2.673 0 4.954 1.922 4.954 5.522zM86.132 12.645c0 3.972-2.86 7.038-6.335 7.038-1.492.084-2.942-.512-3.949-1.622v1.25h-3.976V.651h3.976v6.582c1.006-1.112 2.457-1.71 3.95-1.627 3.49 0 6.334 3.083 6.334 7.039zm-3.976 0c0-1.752-1.412-3.173-3.154-3.173s-3.154 1.42-3.154 3.173c0 1.751 1.412 3.172 3.154 3.172s3.154-1.42 3.154-3.172zM87.706 12.645c-.01-2.861 1.694-5.446 4.318-6.549 2.624-1.103 5.65-.505 7.665 1.514 2.015 2.019 2.622 5.06 1.536 7.705-1.086 2.644-3.65 4.368-6.493 4.368-1.865.021-3.66-.713-4.981-2.036-1.321-1.324-2.058-3.127-2.045-5.002zm10.074 0c.098-1.154-.458-2.265-1.439-2.873-.98-.607-2.217-.607-3.197 0-.98.608-1.537 1.719-1.439 2.873-.098 1.153.459 2.264 1.439 2.872.98.607 2.217.607 3.197 0 .98-.608 1.537-1.719 1.44-2.872zM112.008 5.717v4.528c-1.657-.267-3.977.4-3.977 3.044v6.022h-3.976V5.978h3.976v2.378c.503-1.79 2.281-2.64 3.977-2.64zM113.996.65L118.453.65 121.657 13.711 125.236.65 128.682.65 132.261 13.711 135.47.65 139.921.65 134.807 19.311 129.98 19.311 126.959 8.3 123.938 19.311 119.11 19.311zM153.84 11.128v8.183h-3.977v-7.6c0-1.666-1.033-2.422-2.303-2.422-1.458 0-2.464.85-2.464 2.744v7.278h-3.976V.651h3.976v6.582c.713-.983 2.039-1.627 3.79-1.627 2.678 0 4.954 1.922 4.954 5.522zM155.91 12.645c-.008-2.86 1.698-5.444 4.322-6.545 2.625-1.1 5.65-.502 7.664 1.518 2.014 2.019 2.619 5.06 1.533 7.703-1.086 2.644-3.65 4.368-6.493 4.368-1.866.02-3.661-.714-4.983-2.039-1.321-1.325-2.057-3.129-2.042-5.005zm10.075 0c-.049-1.682-1.434-3.01-3.106-2.978-1.672.033-3.006 1.413-2.99 3.095.015 1.682 1.375 3.037 3.047 3.038.831.023 1.634-.305 2.213-.905.58-.6.882-1.416.836-2.25z" transform="translate(-24 -21) translate(24 21) translate(43 9)"/>
                </g>
                <path fill="#FABD1B" fill-rule="nonzero" d="M34.724 4.177L31.074.331c-.197-.208-.471-.328-.759-.331-.289.001-.565.12-.762.33L25.89 4.178c-.18.198-.28.456-.28.723v7.983l-3.465-8.334c-.049-.136-.123-.262-.218-.372L18.264.331c-.422-.412-1.098-.412-1.52 0L13.09 4.177l-.124.155c-.03.057-.058.116-.082.176-.013.018-.02.04-.021.061-.015.044-.026.09-.033.135-.012.044-.019.09-.02.135-.002.016-.002.032 0 .049v7.995L9.335 4.549c-.049-.136-.123-.262-.218-.372L5.455.331c-.418-.413-1.094-.413-1.512 0L.28 4.177c-.184.196-.284.455-.28.723v30.83c.001.272.112.533.308.724.195.192.46.298.735.296h7.313c.574 0 1.04-.46 1.042-1.03v-7.998l3.465 8.322v.065c.103.262.314.469.58.567.051.022.104.038.157.05.073.005.146.005.219 0h7.346c.096.002.192-.012.284-.041.064-.02.126-.044.185-.074h.033c.071-.035.138-.08.198-.13.062-.057.118-.12.165-.188.04-.065.075-.133.103-.205.02-.05.039-.102.053-.155.004-.072.004-.144 0-.216v-7.995l3.457 8.301v.065c.103.265.317.471.585.568.049.022.1.038.153.049.072.006.145.006.218 0h7.379c.095.003.19-.011.28-.04.064-.02.126-.045.185-.074h.033c.072-.035.139-.079.198-.131.064-.055.119-.118.165-.188.04-.064.075-.133.103-.204.025-.05.043-.101.054-.155.005-.072.005-.145 0-.217V4.9c.006-.267-.091-.526-.272-.723zM7.317 34.684H2.081V5.308l.177-.183 2.435-2.581 2.624 2.764v29.376zm7.219 0L12.8 30.498l-3.403-8.19v-12.21l3.403 8.187 2.06 5.023 4.746 11.376h-5.071zm.346-16.79V5.307l2.62-2.764 2.624 2.764v25.21l-5.244-12.625zm12.467 16.79l-1.739-4.186-3.403-8.19v-12.19l3.403 8.167 2.06 5.002 4.746 11.397H27.35zm5.587-4.165L27.69 17.893V5.308l2.624-2.764 2.62 2.764v25.21z" transform="translate(-24 -21) translate(24 21)"/>
            </g>
        </g>
    </g>
</svg>
