<?xml version="1.0" encoding="UTF-8"?>
<svg width="172px" height="25px" viewBox="0 0 172 25" version="1.1" xmlns="http://www.w3.org/2000/svg" xmlns:xlink="http://www.w3.org/1999/xlink">
    <title>DF49E55E-B32B-415C-809A-CC7C384DD55C</title>
    <defs>
        <polygon id="path-1" points="0 0 7.82687493 0 7.82687493 15.8250725 0 15.8250725"></polygon>
        <polygon id="path-3" points="0 0 7.76605539 0 7.76605539 12.264988 0 12.264988"></polygon>
    </defs>
    <g id="Page-1" stroke="none" stroke-width="1" fill="none" fill-rule="evenodd">
        <g id="Desktop-HD-Copy-25" transform="translate(-298.000000, -2472.000000)">
            <g id="brands" transform="translate(-409.180211, 2074.500000)">
                <g id="Group-18" transform="translate(439.180211, 249.000000)">
                    <g id="Group-17" transform="translate(239.500000, 110.143994)">
                        <g id="logo/ps" transform="translate(28.923912, 38.750000)">
                            <path d="M29.4760607,10.6751139 L33.9501515,10.6751139 C35.7516091,10.6751139 37.4271445,8.92590968 37.4271445,7.02594157 C37.4271445,5.10027507 35.7516091,3.37591267 33.9501515,3.37591267 L29.4760607,3.37591267 L29.4760607,10.6742572 L29.4760607,10.6751139 Z M28.2999307,1.25065529 L33.9501515,1.25065529 C37.1007749,1.25065529 39.7254378,3.824778 39.7254378,7.02594157 C39.7254378,10.1748517 37.1007749,12.7763861 33.9501515,12.7763861 L29.4760607,12.7763861 L29.4760607,17.7764374 C29.4760607,18.4274634 28.9749419,19.0013943 28.2999307,19.0013943 C27.6257761,19.0013943 27.1238008,18.4274634 27.1238008,17.7764374 L27.1238008,2.44991379 C27.1238008,1.79974436 27.6257761,1.24979868 28.2999307,1.24979868 L28.2999307,1.25065529 Z M42.8906236,11.5514292 L51.0412983,11.5514292 C50.8665492,9.85019534 49.1910138,8.00162402 47.0409146,8.00162402 C44.9422122,8.00162402 43.2666768,9.67544624 42.8906236,11.5514292 Z M42.8906236,13.4762391 C43.3677571,15.4764309 45.0167376,16.9506623 47.1676933,16.9506623 C48.5408443,16.9506623 49.6176071,16.4007166 50.2909051,16.0263766 C50.4425257,15.9509946 50.6412599,15.8756127 50.8931042,15.8756127 C51.4927335,15.8756127 51.916757,16.3253346 51.916757,16.9009787 C51.916757,17.3772556 51.6143725,17.7267538 51.3916531,17.8518194 C50.1116859,18.6047302 48.6535382,19.0013582 47.16855,19.0005389 C43.4157275,19.0005389 40.5666319,16.0777734 40.5666319,12.4765714 C40.5666319,8.85224094 43.540793,6.00057556 47.040058,6.00057556 C50.6147049,6.00057556 53.1922541,8.94989485 53.1922541,11.9514675 C53.1922541,12.7258459 52.5660698,13.4762391 51.7916915,13.4762391 L42.8906236,13.4762391 L42.8906236,13.4762391 Z M61.1416247,8.07700598 C58.7431077,8.07700598 56.8165846,10.101183 56.8165846,12.4765714 C56.8165846,14.8511033 58.6685823,16.9515189 61.1424813,16.9515189 C63.5941083,16.9515189 65.4426796,14.8511033 65.4426796,12.4765714 C65.4426796,10.101183 63.5666967,8.07700598 61.1424813,8.07700598 M61.1424813,19.0005377 C57.4419122,19.0005377 54.6176585,16.1017586 54.6176585,12.4765714 C54.6176585,8.85309756 57.4907392,6.00057556 61.1416247,6.00057556 C64.7676684,6.00057556 67.6930025,8.8753695 67.6930025,12.4765714 C67.6930025,16.052075 64.7916536,19.0005377 61.1416247,19.0005377 M72.1636669,12.7018607 C72.1636669,15.0763925 73.8383457,16.9258205 76.2394326,16.9258205 C78.6893464,16.9258205 80.4882341,14.9256286 80.4882341,12.526255 C80.4882341,10.1260248 78.7390299,8.05045098 76.2394326,8.05045098 C73.7886622,8.05045098 72.1636669,10.0018159 72.1636669,12.4011895 L72.1636669,12.7018607 L72.1636669,12.7018607 Z M69.9390424,7.20154728 C69.9390424,6.55052124 70.4872748,6.00057556 71.1391575,6.00057556 C71.7884703,6.00057556 72.338416,6.54966463 72.338416,7.20154728 L72.338416,7.84914687 C73.2130181,6.87603426 74.5381987,6.00057556 76.5623757,6.00057556 C79.9382884,6.00057556 82.738557,8.8753695 82.738557,12.526255 C82.738557,16.1754273 79.8886049,19.0013943 76.5623757,19.0013943 C74.5381987,19.0013943 73.2130181,18.1276488 72.3392726,17.1519664 L72.3392726,23.3024492 C72.3392726,23.9757472 71.7370735,24.4999973 71.1400141,24.4999973 C70.8217331,24.500677 70.5162543,24.3747186 70.2909543,24.1499006 C70.0656542,23.9250826 69.9390424,23.6198743 69.9390424,23.3015926 L69.9390424,7.20154728 L69.9390424,7.20154728 Z M87.3848271,16.0015348 C87.3848271,16.6011641 87.6837851,16.8752803 88.1352203,16.8752803 C88.7348495,16.8752803 89.2094132,17.349844 89.2094132,17.9511865 C89.2094132,18.5508157 88.7348495,19.0005377 87.8842326,19.0005377 C86.1110432,19.0005377 84.9837402,17.7027687 84.9837402,16.0015348 L84.9837402,1.20097172 C84.9837402,0.575644079 85.5345425,0 86.184712,0 C86.835738,0 87.3839705,0.575644079 87.3839705,1.20097172 L87.3839705,16.0015348 L87.3848271,16.0015348 Z M92.102196,11.5514292 L100.253727,11.5514292 C100.076408,9.85019534 98.4017296,8.00162402 96.2516304,8.00162402 C94.1529281,8.00162402 92.4782492,9.67544624 92.102196,11.5514292 L92.102196,11.5514292 Z M92.102196,13.4762391 C92.5767598,15.4764309 94.2265968,16.9506623 96.3784092,16.9506623 C97.7515602,16.9506623 98.828323,16.4007166 99.501621,16.0263766 C99.6515283,15.9509946 99.8511192,15.8756127 100.10125,15.8756127 C100.702593,15.8756127 101.127473,16.3253346 101.127473,16.9009787 C101.127473,17.3772556 100.827658,17.7267538 100.603226,17.8518194 C99.3224154,18.6042127 97.8638621,19.0007901 96.3784092,19.0005378 C92.6264433,19.0005378 89.7756346,16.0777734 89.7756346,12.4765714 C89.7756346,8.85224094 92.7515089,6.00057556 96.2516304,6.00057556 C99.8279906,6.00057556 102.4004,8.94989485 102.4004,11.9514675 C102.4004,12.7258459 101.778499,13.4762391 101.003264,13.4762391 L92.102196,13.4762391 L92.102196,13.4762391 Z" id="Shape" fill="#1B61DB" fill-rule="nonzero"></path>
                            <path d="M113.257973,1.25065529 C113.932127,1.25065529 114.408404,1.72607562 114.408404,2.30000648 C114.408404,2.92704735 113.932127,3.40075446 113.257973,3.40075446 L107.833898,3.40075446 C106.482162,3.40075446 105.431954,4.60172618 105.431954,5.65193398 C105.431954,9.75168482 115.284719,7.70095278 115.284719,13.952516 C115.284719,16.8247401 112.857078,18.7521198 109.808391,18.7521198 L104.382603,18.7521198 C103.707592,18.7521198 103.25787,18.2766995 103.25787,17.675357 C103.25787,17.077441 103.707592,16.6020207 104.382603,16.6020207 L109.557403,16.6020207 C111.507055,16.6020207 112.857078,15.5518129 112.857078,13.9756446 C112.857078,9.50155376 103.208186,12.0756765 103.208186,5.70076093 C103.208186,3.35107089 105.156981,1.25065529 107.756803,1.25065529 L113.257973,1.25065529 L113.257973,1.25065529 Z M128.250417,8.3245672 C129.574741,6.72527033 131.14834,6.00057556 132.824732,6.00057556 C136.097851,6.00057556 138.649701,8.29972542 138.649701,12.0011511 L138.649701,17.8012792 C138.649701,18.4283201 138.151153,19.0005377 137.49927,19.0005377 C136.85167,19.0005377 136.274313,18.4283201 136.274313,17.8012792 L136.274313,11.8512438 C136.274313,9.45101358 134.725556,8.07700598 132.824732,8.07700598 C131.099513,8.07700598 129.348595,9.55038071 129.348595,11.4503488 L129.348595,17.8012792 C129.348595,18.4283201 128.824348,19.0005377 128.176748,19.0005377 C127.524009,19.0005377 126.97492,18.4283201 126.97492,17.8012792 L126.97492,11.8512438 C126.97492,9.50155376 125.599199,8.07700598 123.699231,8.07700598 C121.923472,8.07700598 120.049202,9.6017775 120.049202,11.2516146 L120.049202,17.8012792 C120.049202,18.4283201 119.50097,19.0005377 118.849944,19.0005377 C118.198918,19.0005377 117.648115,18.4283201 117.648115,17.8012792 L117.648115,7.20154728 C117.648115,6.57621964 118.198918,6.00057556 118.849944,6.00057556 C119.50097,6.00057556 120.049202,6.57621964 120.049202,7.20154728 L120.049202,7.80117653 C120.798739,7.00109979 122.201015,6.00057556 123.92452,6.00057556 C125.473277,6.00057556 127.199353,6.70042855 128.250417,8.3245672 M149.264852,12.9751203 L145.51717,12.9751203 C144.01467,12.9751203 142.864238,13.6766866 142.864238,14.9007868 C142.864238,16.0263766 143.965843,16.9763607 145.391247,16.9763607 C147.365741,16.9763607 149.263996,15.2262999 149.263996,14.0767249 L149.263996,12.9751203 L149.264852,12.9751203 Z M151.667652,11.2010744 L151.667652,17.8012792 C151.667652,18.4274634 151.115137,19.0005377 150.465824,19.0005377 C149.814798,19.0005377 149.263996,18.4274634 149.263996,17.8012792 L149.263996,17.2504769 C148.314868,18.2758429 146.868049,19.0005377 145.290167,19.0005377 C142.614964,19.0005377 140.58993,17.1005696 140.58993,14.8014197 C140.58993,12.5519534 142.491612,10.9269581 145.51717,10.9269581 L149.263996,10.9269581 L149.263996,10.752209 C149.263996,8.97644986 147.916543,8.00162402 146.140784,8.00162402 C144.138879,8.00162402 143.516121,8.77600237 142.864238,8.77600237 C142.238911,8.77600237 141.790045,8.3245672 141.790045,7.75063635 C141.790045,7.42683656 141.915968,7.05078336 142.36569,6.7749539 C142.965319,6.40061393 144.441263,6.00143217 146.215309,6.00143217 C149.665747,6.00143217 151.667652,8.12583294 151.667652,11.2010744 L151.667652,11.2010744 Z M161.011589,6.25070661 C161.660902,6.25070661 162.162878,6.67644338 162.162878,7.30091441 C162.162878,7.92624206 161.660902,8.375964 161.011589,8.375964 L159.885143,8.375964 C158.086255,8.375964 156.862155,9.95127569 156.862155,11.5017456 L156.862155,17.8012792 C156.862155,18.4274634 156.311353,19.0005377 155.661183,19.0005377 C155.01187,19.0005377 154.461925,18.4274634 154.461925,17.8012792 L154.461925,7.20154728 C154.461925,6.57621964 155.01187,6.00057556 155.661183,6.00057556 C156.311353,6.00057556 156.862155,6.57621964 156.862155,7.20154728 L156.862155,7.80117653 C157.535453,6.90173266 158.736425,6.25070661 160.014492,6.25070661 L161.011589,6.25070661 Z" id="Shape" fill="#132369" fill-rule="nonzero"></path>
                            <g id="Clipped" transform="translate(163.325302, 2.926191)">
                                <mask id="mask-2" fill="white">
                                    <use xlink:href="#path-1"></use>
                                </mask>
                                <g id="a"></g>
                                <path d="M6.42631232,15.8259676 L5.17822687,15.8259676 C4.3477328,15.8300553 3.55006049,15.5019677 2.96280525,14.9147125 C2.37555001,14.3274573 2.04746246,13.529785 2.05158865,12.6992909 L2.05158865,5.45062987 L1.0502078,5.45062987 C0.449721937,5.44977326 0,4.97435293 0,4.37301045 C0,3.84790655 0.449721937,3.32365927 1.05106441,3.32365927 L2.05158865,3.32365927 L2.05158865,1.1735601 C2.05158865,0.523390673 2.5998211,-0.000856613213 3.25256037,-0.000856613213 C3.87531818,-0.000856613213 4.42612047,0.523390673 4.42612047,1.1735601 L4.42612047,3.32365927 L6.75268196,3.32365927 C7.3257562,3.32365927 7.82687493,3.77252459 7.82687493,4.37301045 C7.82687493,4.97349631 7.3257562,5.44891665 6.75268196,5.44891665 L4.42526386,5.44891665 L4.42526386,12.6992909 C4.42526386,13.3006334 4.97692277,13.6989585 5.45062987,13.6989585 L6.42545571,13.6989585 C7.02508496,13.6989585 7.50136191,14.1735222 7.50136191,14.7748647 C7.50136191,15.3727807 7.02594157,15.8242159 6.42545571,15.8242159" id="Path" fill="#132369" fill-rule="nonzero" mask="url(#mask-2)"></path>
                            </g>
                            <path d="M3.63460986,2.47561219 C3.63460986,3.45964857 2.83689076,4.25736767 1.85285438,4.25736767 C0.868817998,4.25736767 0.0710988967,3.45964857 0.0710988967,2.47561219 C0.0710988967,1.4915758 0.868817998,0.693856702 1.85285438,0.693856702 C2.83689076,0.693856702 3.63460986,1.4915758 3.63460986,2.47561219" id="Path" fill="#1B61DB" fill-rule="nonzero"></path>
                            <path d="M18.3340926,2.47561219 C18.3340926,3.45964857 17.5363735,4.25736767 16.5523371,4.25736767 C15.5683007,4.25736767 14.7705816,3.45964857 14.7705816,2.47561219 C14.7705816,1.4915758 15.5683007,0.693856702 16.5523371,0.693856702 C17.5363735,0.693856702 18.3340926,1.4915758 18.3340926,2.47561219" id="Path" fill="#132369" fill-rule="nonzero"></path>
                            <g id="Clipped" transform="translate(0.000000, 7.310337)">
                                <mask id="mask-4" fill="white">
                                    <use xlink:href="#path-3"></use>
                                </mask>
                                <g id="c"></g>
                                <path d="M6.38776473,12.2641314 C6.21968492,12.2642697 6.05301326,12.2334907 5.89606874,12.1733304 C2.36939215,10.8250212 0,7.38143606 0,3.60377179 L0,1.37657743 C0.0261750228,0.634272026 0.635523907,0.0460311662 1.37829066,0.0460311662 C2.12105741,0.0460311662 2.7304063,0.634272026 2.75658132,1.37657743 L2.75658132,3.60377179 C2.75658132,6.24728016 4.41327127,8.65778974 6.87946071,9.60006428 C7.50116959,9.83647567 7.8651347,10.4833824 7.74444889,11.1374827 C7.62376307,11.791583 7.05290474,12.2660087 6.38776473,12.2649896" id="Path" fill="#1B61DB" fill-rule="nonzero" mask="url(#mask-4)"></path>
                            </g>
                            <path d="M11.9566072,19.5907442 C11.2856866,19.589628 10.7109007,19.110369 10.589184,18.4505805 C10.4674673,17.790792 10.8334121,17.1379885 11.4597716,16.8975522 C13.9321785,15.9403824 15.5656417,13.5661666 15.5757981,10.9149656 L15.5757981,8.68777121 C15.5757981,7.91899278 16.1990161,7.29577473 16.9677945,7.29577473 C17.7365729,7.29577473 18.359791,7.91899278 18.359791,8.68777121 L18.359791,10.9149656 C18.359791,14.6969129 15.9869724,18.1464943 12.4542995,19.49823 C12.291543,19.5599061 12.1227902,19.5898876 11.9574638,19.5898876" id="Path" fill="#132369" fill-rule="nonzero"></path>
                        </g>
                    </g>
                </g>
            </g>
        </g>
    </g>
</svg>