<svg width="595" height="258" viewBox="0 0 595 258" fill="none" xmlns="http://www.w3.org/2000/svg">
<path opacity="0.1" fill-rule="evenodd" clip-rule="evenodd" d="M332.287 72.6679C332.144 72.1233 331.993 71.5566 331.836 70.9679C331.424 69.4169 330.971 67.7169 330.518 65.9079C329.892 63.4079 329.269 60.4959 328.747 57.2699C328.121 54.0439 327.6 50.1929 327.184 45.9259C326.663 41.6589 326.246 36.7679 325.83 31.1479C327.361 29.6253 329.074 28.297 330.93 27.1929C332.953 26.0008 335.177 25.1894 337.493 24.7989C340.408 24.3829 342.7 24.5909 344.368 25.5269C346.036 26.4629 347.076 28.6489 347.493 31.8749L351.66 66.0099H352.181C353.637 62.7839 355.096 59.4539 356.555 55.8099C357.099 54.4539 357.655 53.0829 358.216 51.7029C359.163 49.3779 360.116 47.0269 361.033 44.6759C361.349 43.8439 361.664 43.0159 361.977 42.1919C363.117 39.2019 364.241 36.2469 365.304 33.2299C366.658 29.3789 367.904 25.7369 369.055 22.0949C372.114 20.0747 375.549 18.694 379.155 18.0359C382.073 17.6199 384.364 17.8279 386.03 18.8689C387.696 19.9099 388.322 21.9909 387.803 25.1129C387.313 27.9115 386.581 30.6622 385.614 33.3339C384.574 36.4559 383.322 39.8899 381.761 43.5339C380.302 47.1766 378.636 50.9233 376.761 54.7739C374.886 58.6239 373.01 62.4739 371.031 66.2219C370.724 66.8046 370.418 67.3846 370.114 67.9619C368.469 71.0909 366.873 74.1219 365.203 76.9319C363.223 80.3659 361.348 83.3839 359.577 86.0899C357.1 90.0395 354.423 93.8604 351.557 97.5379C349.569 100.138 347.337 102.543 344.891 104.719C343.106 106.308 341.107 107.639 338.953 108.674C337.093 109.514 335.131 110.108 333.118 110.443C329.682 110.963 327.078 110.443 325.203 108.57C323.432 106.801 322.597 104.095 322.703 100.765C325.725 98.1649 328.641 95.3529 331.765 92.3349C334.787 89.3169 337.6 86.1949 340.204 83.0729C338.639 82.7673 337.214 81.9641 336.142 80.7829C334.788 79.4299 333.536 76.7239 332.287 72.5609V72.6679ZM271.35 98.0599C275.72 98.895 280.209 98.895 284.579 98.0599L284.265 97.9599C287.436 97.3955 290.567 96.631 293.641 95.6709C296.956 94.663 300.112 93.1915 303.015 91.2999C304.728 90.2641 306.2 88.8739 307.332 87.2227C308.464 85.5715 309.23 83.6973 309.578 81.7259C309.796 80.137 309.58 78.5188 308.952 77.0429C308.361 75.7358 307.378 74.6448 306.139 73.9209C303.714 75.6757 301.093 77.1425 298.329 78.2919C295.217 79.7153 291.92 80.6946 288.536 81.2009C285.441 81.7606 282.256 81.5462 279.264 80.5769C278.051 80.1947 276.974 79.4712 276.161 78.493C275.348 77.5149 274.835 76.3234 274.681 75.0609L305.936 65.3819C308.534 64.5611 310.918 63.1749 312.916 61.3229C314.842 59.4302 316.056 56.9303 316.352 54.2459C317.017 50.6868 316.875 47.0238 315.936 43.5269C315.114 40.577 313.491 37.912 311.248 35.8269C308.857 33.772 305.993 32.3418 302.914 31.6639C299.115 30.8023 295.18 30.7315 291.353 31.4559C287.305 32.1465 283.376 33.4074 279.682 35.2009C275.73 37.0675 272.107 39.5629 268.954 42.5899C265.526 45.8571 262.643 49.6514 260.413 53.8289C257.901 58.5669 256.242 63.71 255.513 69.0229C254.575 74.8509 254.68 79.7419 255.827 83.8009C256.684 87.4607 258.623 90.7778 261.391 93.3206C264.159 95.8634 267.629 97.5141 271.348 98.0579L271.35 98.0599ZM283.744 49.4599C285.378 48.4982 287.182 47.8622 289.058 47.5869C292.078 47.0669 294.265 47.5869 295.517 49.0439C296.683 50.3707 297.347 52.0649 297.392 53.8309L275.724 60.9079C276.069 59.441 276.557 58.0117 277.183 56.6409C277.876 55.2163 278.75 53.887 279.783 52.6859C280.914 51.3968 282.253 50.3064 283.744 49.4599ZM225.412 66.6309C225.829 63.9249 225.412 62.0519 224.162 61.1149C222.912 60.0743 221.037 59.7623 218.537 60.1789C216.82 60.4711 215.142 60.96 213.537 61.6359C211.943 62.3147 210.438 63.188 209.058 64.2359L202.078 109.301C201.223 109.685 200.345 110.019 199.451 110.301C199.039 110.442 198.595 110.594 198.122 110.761C196.308 111.287 194.465 111.704 192.601 112.01C191.019 112.286 189.415 112.425 187.809 112.426C186.595 112.465 185.397 112.139 184.371 111.49C183.471 110.789 182.844 109.795 182.6 108.68C182.281 106.995 182.281 105.265 182.6 103.58L188.636 64.6539C188.968 62.5358 189.75 60.5133 190.928 58.7219C192.198 56.9623 193.706 55.3864 195.407 54.0389C198.883 51.3024 202.7 49.0284 206.761 47.2739C211.383 45.2318 216.25 43.7975 221.24 43.0069C230.511 41.5499 237.386 42.4869 241.76 45.9209C246.134 49.3549 247.698 54.9749 246.553 62.5719L240.199 103.159C239.182 103.606 238.138 103.989 237.074 104.306L236.462 104.506L236.137 104.614C234.323 105.14 232.48 105.557 230.616 105.863C229.034 106.139 227.43 106.278 225.824 106.279C224.61 106.318 223.413 105.992 222.387 105.343C221.487 104.642 220.86 103.648 220.616 102.533C220.297 100.848 220.297 99.118 220.616 97.4329L225.408 66.8329L225.412 66.6309ZM62.912 115.131C64.5452 114.394 66.0558 113.412 67.391 112.217H67.599C68.7517 109.507 69.831 106.952 70.837 104.553C72.928 99.5849 74.737 95.2959 76.349 91.7159L77.049 90.0649C79.024 85.4049 80.657 81.5559 81.87 78.2909H82.495C81.974 83.2909 81.141 89.6349 80.095 97.1279C79.049 104.621 78.012 113.051 77.074 122.417C76.657 125.643 77.49 127.725 79.474 128.453C81.453 129.285 83.953 129.389 87.074 128.869C89.1028 128.549 91.0937 128.024 93.016 127.301C94.6629 126.596 96.2337 125.725 97.704 124.701C97.7393 124.347 97.7777 123.969 97.819 123.567C98.019 121.602 98.278 119.051 98.537 115.856C98.647 114.499 98.77 113.104 98.897 111.665C99.13 109.02 99.376 106.229 99.579 103.265L99.653 102.181C99.941 97.9469 100.237 93.6099 100.621 89.0089C100.934 84.1176 101.246 79.4346 101.558 74.9599C101.795 71.5719 101.972 68.4819 102.134 65.6449V65.6359V65.6089C102.185 64.7123 102.236 63.8403 102.285 62.9929C102.493 59.4549 102.493 56.8529 102.493 55.1879C102.493 52.8979 101.347 51.3369 98.951 50.5049C96.555 49.6729 93.43 49.5679 89.368 50.1929C87.1211 50.5341 84.9199 51.1276 82.806 51.9619C81.0413 52.5828 79.3615 53.4227 77.806 54.4619C75.406 59.2489 72.706 65.2849 69.681 72.3619C66.662 79.5359 63.636 86.8209 60.516 94.5219H59.891C59.759 93.6419 59.627 92.7069 59.491 91.7159C59.3 90.3649 59.091 88.9099 58.855 87.3519L57.605 79.2349C57.352 77.5909 57.06 75.9459 56.777 74.3489C56.594 73.3179 56.414 72.3059 56.251 71.3259C55.834 68.7259 55.418 66.5389 55.001 64.5609C54.272 61.5429 52.918 59.5609 50.626 58.5249C48.439 57.4839 45.105 57.2759 40.726 58.0049C37.2793 58.4008 33.9667 59.571 31.036 61.4279C29.1646 62.5947 27.5073 64.0738 26.136 65.8009L12.286 132.507C11.765 135.733 12.386 137.815 14.265 138.647C16.036 139.48 18.744 139.688 22.39 139.063C24.1655 138.833 25.9114 138.414 27.598 137.814C29.1148 137.381 30.5813 136.788 31.973 136.045C32.3163 134.256 32.656 132.511 32.992 130.812C33.569 127.873 34.115 125.09 34.577 122.512C35.306 118.453 36.036 114.395 36.66 110.44C37.389 106.485 38.118 102.427 38.847 98.1599C39.576 93.8929 40.514 89.2099 41.555 84.0069H42.18C42.4927 87.4416 43.0137 91.3963 43.743 95.8709C44.472 100.346 45.41 106.171 46.555 113.459C46.6171 114.298 46.9587 115.093 47.5251 115.715C48.0916 116.337 48.8503 116.752 49.68 116.893C52.0468 117.419 54.5002 117.419 56.867 116.893C58.9607 116.619 60.9997 116.023 62.912 115.128V115.131ZM171.245 97.5399C173.529 92.9177 175.075 87.9664 175.828 82.8659V82.9659C176.606 78.5179 176.536 73.9627 175.62 69.5409C174.924 66.0007 173.215 62.7389 170.7 60.1522C168.185 57.5656 164.972 55.7655 161.453 54.9709C157.257 53.9129 152.878 53.8077 148.636 54.6629C143.913 55.4265 139.342 56.9371 135.094 59.1379C130.928 61.3018 127.131 64.112 123.844 67.4639C120.524 70.9081 117.749 74.8386 115.615 79.1199C113.41 83.6186 111.9 88.4255 111.136 93.3769C110.358 97.8947 110.429 102.518 111.344 107.01C112.13 110.558 113.857 113.83 116.344 116.48C118.879 118.962 122.052 120.693 125.511 121.48C129.72 122.447 134.085 122.518 138.323 121.688C143.029 120.911 147.593 119.438 151.865 117.317C156.013 115.262 159.782 112.517 163.011 109.2C166.356 105.774 169.136 101.838 171.245 97.5399ZM133.745 101.495C132.182 98.9949 131.87 95.1469 132.703 89.8389L132.803 89.9389C133.636 84.7356 135.199 80.5729 137.49 77.4509C138.481 75.9929 139.759 74.752 141.246 73.8037C142.732 72.8554 144.396 72.2196 146.136 71.9349C149.573 71.4149 152.074 72.3509 153.536 74.8489C154.89 77.3489 155.307 81.1969 154.473 86.4009C153.639 91.6049 152.073 95.7669 149.786 98.8889C148.795 100.347 147.517 101.588 146.03 102.536C144.544 103.484 142.88 104.12 141.14 104.405C137.703 104.929 135.203 103.992 133.745 101.495ZM28.436 256.662C30.311 256.453 31.978 256.246 33.336 256.038L33.128 256.35C44.482 254.477 53.545 251.043 60.211 245.943C63.4899 243.504 66.248 240.434 68.3231 236.913C70.3981 233.393 71.7482 229.493 72.294 225.443C73.023 220.552 72.294 216.805 70.003 213.995C68.8643 212.591 67.4588 211.426 65.8676 210.568C64.2763 209.71 62.5309 209.175 60.732 208.995C64.4129 207.144 67.6746 204.558 70.315 201.395C72.8236 198.343 74.4772 194.68 75.107 190.78C76.253 182.975 74.378 177.667 69.274 174.857C64.17 172.047 56.357 171.527 45.836 173.192C41.461 173.92 37.086 174.857 32.815 176.002C29.0822 176.959 25.4535 178.284 21.982 179.957C20.3915 180.703 18.9455 181.725 17.711 182.975C16.571 184.216 15.8433 185.779 15.628 187.45L6.245 248.023C5.516 252.5 7.287 255.308 11.558 256.35C13.2551 256.817 15.0058 257.062 16.766 257.078H22.599C24.5508 257.046 26.4994 256.907 28.436 256.662ZM28.136 239.075C29.5871 239.179 31.0439 239.179 32.495 239.075C33.795 239.002 35.004 238.829 36.177 238.661C36.69 238.586 37.197 238.513 37.704 238.449C40.7902 238.023 43.724 236.844 46.246 235.015C47.4164 234.179 48.4004 233.109 49.1356 231.873C49.8708 230.637 50.3412 229.262 50.517 227.835C50.934 225.025 50.417 223.048 48.746 222.215C47.079 221.278 44.475 221.174 40.725 221.695L30.625 223.36L28.136 239.075ZM41.974 205.875L33.016 207.332L32.916 207.432L35.316 192.132C36.5627 191.657 37.8538 191.308 39.17 191.091C39.895 190.955 40.561 190.819 41.184 190.691H41.191C41.999 190.526 42.736 190.376 43.44 190.259C47.19 189.635 49.794 189.947 51.461 190.987C52.2617 191.54 52.8718 192.326 53.2075 193.24C53.5432 194.153 53.5881 195.147 53.336 196.087C52.9823 198.551 51.808 200.824 50.003 202.539C48.224 204.211 45.516 205.356 41.974 205.876V205.875ZM146.037 205.042C145.284 210.142 143.738 215.094 141.454 219.716C139.346 224.013 136.568 227.947 133.225 231.372C129.996 234.689 126.227 237.434 122.079 239.49C117.807 241.61 113.243 243.083 108.537 243.86C104.299 244.69 99.9339 244.62 95.725 243.653C92.2659 242.866 89.0928 241.135 86.558 238.653C84.0712 236.002 82.3441 232.73 81.558 229.181C80.6428 224.689 80.5723 220.066 81.35 215.549C82.1145 210.601 83.6243 205.797 85.828 201.301C87.9622 197.02 90.7371 193.089 94.057 189.645C97.3439 186.293 101.141 183.483 105.307 181.319C109.561 179.133 114.13 177.623 118.849 176.844C123.089 175.991 127.467 176.097 131.661 177.156C135.128 177.978 138.301 179.743 140.828 182.256C143.335 184.892 145.066 188.169 145.828 191.726C146.743 196.148 146.814 200.703 146.036 205.151L146.037 205.042ZM102.808 212.015C101.975 217.322 102.287 221.173 103.85 223.671C105.308 226.171 107.808 227.105 111.25 226.585C112.99 226.3 114.654 225.664 116.14 224.716C117.627 223.768 118.905 222.527 119.896 221.069C122.188 217.947 123.75 213.784 124.583 208.581C125.416 203.381 125 199.527 123.646 197.029C122.188 194.529 119.688 193.595 116.246 194.115C114.506 194.4 112.842 195.035 111.356 195.984C109.869 196.932 108.591 198.173 107.6 199.631C105.308 202.753 103.746 206.916 102.913 212.119L102.808 212.015ZM176.975 214.408C175.725 213.68 175.413 212.223 175.725 209.933L175.625 209.833L178.636 190.266L189.886 188.497C191.96 188.208 193.872 187.216 195.303 185.687C196.962 183.754 197.981 181.354 198.22 178.818C198.429 177.299 198.429 175.758 198.22 174.239C198.054 173.104 197.775 171.988 197.387 170.909L181.241 173.509L182.491 165.183C183.22 160.812 182.591 158.21 180.824 157.17C179.053 156.233 176.345 155.921 172.699 156.546C170.867 156.886 169.058 157.338 167.282 157.899C165.897 158.296 164.54 158.783 163.219 159.356L154.573 214.929C153.323 222.734 154.473 228.042 157.802 230.851C161.24 233.662 166.448 234.495 173.74 233.351C179.678 232.413 183.948 230.751 186.657 228.251C189.219 226.023 190.915 222.965 191.449 219.613C191.738 218.271 191.704 216.88 191.349 215.554C191.011 214.515 190.52 213.533 189.89 212.64C188.737 213.161 187.554 213.612 186.348 213.993C185.086 214.391 183.798 214.704 182.494 214.93C179.995 215.346 178.224 215.138 176.974 214.41L176.975 214.408ZM253.016 244.901C248.65 245.672 244.22 246.021 239.787 245.941C236.399 245.942 233.04 245.307 229.887 244.068C227.488 243.125 225.447 241.449 224.055 239.28C222.739 236.942 222.331 234.2 222.909 231.58C223.386 228.498 224.722 225.613 226.763 223.255C228.686 220.973 230.892 218.945 233.326 217.219C236.011 219.152 238.957 220.694 242.076 221.798C245.305 222.943 249.476 223.151 254.676 222.318C259.776 221.486 263.531 219.718 266.03 217.01C268.44 214.485 270.037 211.295 270.613 207.852C271.134 204.522 270.613 202.024 269.052 200.152C267.491 198.28 264.364 197.758 259.78 198.487C257.221 198.857 254.729 199.593 252.38 200.672C250.298 201.713 248.006 202.961 245.298 204.627C240.089 205.251 236.131 204.419 233.525 202.127C230.919 199.835 229.984 195.779 230.925 190.055C230.944 189.739 230.992 189.426 231.068 189.119C231.091 189.019 231.111 188.919 231.134 188.807C231.181 188.279 231.276 187.757 231.418 187.246C231.518 186.802 231.639 186.281 231.757 185.685L237.695 159.564C238.58 155.015 240.707 150.801 243.842 147.388C246.875 144.164 250.917 142.071 255.301 141.456L301.759 133.963C302.276 135.452 302.66 136.984 302.904 138.542C303.218 140.611 303.218 142.716 302.904 144.786C302.28 149.053 300.822 152.279 298.739 154.36C296.757 156.414 294.159 157.766 291.339 158.211L260.402 163.211L256.756 179.342C258.865 178.401 261.019 177.567 263.212 176.842C265.849 175.916 268.571 175.254 271.339 174.865C276.962 173.932 281.65 174.036 285.401 175.177C288.901 176.068 292.033 178.033 294.358 180.797C296.626 183.609 298.069 186.995 298.525 190.579C299.128 194.83 299.058 199.15 298.318 203.379C297.559 208.152 296.084 212.783 293.942 217.116C291.727 221.724 288.731 225.914 285.087 229.501C281.113 233.422 276.542 236.688 271.546 239.178C265.676 242.089 259.383 244.056 252.9 245.006L253.016 244.901ZM391.245 192.345C394.615 184.788 396.928 176.804 398.12 168.617H397.911C399.265 159.979 399.474 152.382 398.327 146.034C397.18 139.686 395.1 134.482 391.973 130.528C388.897 126.599 384.674 123.726 379.891 122.306C374.429 120.79 368.694 120.541 363.121 121.578C356.784 122.607 350.682 124.757 345.099 127.926C339.335 131.249 334.161 135.504 329.788 140.519C325.079 146.059 321.218 152.267 318.329 158.939C314.995 166.464 312.717 174.414 311.559 182.563C310.307 191.201 310.1 198.798 311.14 205.25C312.18 211.702 314.267 216.906 317.392 220.86C320.489 224.766 324.704 227.635 329.474 229.082C334.474 230.643 340.1 230.85 346.454 229.81C352.753 228.763 358.818 226.614 364.371 223.461C370.154 220.165 375.332 215.906 379.682 210.868C384.389 205.269 388.282 199.034 391.245 192.347V192.345ZM370.098 150.717C371.973 155.717 372.183 163.101 370.619 173.092C369.055 183.083 366.452 190.992 362.911 196.924C359.265 202.856 354.891 206.186 349.891 207.019C344.891 207.852 341.452 205.77 339.682 200.671C337.911 195.676 337.807 188.183 339.37 178.192C340.933 168.201 343.433 160.292 346.87 154.464C350.411 148.636 354.578 145.306 359.683 144.474C364.682 143.643 368.223 145.724 370.099 150.719L370.098 150.717ZM495.828 152.902C494.636 161.089 492.323 169.074 488.953 176.63C485.989 183.318 482.096 189.554 477.39 195.154C473.017 200.168 467.843 204.423 462.079 207.746C456.533 210.914 450.465 213.064 444.162 214.094C437.808 215.135 432.182 214.927 427.182 213.366C422.412 211.919 418.197 209.051 415.1 205.145C411.975 201.19 409.891 195.987 408.848 189.534C407.808 183.082 408.015 175.485 409.267 166.847C410.474 158.709 412.75 150.765 416.037 143.223C418.926 136.551 422.787 130.343 427.496 124.803C431.823 119.742 437.006 115.48 442.807 112.211C448.39 109.041 454.492 106.892 460.829 105.863C466.401 104.823 472.138 105.072 477.599 106.591C482.388 107.998 486.614 110.874 489.681 114.812C492.808 118.767 494.89 123.97 496.035 130.318C497.18 136.666 496.973 144.263 495.618 152.901L495.828 152.902ZM468.328 157.273C469.891 147.282 469.682 139.894 467.807 134.898C465.932 129.902 462.391 127.821 457.391 128.654C452.391 129.487 448.119 132.817 444.578 138.644C441.141 144.472 438.641 152.381 437.078 162.372C435.515 172.363 435.619 179.856 437.39 184.851C439.161 189.951 442.599 192.032 447.599 191.199C452.699 190.366 456.973 187.036 460.619 181.104C464.265 175.172 466.767 167.266 468.328 157.276V157.273ZM586.662 160.811C590.031 153.255 592.345 145.27 593.537 137.083H593.328C594.682 128.445 594.891 120.848 593.744 114.5C592.597 108.152 590.517 102.948 587.39 98.9939C584.314 95.0658 580.091 92.1926 575.308 90.7729C569.846 89.2566 564.11 89.0076 558.538 90.0449C552.189 91.0258 546.078 93.1784 540.516 96.3929C534.752 99.7157 529.577 103.971 525.204 108.985C520.495 114.525 516.634 120.733 513.745 127.405C510.411 134.93 508.133 142.88 506.975 151.029C505.723 159.667 505.516 167.264 506.556 173.716C507.596 180.168 509.683 185.372 512.808 189.327C515.905 193.233 520.12 196.101 524.89 197.548C529.89 199.109 535.516 199.317 541.87 198.276C548.169 197.229 554.234 195.08 559.787 191.928C565.57 188.632 570.749 184.374 575.099 179.336C579.828 173.753 583.722 167.514 586.662 160.814V160.811ZM565.516 119.186C567.391 124.186 567.601 131.57 566.037 141.561C564.473 151.552 561.975 159.461 558.329 165.393C554.683 171.325 550.309 174.655 545.309 175.488C540.309 176.321 536.87 174.239 535.1 169.14C533.329 164.145 533.225 156.652 534.788 146.661C536.351 136.67 538.851 128.761 542.288 122.933C545.829 117.105 549.996 113.775 555.101 112.942C560.099 112.11 563.636 114.191 565.516 119.186Z" fill="black"/>
<mask id="mask0_20_44300" style="mask-type:luminance" maskUnits="userSpaceOnUse" x="0" y="0" width="590" height="241">
<path d="M589.054 0.922974H0.510986V240.283H589.054V0.922974Z" fill="white"/>
</mask>
<g mask="url(#mask0_20_44300)">
<path d="M61.757 95.314C60.4218 96.5088 58.9113 97.4915 57.278 98.228C55.3669 99.1247 53.3289 99.7214 51.236 99.997C48.8689 100.524 46.4151 100.524 44.048 99.997C43.2182 99.8564 42.4594 99.4418 41.8929 98.8193C41.3265 98.1968 40.985 97.4024 40.923 96.563C39.777 89.278 38.84 83.45 38.11 78.975C37.38 74.5 36.865 70.542 36.557 67.111H35.927C34.885 72.311 33.948 76.997 33.219 81.264C32.49 85.531 31.757 89.59 31.031 93.542C30.406 97.497 29.677 101.555 28.948 105.614C28.219 109.673 27.281 114.252 26.348 119.143C24.9562 119.885 23.4897 120.478 21.973 120.912C20.2863 121.512 18.5405 121.931 16.765 122.161C13.119 122.785 10.411 122.577 8.64 121.745C6.765 120.913 6.14 118.831 6.661 115.605L20.511 48.899C21.8824 47.1726 23.5398 45.6941 25.411 44.528C28.3398 42.6676 31.6514 41.4936 35.098 41.094C39.473 40.366 42.807 40.574 44.998 41.614C47.29 42.655 48.644 44.632 49.373 47.65C49.79 49.627 50.206 51.813 50.623 54.415C51.039 56.915 51.56 59.615 51.977 62.324L53.227 70.441C53.644 73.147 53.956 75.541 54.269 77.622H54.894C58.019 69.922 61.04 62.636 64.061 55.455C67.082 48.378 69.79 42.342 72.186 37.555C73.7416 36.5159 75.4214 35.676 77.186 35.055C79.2999 34.2205 81.5011 33.6271 83.748 33.286C87.81 32.662 90.935 32.766 93.331 33.598C95.727 34.43 96.873 35.991 96.873 38.281C96.873 39.946 96.873 42.548 96.665 46.086C96.457 49.624 96.248 53.579 95.936 58.054C95.624 62.529 95.311 67.212 94.998 72.103C94.582 77.103 94.269 81.781 93.956 86.36C93.643 90.939 93.227 95.102 92.914 98.953C92.601 102.804 92.289 105.717 92.081 107.799C90.6111 108.823 89.0407 109.694 87.394 110.399C85.4728 111.12 83.4832 111.643 81.456 111.96C78.331 112.48 75.831 112.376 73.856 111.544C71.877 110.816 71.043 108.734 71.456 105.508C72.394 96.142 73.435 87.708 74.477 80.219C75.519 72.73 76.352 66.378 76.877 61.383H76.252C74.898 65.025 73.023 69.396 70.731 74.808C68.331 80.116 65.523 86.984 61.981 95.308L61.757 95.314Z" fill="black"/>
<path d="M170.199 65.964C169.446 71.0644 167.9 76.0157 165.616 80.638C163.508 84.9347 160.73 88.8691 157.387 92.2939C154.158 95.6112 150.389 98.3559 146.241 100.411C141.969 102.533 137.405 104.007 132.699 104.784C128.461 105.614 124.096 105.544 119.887 104.576C116.428 103.789 113.255 102.058 110.72 99.5759C108.233 96.9256 106.506 93.6544 105.72 90.106C104.805 85.614 104.734 80.9908 105.512 76.4729C106.276 71.5216 107.786 66.7146 109.991 62.216C112.125 57.9361 114.9 54.0069 118.22 50.564C121.507 47.212 125.304 44.4019 129.47 42.238C133.718 40.0375 138.289 38.5273 143.012 37.764C147.252 36.9108 151.63 37.0174 155.824 38.076C159.282 38.9228 162.448 40.6844 164.991 43.176C167.498 45.8117 169.229 49.0889 169.991 52.646C170.906 57.0678 170.977 61.6229 170.199 66.071V65.964ZM127.074 72.9389C126.241 78.2469 126.553 82.097 128.116 84.595C129.574 87.095 132.075 88.029 135.516 87.509C137.256 87.2242 138.92 86.5883 140.406 85.64C141.893 84.6917 143.17 83.4509 144.162 81.993C146.454 78.8709 148.016 74.7083 148.849 69.505C149.682 64.305 149.266 60.451 147.912 57.953C146.454 55.453 143.954 54.519 140.512 55.039C138.772 55.3236 137.108 55.9594 135.622 56.9077C134.135 57.856 132.857 59.097 131.866 60.555C129.574 63.677 128.012 67.8396 127.18 73.0429L127.074 72.9389Z" fill="black"/>
<path d="M219.78 49.731C220.197 47.025 219.78 45.152 218.53 44.215C217.28 43.1743 215.405 42.8623 212.905 43.279C211.188 43.5712 209.51 44.06 207.905 44.736C206.311 45.4148 204.806 46.2881 203.426 47.336L196.447 92.4C195.614 92.816 194.26 93.233 192.489 93.857C190.675 94.3832 188.832 94.8003 186.968 95.106C185.386 95.382 183.782 95.5212 182.176 95.522C180.962 95.5612 179.764 95.2347 178.738 94.585C177.837 93.884 177.211 92.8898 176.967 91.775C176.649 90.0899 176.649 88.3601 176.967 86.675L183.01 47.754C183.342 45.636 184.123 43.6135 185.3 41.822C186.571 40.0624 188.078 38.4865 189.779 37.139C193.256 34.4009 197.073 32.1256 201.135 30.37C205.757 28.3278 210.624 26.8935 215.614 26.103C224.885 24.646 231.761 25.583 236.135 29.017C240.509 32.451 242.073 38.071 240.926 45.668L234.571 86.26C233.245 86.8212 231.889 87.3077 230.509 87.717C228.696 88.2432 226.852 88.6603 224.989 88.966C223.407 89.242 221.803 89.3812 220.197 89.382C218.983 89.4211 217.785 89.0947 216.759 88.445C215.858 87.744 215.232 86.7498 214.988 85.635C214.67 83.9499 214.67 82.2201 214.988 80.535L219.78 49.935V49.731Z" fill="black"/>
<path d="M278.946 81.1599C274.576 81.995 270.087 81.995 265.717 81.1599C261.998 80.6151 258.529 78.964 255.761 76.4214C252.993 73.8788 251.054 70.5623 250.196 66.9029C249.051 62.8439 248.947 57.9529 249.884 52.1249C250.613 46.812 252.272 41.6689 254.784 36.9309C257.014 32.7546 259.896 28.9607 263.321 25.6919C266.475 22.6639 270.099 20.1681 274.053 18.3019C277.745 16.5083 281.673 15.247 285.719 14.5559C289.547 13.8315 293.483 13.9023 297.282 14.7639C300.361 15.4418 303.225 16.8721 305.616 18.9269C307.859 21.012 309.482 23.677 310.304 26.6269C311.241 30.124 311.384 33.7867 310.72 37.3459C310.424 40.031 309.209 42.5312 307.281 44.4229C305.283 46.2749 302.899 47.6611 300.301 48.4819L269.053 58.1609C269.207 59.4234 269.72 60.6149 270.533 61.593C271.346 62.5712 272.423 63.2947 273.636 63.6769C276.628 64.6463 279.813 64.8607 282.908 64.3009C286.292 63.7929 289.587 62.812 292.698 61.3869C295.463 60.2376 298.085 58.7708 300.511 57.0159C301.749 57.7411 302.731 58.8317 303.324 60.1379C303.951 61.6139 304.167 63.2322 303.948 64.8209C303.601 66.7924 302.835 68.6667 301.704 70.318C300.572 71.9693 299.1 73.3594 297.387 74.3949C294.483 76.2864 291.327 77.758 288.011 78.7659C284.938 79.7264 281.807 80.4909 278.637 81.0549L278.946 81.1599ZM283.425 30.6869C281.55 30.9625 279.746 31.5986 278.113 32.5599C276.622 33.4055 275.284 34.4961 274.155 35.7859C273.121 36.9873 272.245 38.3165 271.549 39.7409C270.925 41.1122 270.438 42.5414 270.093 44.0079L291.758 36.9309C291.714 35.1647 291.05 33.4702 289.883 32.1439C288.635 30.6859 286.447 30.1659 283.425 30.6859V30.6869Z" fill="black"/>
<path d="M326.658 55.768C326.139 53.791 325.513 51.501 324.887 49.003C324.261 46.505 323.638 43.591 323.116 40.365C322.492 37.139 321.971 33.288 321.555 29.021C321.034 24.754 320.617 19.863 320.201 14.243C321.732 12.7203 323.445 11.3919 325.301 10.288C327.326 9.09606 329.552 8.28534 331.869 7.89599C334.787 7.47999 337.078 7.68799 338.744 8.62399C340.41 9.55999 341.452 11.746 341.869 14.972L346.036 49.107H346.557C348.016 45.881 349.475 42.551 350.931 38.907C352.387 35.263 353.953 31.518 355.412 27.772C356.869 23.921 358.327 20.172 359.681 16.324C361.035 12.476 362.281 8.83099 363.432 5.18899C366.491 3.16756 369.928 1.78585 373.535 1.12699C376.45 0.710991 378.742 0.918991 380.41 1.95999C382.078 3.00099 382.702 5.08199 382.181 8.20399C381.692 11.0026 380.96 13.7533 379.994 16.425C378.952 19.547 377.702 22.981 376.139 26.625C374.68 30.2677 373.014 34.0143 371.139 37.865C369.264 41.715 367.388 45.565 365.411 49.313C363.434 53.061 361.556 56.702 359.576 60.032C357.598 63.466 355.723 66.484 353.953 69.19C351.474 73.1391 348.797 76.96 345.931 80.638C343.943 83.239 341.711 85.6437 339.265 87.819C337.481 89.4083 335.482 90.7396 333.328 91.774C331.468 92.6136 329.508 93.2083 327.495 93.543C324.056 94.063 321.453 93.543 319.578 91.67C317.807 89.901 316.978 87.195 317.078 83.865C320.1 81.265 323.016 78.453 326.142 75.435C329.162 72.417 331.975 69.295 334.578 66.173C333.013 65.8674 331.588 65.0641 330.516 63.883C329.162 62.53 327.916 59.824 326.661 55.661L326.658 55.768Z" fill="black"/>
<path d="M27.7 239.139C26.346 239.346 24.679 239.555 22.8 239.763C20.8648 240.008 18.9175 240.147 16.967 240.179H11.138C9.37778 240.163 7.62708 239.919 5.93001 239.451C1.65901 238.408 -0.111987 235.595 0.617013 231.123L9.99201 170.556C10.2073 168.885 10.935 167.322 12.075 166.081C13.3095 164.831 14.7554 163.809 16.346 163.063C19.8181 161.39 23.4475 160.065 27.181 159.108C31.452 157.963 35.827 157.027 40.202 156.298C50.723 154.633 58.535 155.153 63.64 157.963C68.745 160.773 70.619 166.081 69.473 173.886C68.8432 177.786 67.1896 181.449 64.681 184.501C62.0405 187.663 58.7788 190.25 55.098 192.101C56.8969 192.281 58.6424 192.816 60.2336 193.674C61.8248 194.532 63.2304 195.697 64.369 197.101C66.661 199.911 67.39 203.657 66.661 208.549C66.1153 212.599 64.7652 216.499 62.6901 220.019C60.615 223.54 57.8569 226.61 54.578 229.049C47.911 234.149 38.849 237.583 27.495 239.456L27.7 239.139ZM22.492 222.175C23.9484 222.281 25.4106 222.281 26.867 222.175C28.742 222.075 30.409 221.759 32.075 221.551C35.1609 221.124 38.0944 219.945 40.617 218.117C41.7874 217.281 42.7714 216.211 43.5066 214.975C44.2418 213.739 44.7122 212.363 44.888 210.936C45.305 208.126 44.788 206.149 43.117 205.316C41.45 204.379 38.846 204.275 35.096 204.796L24.996 206.461L22.496 222.28L22.492 222.175ZM27.392 190.434L36.35 188.977C39.892 188.457 42.6 187.312 44.371 185.647C46.1746 183.932 47.3474 181.659 47.7 179.195C47.9521 178.255 47.9072 177.261 47.5715 176.348C47.2358 175.434 46.6257 174.648 45.825 174.095C44.158 173.054 41.554 172.742 37.804 173.367C36.554 173.575 35.204 173.887 33.533 174.199C32.2175 174.416 30.9271 174.765 29.681 175.239L27.281 190.539L27.392 190.434Z" fill="black"/>
<path d="M140.409 188.144C139.656 193.244 138.11 198.196 135.826 202.818C133.718 207.115 130.94 211.049 127.597 214.474C124.368 217.791 120.599 220.536 116.451 222.591C112.179 224.712 107.615 226.185 102.909 226.962C98.6712 227.793 94.3059 227.723 90.097 226.756C86.6379 225.969 83.4647 224.238 80.93 221.756C78.4431 219.106 76.7159 215.834 75.93 212.286C75.0149 207.794 74.9443 203.171 75.722 198.653C76.4859 193.701 77.996 188.894 80.201 184.395C82.3353 180.115 85.1103 176.185 88.43 172.742C91.7168 169.39 95.5139 166.58 99.68 164.416C103.934 162.23 108.503 160.721 113.222 159.941C117.462 159.088 121.84 159.194 126.034 160.253C129.501 161.075 132.674 162.84 135.201 165.353C137.708 167.989 139.439 171.266 140.201 174.823C141.116 179.245 141.187 183.8 140.409 188.248V188.144ZM97.18 195.116C96.347 200.424 96.659 204.274 98.222 206.772C99.68 209.272 102.18 210.206 105.622 209.686C107.362 209.401 109.026 208.766 110.512 207.817C111.999 206.869 113.277 205.628 114.268 204.17C116.56 201.048 118.122 196.885 118.955 191.682C119.788 186.482 119.372 182.628 118.018 180.13C116.559 177.63 114.06 176.696 110.618 177.216C108.878 177.501 107.214 178.137 105.728 179.085C104.241 180.033 102.964 181.274 101.972 182.732C99.68 185.854 98.1177 190.017 97.285 195.22L97.18 195.116Z" fill="black"/>
<path d="M170.097 193.034C169.785 195.323 170.097 196.78 171.347 197.509C172.597 198.238 174.368 198.446 176.868 198.029C178.172 197.803 179.46 197.49 180.722 197.092C181.928 196.711 183.111 196.259 184.264 195.739C184.893 196.632 185.385 197.614 185.722 198.653C186.077 199.979 186.111 201.37 185.822 202.712C185.288 206.064 183.591 209.122 181.03 211.35C178.322 213.85 174.051 215.513 168.113 216.45C160.821 217.595 155.613 216.762 152.175 213.95C148.842 211.14 147.696 205.833 148.946 198.027L157.592 142.454C158.913 141.881 160.271 141.394 161.655 140.997C163.431 140.436 165.24 139.984 167.072 139.644C170.718 139.02 173.426 139.332 175.197 140.268C176.968 141.309 177.597 143.91 176.864 148.281L175.618 156.608L191.764 154.008C192.152 155.087 192.432 156.203 192.597 157.338C192.806 158.857 192.806 160.398 192.597 161.917C192.358 164.453 191.339 166.853 189.68 168.786C188.249 170.315 186.337 171.307 184.263 171.596L173.013 173.365L169.992 192.93L170.097 193.034Z" fill="black"/>
<path d="M247.385 228.002C243.019 228.774 238.589 229.123 234.156 229.043C230.768 229.045 227.409 228.409 224.256 227.17C221.857 226.227 219.816 224.552 218.423 222.383C217.107 220.045 216.699 217.303 217.277 214.683C217.754 211.601 219.09 208.715 221.131 206.357C223.054 204.075 225.259 202.047 227.693 200.321C230.378 202.254 233.325 203.796 236.444 204.9C239.673 206.045 243.838 206.253 249.044 205.42C254.144 204.587 257.899 202.82 260.398 200.112C262.808 197.587 264.405 194.397 264.981 190.954C265.502 187.624 264.981 185.126 263.42 183.254C261.859 181.382 258.732 180.86 254.148 181.589C251.59 181.959 249.097 182.695 246.748 183.774C244.666 184.815 242.374 186.064 239.666 187.729C234.457 188.353 230.499 187.521 227.894 185.229C225.289 182.937 224.352 178.881 225.294 173.157C225.329 172.736 225.399 172.318 225.502 171.908C225.657 170.857 225.865 169.815 226.127 168.786L232.064 142.665C232.949 138.116 235.076 133.902 238.211 130.489C241.244 127.265 245.287 125.172 249.67 124.557L296.128 117.064C296.646 118.553 297.029 120.086 297.273 121.643C297.587 123.712 297.587 125.817 297.273 127.887C296.649 132.154 295.191 135.38 293.108 137.461C291.126 139.515 288.528 140.867 285.708 141.312L254.771 146.312L251.125 162.443C253.234 161.502 255.389 160.668 257.581 159.943C260.218 159.017 262.94 158.355 265.708 157.966C271.331 157.029 276.019 157.133 279.77 158.278C283.27 159.169 286.402 161.134 288.727 163.898C291 166.708 292.447 170.094 292.907 173.678C293.511 177.929 293.44 182.249 292.698 186.478C291.941 191.251 290.466 195.883 288.324 200.215C286.109 204.823 283.113 209.013 279.469 212.599C275.495 216.52 270.924 219.786 265.928 222.277C260.058 225.188 253.765 227.155 247.282 228.105L247.385 228.002Z" fill="#003EFF"/>
<path d="M392.49 151.72C391.298 159.906 388.986 167.889 385.617 175.445C382.654 182.133 378.761 188.369 374.054 193.969C369.704 199.007 364.526 203.266 358.743 206.561C353.19 209.714 347.125 211.863 340.826 212.909C334.472 213.95 328.849 213.741 323.846 212.181C319.076 210.734 314.861 207.866 311.764 203.96C308.639 200.005 306.556 194.802 305.515 188.349C304.473 181.897 304.68 174.3 305.931 165.662C307.089 157.513 309.367 149.563 312.701 142.038C315.591 135.366 319.452 129.159 324.16 123.618C328.534 118.604 333.707 114.35 339.471 111.026C345.054 107.857 351.156 105.707 357.493 104.678C363.066 103.641 368.801 103.89 374.263 105.406C379.046 106.827 383.27 109.7 386.347 113.628C389.472 117.583 391.554 122.786 392.701 129.135C393.848 135.484 393.639 143.08 392.285 151.718L392.49 151.72ZM364.99 156.195C366.553 146.204 366.344 138.816 364.469 133.82C362.594 128.824 359.052 126.745 354.052 127.576C348.952 128.409 344.783 131.739 341.239 137.567C337.802 143.395 335.302 151.304 333.739 161.295C332.176 171.286 332.28 178.779 334.051 183.774C335.822 188.874 339.26 190.955 344.26 190.122C349.26 189.289 353.634 185.959 357.28 180.027C360.822 174.095 363.428 166.185 364.989 156.195H364.99Z" fill="#003EFF"/>
<path d="M490.198 136.005C489.006 144.192 486.693 152.177 483.323 159.733C480.359 166.421 476.466 172.657 471.76 178.257C467.386 183.271 462.213 187.525 456.449 190.849C450.903 194.017 444.835 196.167 438.532 197.197C432.178 198.238 426.552 198.029 421.552 196.469C416.782 195.022 412.567 192.154 409.47 188.248C406.343 184.293 404.259 179.09 403.218 172.638C402.178 166.186 402.385 158.588 403.634 149.951C404.841 141.813 407.117 133.869 410.404 126.327C413.295 119.656 417.156 113.448 421.863 107.907C426.191 102.846 431.375 98.5835 437.177 95.3149C442.759 92.1454 448.861 89.9958 455.197 88.9669C460.77 87.9265 466.508 88.1755 471.97 89.6949C476.758 91.1022 480.984 93.9774 484.051 97.9149C487.176 101.87 489.26 107.073 490.405 113.422C491.55 119.771 491.343 127.367 489.988 136.005H490.198ZM462.698 140.376C464.261 130.385 464.052 122.996 462.177 118.001C460.302 113.006 456.761 110.924 451.761 111.757C446.761 112.59 442.489 115.92 438.948 121.748C435.509 127.576 433.009 135.485 431.448 145.476C429.887 155.467 429.991 162.96 431.762 167.955C433.533 173.055 436.969 175.136 441.969 174.303C447.069 173.471 451.345 170.14 454.991 164.208C458.637 158.276 461.134 150.366 462.697 140.376H462.698Z" fill="#003EFF"/>
<path d="M587.904 120.187C586.712 128.374 584.399 136.359 581.029 143.915C578.089 150.616 574.194 156.855 569.465 162.439C565.114 167.477 559.935 171.735 554.151 175.031C548.598 178.184 542.533 180.333 536.234 181.379C529.88 182.42 524.257 182.211 519.257 180.651C514.486 179.205 510.27 176.336 507.173 172.429C504.048 168.474 501.965 163.271 500.924 156.819C499.882 150.367 500.091 142.769 501.34 134.132C502.498 125.983 504.776 118.033 508.11 110.508C511 103.836 514.861 97.6288 519.569 92.0879C523.943 87.0743 529.116 82.8195 534.88 79.4959C540.442 76.2821 546.553 74.1296 552.902 73.1479C558.475 72.1108 564.21 72.3598 569.672 73.8759C574.456 75.2957 578.679 78.1689 581.756 82.0969C584.881 86.0519 586.963 91.2549 588.11 97.6039C589.257 103.953 589.048 111.549 587.694 120.187H587.904ZM560.404 124.662C561.965 114.671 561.758 107.283 559.883 102.287C558.008 97.2909 554.465 95.2099 549.465 96.0429C544.365 96.8759 540.196 100.206 536.655 106.034C533.216 111.862 530.716 119.771 529.155 129.762C527.594 139.753 527.698 147.246 529.467 152.241C531.238 157.341 534.676 159.422 539.676 158.589C544.676 157.756 549.05 154.426 552.696 148.494C556.342 142.562 558.842 134.653 560.406 124.662H560.404Z" fill="#003EFF"/>
</g>
</svg>
