<svg xmlns="http://www.w3.org/2000/svg" width="2975.831" height="1576.438" viewBox="0 0 2975.831 1576.438">
  <g id="NG_logo_full" data-name="NG_logo full" transform="translate(-1.446 -1.279)">
    <path id="Union_1" data-name="Union 1" d="M861.985,1549.978q-6.849-3.434-13.512-7.212Q742.213,1492.1,707.308,1372.313c-.02-.039-.039-.078-.061-.118l-.165-.157c-.811-2.879-1.616-5.748-2.341-8.646l-6.131-27.156a440.031,440.031,0,0,1-6.909-54.971c.007-.059.012-.118.017-.177q-7.5-123.058,59.075-231.486,49.9-81.366,128.467-94.222a189.959,189.959,0,0,1,35.8-2.378,253.9,253.9,0,0,1,45.858,5.8q99.88,21.355,119.69,122.233,26.373,134.111-92.36,166.769-52.447,13.838-81.965-32.344-31.792-49.179-24.833-85.281a.069.069,0,0,0-.02-.029q7.483-37.993,58.117-61.406a45.265,45.265,0,0,1,5.013-1.867c9.5-3.321,18.64-3.566,27.336-.776q-.144,4.937-13.765,21.271,13.625-16.314,13.792-21.31a50.416,50.416,0,0,1,16.968,9.589q50.233,40.838,10.026,91.716-22.607,28.915-62.182,16.663,72.84,49.606,95.813-45.558,13.164-54.661-26.078-96.422a59.467,59.467,0,0,0-24.184-15.71q-169.006,6.6-165.242,191.931,3.132,166.165,114.645,281.456,23.488,24.405,57.479,20.112,42.687-57.344,6.5-117.124c-.01-.01-.025-.02-.037-.03a169.953,169.953,0,0,0-11.146-16.015,195.362,195.362,0,0,0-34.4-34.554c-4.625-3.567-9.39-6.907-14.293-10.08l6.909.973a489.382,489.382,0,0,1,200.1-23.266q-51.824,108.409-21.342,217.673l8.467,3.792,1.592,5.659-4.709,5.315-4.1-2.171-38-3.783a289.857,289.857,0,0,1-43.657,16.8c-5.045,1.582-10.058,3.193-15.076,4.863-2.311.619-4.593,1.208-6.909,1.729a231.264,231.264,0,0,1-54.877,6.818Q911.154,1576.437,861.985,1549.978Zm191.909-16.329q-6.274,9.417-20.117,9.118Q1047.609,1543.091,1053.894,1533.649Zm-20.728,8.567q-5.807-5.2-14.769-12.625C1024.348,1534.533,1029.295,1538.748,1033.166,1542.216Zm-143.875-8.872a36.022,36.022,0,0,0,14.46-7.221A36.2,36.2,0,0,1,889.291,1533.344Zm-50.262-4.706a23.865,23.865,0,0,0,16.02-6.268A24.058,24.058,0,0,1,839.029,1528.638Zm64.722-2.515a21.58,21.58,0,0,0,5.961-8.489A21.863,21.863,0,0,1,903.751,1526.123Zm127.546-21.055q-16.337,1.592-16.356,20.416,0-18.834,16.356-20.416Zm26.051,18.864Zm-147.635-6.3q-9.406-20.736-22.929-20.731c-.273.01-.543.02-.808.039.265-.02.535-.03.808-.039Q900.279,1496.9,909.713,1517.634Zm-93.305-10.974q0-29.843,23.261-29.848,22.9,0,22.9,28.9c0,.206.01.4,0,.609,0-.206,0-.4,0-.609q0-28.871-22.9-28.9Q816.4,1476.811,816.407,1506.66Zm218.169-1.621c-.459-.029-.921-.049-1.393-.049C1033.655,1504.99,1034.116,1505.009,1034.576,1505.039Zm-2.093-.029c.155-.01.312-.01.469-.02C1032.8,1505,1032.638,1505,1032.483,1505.009ZM793.76,1481.518c9.172-.157,16.228-2.771,21.087-7.85Q807.519,1481.287,793.76,1481.518Zm42.456-31.116c-2.314,3.38-3.458,6.386-3.458,9.108,0-2.722,1.145-5.728,3.458-9.108a19.724,19.724,0,0,1,9.11-8.125q11.617,4.672,14.126,12.527c-1.673-5.237-6.381-9.442-14.126-12.566A19.713,19.713,0,0,0,836.217,1450.4Zm-14.46,4.4q0-26.689-29.227-26.694-29.5,0-29.5,26.694,0-26.689,29.5-26.694Q821.74,1428.109,821.757,1454.8Zm-79.125-48.673q-26.078-27.043-35.493-69.738-5.98-46.512-10.058-65.326h-.029q4.1,18.849,10.058,65.326,9.4,42.694,35.444,69.718C742.58,1406.121,742.6,1406.121,742.631,1406.13Zm249.38-42.709q22.32,20.441,22.318,36.411c0-10.7-7.438-22.814-22.318-36.441q-15.566-14.133-29.175-16.447Q976.443,1349.244,992.011,1363.421Zm-43.684-15.406a8.6,8.6,0,0,0,.631,1.906,12.436,12.436,0,0,1-.6-1.906,28.652,28.652,0,0,1,10.233-1.5c-.336-.01-.668-.02-1-.02A28.829,28.829,0,0,0,948.327,1348.016Zm14.278-1.11h0Zm-3.527-.373h0Zm-224.024-100.9c1.41.707,4.168,1.405,8.278,2.122-4.109-.717-6.868-1.425-8.278-2.152-2.284-1.444-3.456-5.541-3.456-12.232C731.6,1240.088,732.769,1244.156,735.054,1245.63Zm-3.456-12.262c0-.835.027-1.641.074-2.387C731.625,1231.727,731.6,1232.533,731.6,1233.368Zm28.279-.943q-6.267-9.447-14.126-12.566Q753.609,1223,759.877,1232.425Zm230.882-6.917c-6.882,0-12.038-.393-15.4-1.169Q980.4,1225.5,990.759,1225.508Zm-15.71-1.248c-1.233-.511-2.456-1.042-3.674-1.582C973.039,1223.435,974.263,1223.965,975.049,1224.26Zm58.419-75.083a111.846,111.846,0,0,0-8,12.389q-9.612,24.405-24.346,33.768-16.009,14.251-38.647,19.169,22.648-4.893,38.647-19.169,14.749-9.344,24.346-33.768a111.846,111.846,0,0,1,8-12.389Zm-70.347,8.8q-10.069,6.558-10.058,14.128c0,6.268.835,9.943,2.508,10.974l2.2,1.582-2.174-1.582c-1.7-1.032-2.505-4.706-2.505-10.974q0-7.575,10.029-14.128,11.617-7.87,22.929,0l1.56,6.878-1.56-6.878a19.81,19.81,0,0,0-11.392-3.93A20.485,20.485,0,0,0,963.121,1157.981Zm74.753,26.38q16.757-30.728,18.744-47.307Q1054.606,1153.619,1037.875,1184.361Zm-273.289-27.972a26.787,26.787,0,0,0,20.2-8.833,26.787,26.787,0,0,1-20.215,8.833Zm131.947-9.412q14.152-8.061,39.057-34.486a.306.306,0,0,1,.037-.059q-24.94,26.468-39.1,34.535S896.53,1146.977,896.532,1146.977Zm-111.219,0q7.564-8.489,7.553-18.864C792.866,1135.02,790.329,1141.318,785.313,1146.977Zm167.9-6.534a32.269,32.269,0,0,0,3.385-1.012C955.487,1139.824,954.357,1140.149,953.213,1140.443Zm9.267-3.527c-.2.108-.4.206-.609.3.214-.1.425-.2.636-.3a53.858,53.858,0,0,1,5.323-2.505A49.3,49.3,0,0,0,962.48,1136.916Zm94.254-.914Zm-90.491-29.868c0,.609.835,1.975,2.535,4.058,1.449,2.093,2.174,6.19,2.174,12.262,0,5.07-.3,8.607-.946,10.621.648-2.024.973-5.551.973-10.621,0-6.072-.725-10.169-2.2-12.262-1.673-2.083-2.508-3.449-2.508-4.058a45.691,45.691,0,0,0-14.492-2.78A45.821,45.821,0,0,1,966.243,1106.134ZM939.3,1130c-.852-.727-1.707-1.464-2.559-2.191C937.3,1128.309,938.156,1129.036,939.3,1130Zm-183.823-14.737c1.9,1.68,7.02,5.993,15.379,12.871a40.988,40.988,0,0,0,10.395-3.753,56,56,0,0,1,5.32-2.535q.962.958,1.589,0c1.029-1.454,1.56-5.433,1.56-11.928v-.01c0,6.484-.531,10.464-1.587,11.908-.42.639-.948.639-1.562,0a49.153,49.153,0,0,0-5.347,2.535,42.9,42.9,0,0,1-10.368,3.763q-7.77-6.352-15.406-12.871a20.96,20.96,0,0,1-2.832-3.006A19.42,19.42,0,0,0,755.475,1115.262Zm35.328-2.191a48.677,48.677,0,0,1,2.063,15.042,49.562,49.562,0,0,0-2.036-15.042,28.012,28.012,0,0,0,14.907-10.061A28.076,28.076,0,0,1,790.8,1113.071Zm-54.467,13.784a.741.741,0,0,1,.044-.324c-.017-.02-.029-.01-.039.02C736.338,1126.649,736.336,1126.757,736.336,1126.855Zm196.947-3.449h0v0Zm5.016-14.737c.128-.147.258-.285.391-.422C938.556,1108.384,938.426,1108.522,938.3,1108.669Zm-148.6-.314v0Zm-.007-.3a33.154,33.154,0,0,0-.84-7.2A33.471,33.471,0,0,1,789.69,1108.05Zm-54.944-6.6c1,2.948,4.345,4.539,10.053,4.687h0q-8.562-.25-10.053-4.706a29.984,29.984,0,0,1-.341-4.431A29.49,29.49,0,0,0,734.747,1101.448Zm12.871,2.171-2.505,2.171-.189.206c.064-.059.125-.108.189-.177l2.505-2.2a28.634,28.634,0,0,1,7.079-4.068A28.549,28.549,0,0,0,747.617,1103.619Zm194.134,2.171Zm.327-.295a3.811,3.811,0,0,0,.314-.314C942.285,1105.289,942.184,1105.4,942.078,1105.5Zm-186.938-6.75v0c.007-.01.012-.03.022-.039l-.774-7.153-.781-8.292v-.648c0-11.122,3.119-19.886,9.417-26.41a26.683,26.683,0,0,1,20.394-8.774,30.22,30.22,0,0,1,4.264.3,25.941,25.941,0,0,1,13.956,6.131,2.169,2.169,0,0,1,.474.3l1.727,1.729q9.439,9.727,9.447,25.751v-.01q0-16-9.447-25.741c-.558-.589-1.14-1.179-1.727-1.759a1.877,1.877,0,0,0-.474-.3,26.284,26.284,0,0,0-13.956-6.131,30.466,30.466,0,0,1,7.688-14.118,25.75,25.75,0,0,1,17.916-7.86v.324q0,19.144,20.419,26.7h.31a2.452,2.452,0,0,0,.612-.177l4.1-1.248a20.9,20.9,0,0,0,4.092-2.682v.177a33.638,33.638,0,0,0,4.709-4.883c4.406-5.659,6.607-11.387,6.607-17.272a24.165,24.165,0,0,0-1.285-8.312,24.752,24.752,0,0,1,1.253,8.282c0,5.875-2.169,11.643-6.575,17.282a34.345,34.345,0,0,1-4.709,4.863v-.157a18.821,18.821,0,0,1-4.092,2.672l-4.1,1.248a2.958,2.958,0,0,1-.612.177h-.31q-20.433-7.575-20.419-26.694v-.3c.054-4.9,1.837-8.725,5.32-11.456-.007,0-.01-.01-.02-.01a14.11,14.11,0,0,0-5.328,11.436,25.688,25.688,0,0,0-17.889,7.86,30.877,30.877,0,0,0-7.715,14.119,30.449,30.449,0,0,0-4.237-.3A26.814,26.814,0,0,0,763,1056.155q-9.406,9.756-9.42,26.4v.648l.781,8.3.027.265ZM754.834,1096.378Zm55.489-.786a32.722,32.722,0,0,0,2.491-8.292A33.668,33.668,0,0,1,810.323,1095.592Zm-55.806-2.486c-.02-.2-.037-.383-.056-.58Zm200.319-1.837c.285-.334.57-.668.847-1C955.406,1090.6,955.121,1090.935,954.836,1091.269Zm2.338-2.751c.057-.069.111-.137.165-.2C957.285,1088.381,957.231,1088.449,957.175,1088.518ZM835.88,1076.286q-8.772,10.994-21.033,11.014c8.189,0,15.185-3.684,21.06-11.014,5.075-6.259,7.666-12.36,7.823-18.265Q843.495,1066.879,835.88,1076.286Zm6.936-27.461a38.424,38.424,0,0,1,.921,8.626A38.424,38.424,0,0,0,842.817,1048.825Zm21.342-21.2c9.221.216,15.912-2.849,20.117-9.118.238-.364.462-.717.678-1.081-.216.364-.44.717-.678,1.051q-6.308,9.447-20.117,9.108-5.722-5.1-11.616-10.021a20.7,20.7,0,0,0-1.118-2.211,20.7,20.7,0,0,1,1.118,2.211.257.257,0,0,0,.015.039Q859.444,1023.408,864.159,1027.623Zm20.831-10.267a1.363,1.363,0,0,0,.1-.167A1.363,1.363,0,0,1,884.99,1017.356Zm.656-1.189a18.929,18.929,0,0,0,2.085-7.388h0A19.986,19.986,0,0,1,885.646,1016.167Zm16.545-2.672a58.85,58.85,0,0,0,14.774,1.552,57.687,57.687,0,0,1-14.8-1.582l-3.458-1.562Zm-56.865-3.006a12.935,12.935,0,0,1,4.559,2.938,12.187,12.187,0,0,0-4.559-2.938v-.138c0-.206,0-.393,0-.589,0,.2,0,.383,0,.589v.138Zm-30.013.973a16.058,16.058,0,0,1-3.616-5.856A15.766,15.766,0,0,0,815.314,1011.461Zm18.7-2.063c.639-.088,1.28-.138,1.864-.167.386-.02.764-.029,1.125-.029-.368,0-.744.01-1.125.029-.585.029-1.226.079-1.864.167h0Zm4.065-.167h.02l.29-.452a19.332,19.332,0,0,0,3.313-6.258c5.293-5.974,10.169-11.564,14.6-16.83a7.305,7.305,0,0,0,.946,1.11l1.255,1.562q3.135,1.592,12.871,1.592,10.655,0,15.713-4.1,3.467-2.476,6.271-9.422l0-.02q-2.8,6.9-6.266,9.412c-3.34,2.731-8.577,4.068-15.713,4.068-6.492,0-10.78-.5-12.871-1.562l-1.255-1.582a6.726,6.726,0,0,1-.946-1.091q-6.639,7.855-14.59,16.781a.1.1,0,0,1-.01.039,19.642,19.642,0,0,1-3.313,6.278l-.31.472Zm-21.369-15.877a18.16,18.16,0,0,0-5.013,12.252,18.132,18.132,0,0,1,5.013-12.232c2.957-3.557,6.185-5.767,9.754-6.593a33.471,33.471,0,0,1,15.686,12.556v-.029a33.59,33.59,0,0,0-15.686-12.556C822.9,987.576,819.637,989.787,816.712,993.353ZM939.551,996.8c0-.757-.01-1.474-.034-2.171C939.541,995.328,939.551,996.045,939.551,996.8Zm-4.736-16.319a5.439,5.439,0,0,0,1.211,2.328,5.471,5.471,0,0,1-1.184-2.328c-.535-.079-1.064-.147-1.584-.216C933.771,980.335,934.287,980.4,934.815,980.483Zm-63.1-13.519h.042c2.771-3.606,5.261-6.956,7.482-10H879.2C876.976,960.037,874.483,963.358,871.712,966.964Zm370.353,568.886q-30.175-34.22-35.188-78.226-23.783-205.941-46.806-412.089-3.135-27.677-22.929-50.294a147.234,147.234,0,0,0-16.329-15.681l5.323.943q7.877-2.638,29.094-9.982-14.538,5.011-29.094,9.982l-5.323-.943a63.751,63.751,0,0,0-7.241-5.659c-3.569-2.731-7.244-5.355-10.979-7.86l7.219,3.154-4.4-5.964q26.439-3.743,52.485-9.687l.282-.088,60.013-16.948c2.7-.825,5.544-1.778,8.469-2.83a367.448,367.448,0,0,1,74.446-18.53,23.336,23.336,0,0,1,9.412,0,3.373,3.373,0,0,1-.3,1.582,987.85,987.85,0,0,0-10.365,358.435q13.208,86.052,68.792,156.07,11.322,14.177,26.717,1.9,68.452-53.7,55.278-146.353-16.222-115.291-40.206-229.325-16.34-77.593-58.756-147.935l7.548-1.582h.641L1517.088,872.7l0-.01-157.224,35.242q18.514-9.122,91.716-28.591,39.165-10.464,63.531-15.1c.174-2.663.359-3.9.521-3.733v.914q99.843-13.411,173.883-24.179a313.25,313.25,0,0,1,43.962-3.6c3.345.727,7.607,1.562,12.733,2.515l.307.157q31.428,11.333,40.845,17.587a347.71,347.71,0,0,1,40.675,31.735c.165,1.749,1.9,3.34,5.183,4.706,3.564,3.341,7.133,6.828,10.7,10.365q5.512,5.556,23.067,30.949c.391.786.752,1.562,1.115,2.378q14.748,33.1,21.983,56.523a524.353,524.353,0,0,1,3.76,61.878v1.729q-4.263,19.984-25.437,47.278-28.248,37.08-55.278,48.7c-6.072,2.731-11.2,4.9-15.406,6.6q30.8,11.908,63.135,55.914a389.493,389.493,0,0,1,26.076,40.823l25.771,50.255a172.5,172.5,0,0,1,0-25.741,28.376,28.376,0,0,0,.948,3.458q4.053,19.468,10.67,25.122a14.251,14.251,0,0,0,3.473-5.767,14.535,14.535,0,0,1-3.473,5.748c-4.4-3.792-7.941-12.153-10.67-25.162a28.486,28.486,0,0,1-.948-3.458,172.6,172.6,0,0,1,6.6-30.173,45.077,45.077,0,0,1,22.286-27.608c1.255-.668,2.535-1.277,3.792-1.9,2.925-1.474,5.652-2.81,8.162-4.1,3.76-1.218,7.438-2.279,11.006-3.115q21.31-5.939,44.91-.314a86.608,86.608,0,0,1,42.147,23Q2024.894,1045.927,1998.792,858q-3.806-27.338-24.214-49.96a163.109,163.109,0,0,0-16.631-15.072l5.32.648s0,0,.007-.01l-5.328-.639a53.14,53.14,0,0,0-7.551-5.345,45.806,45.806,0,0,1,5.04-3.763l.616.4-.644-.432a43.249,43.249,0,0,0-5.013,3.763c-3.537-2.712-7.327-5.315-11.311-7.86l7.551,3.154-4.711-5.964q24.534-4.023,48.673-10.061l3.792-.924,59.677-18.854c2.729-.835,5.573-1.778,8.467-2.82a363.656,363.656,0,0,1,73.832-21.065,28.34,28.34,0,0,1,9.417-.3,3.9,3.9,0,0,1-.307,1.592,1003.511,1003.511,0,0,0-.639,360.6q15.71,86.052,73.186,154.861,11.621,13.824,26.692,1.248,66.621-55.914,50.9-148.583-19.347-115.38-46.163-229.3-18.227-77.608-62.828-147.011l7.523-1.877h.639l171.2-43.348-171.2,43.328q18.518-9.417,90.771-31.1,81.7-24.2,98.658-20.731l1.864,3.154q-7.855,2.211-20.09,5.954-35.521,152.666-1.253,305.665a2213.59,2213.59,0,0,0,90.771,298.719q7.273,18.761,20.286,29.229c-.2.138-.336.226-.474.334q-31.431,13.779-74.142,26.046-45.885,11.952-65.027,17.577c-5.124,1.513-10.223,3.124-15.236,4.883l-16.189-54.8q-29.5,69.133-107.429,81.665-62.818,10.36-103.032-32.688c-.6-.629-1.186-1.277-1.768-1.916q-.343,5.6-1.044,11.338a101.453,101.453,0,0,1-15.715,44.3q-40.536,61.249-110.273,62.182-11.617.324-22.9.973-38.988,3.419-71.656-19.2-24.155-18.51-42.378-56.189-18.846-39.29-23.543-75.122-9.778-60.925-19.193-80.093-21.362-44.257-71.3-62.192,20.728,49.665,54.968,151.737,37.367,92.36,96.123,150.136a36.8,36.8,0,0,1-2.37,4.716c-5.738.049-12.063.5-19,1.258q-43.678,5.335-118.1,24.169-41.792,10.626-66.139,20.289c-.142-.049-.309-.108-.474-.167-.224,0-.282.118-.282.3v.138c-2.5,1.032-4.846,2.014-7.1,3.016q14.336-144.737-27.473-324.8-9.4-39.865-21.033-79.15c-.224-.413-.224-.727,0-.953q-29.1-101.718-77.185-229.02-31.28,138.9-3.53,279.924a2170.6,2170.6,0,0,0,82.274,299.672,583.642,583.642,0,0,0,27.026,62.182l4.706,1.9a44.275,44.275,0,0,0-8.776,2.505l-157.386,15.1-16.658-62.821q-31.384,67.822-109.939,78.207a148.207,148.207,0,0,1-20.465,1.464Q1274.483,1572.217,1242.065,1535.85Zm85.114,17.921c9.958,0,17.331-3.321,22.163-10.041C1344.5,1550.45,1337.112,1553.771,1327.179,1553.771Zm27.64-29.838c0,7.28-1.57,13.529-4.711,18.638,3.141-5.109,4.738-11.358,4.738-18.638q0-12.055-5.647-18.618Q1354.817,1511.872,1354.819,1523.932Zm154.235-14.128c0,6.268.752,10.031,2.2,11.279a43.022,43.022,0,0,0,4.736,2.849l1.56,1.582q3.467,1.562,14.128,1.562,10.987,0,16.354-7.212a92.508,92.508,0,0,0,6.266-10.031.223.223,0,0,1-.01-.039,93.224,93.224,0,0,1-6.256,10.041q-5.353,7.236-16.354,7.221c-7.133,0-11.842-.54-14.128-1.592l-1.587-1.562a52.637,52.637,0,0,1-4.709-2.839c-1.447-1.258-2.2-5.021-2.2-11.279Zm-209.82,14.738a44.263,44.263,0,0,1,.334-5.581A44.263,44.263,0,0,0,1299.234,1524.541Zm-27.64-.609q13.757,0,21.954-8.941-8.19,8.946-21.964,8.941Zm281.451-17.744c-1.457-4.5-2.2-8-2.2-10.513h-.027C1550.822,1498.191,1551.571,1501.7,1553.045,1506.188Zm-170.594-4.274q8.824-5.63,19.173-17.272C1394.715,1492.364,1388.307,1498.161,1382.452,1501.914Zm-4.873-4.4q-4.978-4.392-10.2-8.469Q1373.105,1493.612,1377.578,1497.513Zm-76.475-.3q0-26.7-29.509-26.685h-.01Q1301.114,1470.523,1301.1,1497.208Zm-59.065,0q.015-11.26,5.266-17.764Q1242.039,1485.959,1242.038,1497.208Zm280.631-2.584c.246-.039.5-.069.752-.1C1523.165,1494.555,1522.914,1494.585,1522.669,1494.624Zm1.791-.226Zm-160.84-9.717c0,.7.96,1.916,2.879,3.616-1.9-1.68-2.864-2.9-2.879-3.635Zm38.005-.039a13.563,13.563,0,0,0-.631-1.631A13.563,13.563,0,0,1,1401.625,1484.642Zm296.476-3.763a30.307,30.307,0,0,1-11.881,1.267A29.945,29.945,0,0,0,1698.1,1480.879Zm-25.086-2.5c2.311,1.867,6.713,3.144,13.2,3.763-6.492-.648-10.866-1.9-13.178-3.763a29.228,29.228,0,0,0-7.551-6.917A29.689,29.689,0,0,1,1673.016,1478.383Zm25.137,2.476.069-.03Zm-377.884-7.192q1.654-.265,3.915-.855C1322.887,1473.127,1321.583,1473.422,1320.269,1473.667Zm345.13-2.142q-.925.56-.936-3.969C1664.47,1470.582,1664.782,1471.9,1665.4,1471.526Zm-334.457-.7a29.767,29.767,0,0,1,8.162-1.867A29.563,29.563,0,0,0,1330.942,1470.828Zm417.378-.029c-.2,0-.408-.01-.617-.01C1747.911,1470.789,1748.115,1470.8,1748.319,1470.8Zm-1.24-.03c-1.054-.02-2.154-.088-3.3-.177C1744.925,1470.681,1746.025,1470.749,1747.079,1470.769Zm3.333-.029a30.409,30.409,0,0,0,3.166-.324A30.409,30.409,0,0,1,1750.412,1470.74Zm3.166-.324a19.185,19.185,0,0,0,4.244-1.15A19.185,19.185,0,0,1,1753.578,1470.415Zm-362.677-.324c-.894-.914-1.808-1.808-2.749-2.672C1389.054,1468.254,1389.97,1469.148,1390.9,1470.091Zm373.553-3.026,5.013-18.53v-.02Zm-380.9-3.576c-.356-.275-.71-.55-1.068-.825v.02C1382.837,1462.939,1383.193,1463.214,1383.552,1463.489Zm327.494-4.274c-.123-.324-.246-.639-.368-.963C1710.8,1458.576,1710.923,1458.891,1711.046,1459.215Zm10.557-.324a32.2,32.2,0,0,1-1.3-10.228A32.061,32.061,0,0,0,1721.6,1458.891Zm-40.064-29.829q-14.5,4.1-16.354,26.39,1.883-22.327,16.354-26.39a13.992,13.992,0,0,1,3.191-.481A13.952,13.952,0,0,0,1681.539,1429.062Zm-344,6.917c0,1.9.921,4.932,2.815,9.108a60.79,60.79,0,0,1,2.2,7.212,63.764,63.764,0,0,0-2.174-7.212q-2.844-6.263-2.844-9.108c-1-.285-1.992-.54-2.962-.776C1335.549,1435.438,1336.537,1435.694,1337.542,1435.979Zm-39.9,15.71Zm632.024-8.469c4.6-4.628,7.133-9.776,7.548-15.406-.442,5.63-2.952,10.778-7.548,15.376-5.121,5.129-11.581,7.565-19.308,7.3C1918.088,1450.756,1924.547,1448.319,1929.669,1443.22Zm-20.728,7.182q-18.518-1.577-22.932-16.319C1888.934,1443.917,1896.6,1449.38,1908.94,1450.4Zm-663.756-6.543a32.348,32.348,0,0,0-3.12-1.582C1243.165,1442.778,1244.2,1443.308,1245.184,1443.858Zm485.335-15.435c-6.074,3.566-9.444,8.7-10.058,15.386q.962-10.036,10.058-15.386Zm-490.016-.314c-.022,9.55.413,14.305,1.287,14.305-.87-.01-1.287-4.765-1.287-14.305,0-.285,0-.57.012-.855C1240.507,1427.539,1240.5,1427.824,1240.5,1428.109Zm1.481,14.236a.506.506,0,0,1,.081-.069A.506.506,0,0,0,1241.984,1442.345Zm46.86-14.236-3.431,14.168,3.458-14.168q-16.3-22.327-29.364-22.342Q1272.586,1405.782,1288.844,1428.109Zm478.732,11.937c.115.481.226.953.334,1.4-.108-.452-.219-.923-.334-1.4-.042-.157-.081-.3-.115-.452C1767.5,1439.742,1767.534,1439.889,1767.576,1440.046Zm197.588-31.705q-5.018,1.238-5.961,12.871c-.644,7.546.219,12.232,2.505,14.128q-3.43-2.844-2.505-14.128.958-11.628,5.961-12.871c2.088-.649,5.431-.953,10.058-.953a30.178,30.178,0,0,1,9.53,8.843,29.947,29.947,0,0,0-9.53-8.843C1970.595,1407.388,1967.252,1407.693,1965.164,1408.341Zm-634.23,26.075a50.857,50.857,0,0,0-9.3-.924A50.816,50.816,0,0,1,1330.934,1434.417Zm435.031-3.655a9.219,9.219,0,0,1,.049-1.081A9.219,9.219,0,0,0,1765.965,1430.762Zm219.62-.914,3.149-7.054c-.005-.01-.005-.01-.01-.01Zm-219.571-.167q-12.357-4.731-21.691-4.726Q1753.663,1424.955,1766.014,1429.681Zm-80.169-1.1c-.224,0-.445-.01-.663-.01C1685.4,1428.571,1685.621,1428.581,1685.845,1428.581Zm199.45-2.712a8.6,8.6,0,0,0-.459-2.643A8.5,8.5,0,0,1,1885.294,1425.869Zm27.741-24.16q24.309,2.034,24.356,22.5-.022-20.485-24.356-22.5l-1.078-.088Zm-28.276,21.694Zm121.891-.609c.781-.3,1.54-.639,2.279-.983-.742.344-1.506.668-2.279.953-6.3-3.124-10.869-6.593-13.821-10.355Q1997.217,1418.053,2006.65,1422.794Zm-295.911-1.277c5.848-3.959,12.343-10.061,19.476-18.225C1723.054,1411.456,1716.587,1417.527,1710.739,1421.516Zm298.8-.01c.047-.02.091-.049.135-.069C2009.634,1421.458,2009.59,1421.487,2009.543,1421.507Zm.948-.491.115-.059Zm.833-.472c.125-.069.25-.147.368-.226C2011.575,1420.4,2011.449,1420.475,2011.324,1420.544Zm8.5-7.526a29.605,29.605,0,0,1-7.931,7.192,28.8,28.8,0,0,0,7.931-7.162,21.916,21.916,0,0,0,4.112-6.416A22.353,22.353,0,0,1,2019.825,1413.018Zm-125.654-15.691c3.569-5.875,5.573-11.112,5.966-15.71.13-1.592.2-3.134.209-4.608-.007,1.474-.079,3-.209,4.578-.393,4.628-2.4,9.835-5.966,15.71-5.541,8.243-12.851,12.37-21.861,12.38Q1885.858,1409.677,1894.171,1397.327Zm-47.749-4.068q5.346,14.752,23.261,16.3c-11.95-1.032-19.67-6.484-23.261-16.319a32.507,32.507,0,0,1-2.107-11.9A32.613,32.613,0,0,0,1846.422,1393.26Zm-132.227-11q7.52,6.617,16.02,21.035-8.485-14.428-16.02-21.035Zm277.99,19.453Zm-297.8-1.562c.044-.354.081-.7.123-1.032C1694.464,1399.449,1694.427,1399.793,1694.382,1400.147Zm335.03-6.259h0Zm.258-.01a.357.357,0,0,0,.1-.01A.357.357,0,0,1,2029.67,1393.879Zm-11.218-.157c-.066-.069-.138-.138-.2-.206C2018.315,1393.584,2018.386,1393.653,2018.452,1393.722Zm5.539-.147c-1.714-.177-3.424-.393-5.126-.658C2020.429,1393.181,2022.141,1393.4,2023.991,1393.574Zm-6.089-.393c-.182-.187-.364-.354-.548-.531h0C2017.538,1392.828,2017.72,1392.995,2017.9,1393.181Zm-19.11-.255a59.852,59.852,0,0,1,6.268-4.068c.209-.1.417-.206.621-.295-.2.088-.413.2-.621.295A59.852,59.852,0,0,0,1998.792,1392.926Zm6.268-4.068a63.445,63.445,0,0,1-5.507-3.6A56.7,56.7,0,0,0,2005.061,1388.858Zm18.22-17.636c-11.731,5.689-19.977,10.061-24.8,13.2.007.01.015.02.02.02,4.824-3.144,13.062-7.546,24.779-13.195,12.76-5.649,20.421-8.361,22.929-8.135l1.891-2.535c1.034-.2,1.23,3.37.616,10.67a27.786,27.786,0,0,1-1.876,8.174,27.851,27.851,0,0,0,1.9-8.2c.614-7.3.417-10.866-.644-10.67l-1.891,2.535a3.008,3.008,0,0,0-.3-.01Q2041.728,1363.077,2023.281,1371.222Zm-309.711,10.866c-.344-.079-.683-.157-1.017-.226C1712.888,1381.932,1713.227,1382.01,1713.571,1382.089Zm-1.177-.265a22.978,22.978,0,0,0-2.567-.393A22.978,22.978,0,0,1,1712.394,1381.823Zm207.332-.393q-2.255-2.329-2.22-9.393C1917.486,1376.764,1918.223,1379.878,1919.726,1381.431Zm-210.095-.02c-.057,0-.111-.01-.17-.01C1709.52,1381.4,1709.574,1381.411,1709.631,1381.411Zm134.922-4.5c-.02.187-.039.373-.054.57.015-.2.034-.383.054-.57Zm108.072-14.128a67.8,67.8,0,0,0,20.117,7.86q42.079,12.866,69.735-21.988a30.912,30.912,0,0,0,6.268-18.215,152.346,152.346,0,0,0-9.108-57.142,88.787,88.787,0,0,0-22.932-16.968q-39.913-19.144-73.191,12.566v8.165a55,55,0,0,0,3.456,13.175q12.578,29.549,44.6,34.545a62.229,62.229,0,0,1-15.435-21.369c-1.641-3.989-3.227-8.273-4.709-12.871a12.109,12.109,0,0,1,0-6.6c.337-.835.671-1.67.948-2.535l6.6-12.871a40.023,40.023,0,0,1,2.842-3.154h.307c1.668-.825,3.34-1.641,5.013-2.505l5.35,3.144a36.276,36.276,0,0,1,8.774,7.221q-5.928,10.36-12.227,29.534c4.178-12.763,8.275-22.627,12.259-29.5a35.969,35.969,0,0,0-8.806-7.251l-5.35-3.144c5.878-1.857,13.318-1.032,22.318,2.535a161.85,161.85,0,0,1,15.71,9.412q16.344,9.756,17.277,31.43,1.253,27.957-18.832,44.91a39.725,39.725,0,0,1-17.277,7.555,131.7,131.7,0,0,1-48.086-3.154q-8.15-.619-14.128-7.516a113.713,113.713,0,0,0-19.471-16.359Q1934.725,1352.717,1952.625,1362.783Zm-5.684,6.583Zm-23.234-14.777c-3.372,1.061-5.35,5.355-5.993,12.9.643-7.526,2.621-11.81,5.993-12.871,2.088-.835,5.32-1.14,9.722-.943-.926-.049-1.8-.079-2.623-.079A19.894,19.894,0,0,0,1923.707,1354.589Zm236.158,4.814a20.864,20.864,0,0,1-6.531-8.243A20.753,20.753,0,0,0,2159.866,1359.4Zm-8.037-14.374a86.155,86.155,0,0,1-.7-9.579A85.786,85.786,0,0,0,2151.829,1345.029Zm26.608-37.217q-27.482.619-27.316,26.8-.177-26.174,27.343-26.8c.636-.02,1.265-.029,1.882-.029h-.02Q2179.4,1307.782,2178.437,1307.812Zm-473.775,25.211a50.807,50.807,0,0,1-8.221.54A50.807,50.807,0,0,0,1704.662,1333.023Zm-22.511-.688,1.562.609-1.587-.639a.72.72,0,0,1-.172-.108A.715.715,0,0,0,1682.15,1332.335Zm701.121-.619c7.325-.226,12.76-2.722,16.354-7.555,1.643-2.535,3.621-5.954,5.961-10.385a75.448,75.448,0,0,1-3.125-8.7,77.8,77.8,0,0,0,3.1,8.7c-1.81,3.537-3.817,6.986-5.964,10.365-3.564,4.854-9,7.349-16.324,7.546a74.15,74.15,0,0,1-11.129-.275A76.218,76.218,0,0,0,2383.271,1331.716Zm-11.21-.324c-.062-.01-.128-.01-.189-.02C2371.933,1331.382,2372,1331.382,2372.061,1331.392Zm-.31-.039a.753.753,0,0,1-.145-.02A.753.753,0,0,0,2371.751,1331.353Zm-.346-.049c-.02,0-.039-.01-.054-.01C2371.371,1331.294,2371.385,1331.3,2371.405,1331.3Zm-.285-.049c-.012,0-.02-.01-.027-.01S2371.108,1331.254,2371.12,1331.254Zm-.747-.147h0Zm-.223-.039c-.008-.01-.012-.01-.017-.01S2370.142,1331.058,2370.15,1331.068Zm-.231-.069Zm-.4-.108h0Zm-.142-.039a.161.161,0,0,1-.062-.02A.161.161,0,0,0,2369.381,1330.851Zm-272.3-7.015a23.368,23.368,0,0,0,2.626,3.586,22.936,22.936,0,0,1-2.594-3.557,24.893,24.893,0,0,1-3.692-11.574A24.95,24.95,0,0,0,2097.082,1323.836Zm267.151,3.439c-.464-.3-.928-.609-1.385-.933C2363.186,1326.6,2363.651,1326.912,2364.233,1327.275Zm-655.722-13.8,2.228,10.974-2.2-10.974a66.347,66.347,0,0,0-7.317-2.191Q1704.732,1312.15,1708.511,1313.471Zm439.474,9.108a33.957,33.957,0,0,0,4.286-12.35A34.568,34.568,0,0,1,2147.985,1322.579Zm-466.473-1.592Zm520.216-4.588a20.474,20.474,0,0,0-11.093-7.32A20.545,20.545,0,0,1,2201.728,1316.4Zm32.015-5.767c-4.178-3.567-9.334-7.634-15.381-12.232Q2227.432,1305.3,2233.742,1310.632Zm-81.464-.481a.643.643,0,0,0,.007-.089A.643.643,0,0,1,2152.278,1310.15Zm-468.259-.776-.612-.943s-.007.01-.015.02Zm506.392-.364a.858.858,0,0,1-.152-.039A.858.858,0,0,0,2190.412,1309.01Zm-38.025-.865v-.03a34.174,34.174,0,0,0-2.356-11.957A34.253,34.253,0,0,1,2152.386,1308.146Zm-30.48-26.1q-28.583.6-28.613,26,.03-25.378,28.613-25.967,11.706-.383,18.916,3.635-6.614-3.684-17-3.694C2123.191,1282.011,2122.555,1282.021,2121.907,1282.041Zm-140.512,21.585c-1.594,0-3.348-.069-5.256-.216C1978.047,1303.558,1979.8,1303.626,1981.395,1303.626Zm1.157-.02c.563-.01,1.1-.039,1.624-.069C1983.655,1303.568,1983.114,1303.6,1982.552,1303.607Zm1.624-.069a24.093,24.093,0,0,0,4.107-.57A24.093,24.093,0,0,1,1984.175,1303.538Zm417.412-2.584c-.032-.226-.054-.452-.074-.668C2401.533,1300.5,2401.555,1300.728,2401.587,1300.954Zm-.1-1a145.06,145.06,0,0,0-16.656-.973A145.353,145.353,0,0,1,2401.491,1299.952Zm-29.025-.226q.9-.147,1.879-.295C2373.689,1299.529,2373.065,1299.628,2372.466,1299.726Zm2.611-.413Zm-225.061-3.193c-.061-.147-.123-.295-.184-.432C2149.893,1295.825,2149.955,1295.973,2150.016,1296.12Zm-.258-.6c-.042-.089-.086-.177-.123-.265C2149.672,1295.344,2149.717,1295.432,2149.758,1295.521Zm-.278-.6c-.012-.02-.022-.049-.034-.069C2149.458,1294.872,2149.468,1294.9,2149.481,1294.922Zm74.51-10.061c-6.465,4.618-9.727,7.654-9.727,9.137,0-1.484,3.262-4.519,9.727-9.137,5.878-4.382,8.83-9.01,8.83-13.794C2232.821,1275.851,2229.869,1280.479,2223.991,1284.861Zm18.859-5.021q7.859,7.855,9.42,13.215-1.551-5.364-9.42-13.215c-1.609-1.631-3.289-3.2-5.021-4.706Q2240.265,1277.271,2242.85,1279.84Zm-101.5,6.17c-.108-.069-.216-.128-.324-.187C2141.134,1285.883,2141.242,1285.942,2141.351,1286.01Zm14.492-37.875c-5.657,3.959-8.385,8.8-8.165,14.462q0,5.011,6.268,9.717c2.734,2.093,8.386,5.993,16.968,11.623,2.314-.609,5.77-1.67,10.363-3.154a39.429,39.429,0,0,1,6.588-2.034,38.177,38.177,0,0,0-6.556,2c-4.6,1.484-8.081,2.535-10.395,3.154-8.555-5.62-14.234-9.52-16.941-11.613-4.2-3.124-6.3-6.386-6.3-9.727-.194-5.63,2.508-10.474,8.165-14.433Zm32.172,30.585h0Zm-92.539-22.371a38.525,38.525,0,0,0-3.714-1.975Q2093.755,1255.317,2095.475,1256.349Zm-4.038-1.769a.232.232,0,0,1-.081-.01A.232.232,0,0,0,2091.437,1254.58Zm-.943-2.79q-.457-3.463-.6-11.2Q2090.042,1248.326,2090.494,1251.79Zm66.891-4.628c.049-.029.1-.059.157-.1C2157.488,1247.1,2157.434,1247.133,2157.385,1247.162Zm.226-.128q.405-.221.823-.442Q2158.017,1246.813,2157.611,1247.035Zm.85-.452c.137-.079.28-.147.427-.216C2158.741,1246.435,2158.6,1246.5,2158.461,1246.583Zm.454-.226c.3-.147.592-.285.9-.413C2159.507,1246.072,2159.212,1246.209,2158.915,1246.357Zm1.051-.481c.1-.039.209-.089.317-.128C2160.175,1245.787,2160.07,1245.836,2159.966,1245.875Zm.6-.246c.062-.029.128-.049.192-.079C2160.7,1245.58,2160.63,1245.6,2160.568,1245.63Zm.639-.246a.044.044,0,0,0,.034-.01A.044.044,0,0,1,2161.207,1245.384Zm.454-.157a.223.223,0,0,1,.074-.02A.239.239,0,0,0,2161.661,1245.227Zm-60.787-25.7c-7.745,4.814-11.427,11.839-10.979,21.065q-.623-13.839,10.979-21.065Zm28.515,9.235q-13.208-13.308-23.72-11.122a15.332,15.332,0,0,1,3.006-.3Q2118.022,1217.334,2129.389,1228.76Zm-195.878-1.071q8.353-8.371,22.853-13.892Q1941.865,1219.308,1933.51,1227.689Zm-217.758-100.2c6.244-2.446,12.539-4.863,18.837-7.212a49.1,49.1,0,0,0,15.406-7.555q10.655-7.221,17.582-20.416,9.4-17.6,11.616-42.071a17.124,17.124,0,0,1,.334-3.488l3.76.344a10.549,10.549,0,0,0,.948,3.144,10.549,10.549,0,0,1-.948-3.144l-3.76-.344q1.883-32.29-8.5-59.972-19.181-50.284-74.778-54.951c-3.318-.226-9.5.275-18.527,1.562q-9.406,1.886-16.663,2.82,18.267,39.909,29.561,96.422,10.994,52.775,17.275,81.046a48.51,48.51,0,0,0-5.035,4.912,62.615,62.615,0,0,1,5.062-4.912c.614,3.124,1.226,5.846,1.867,8.165a4.723,4.723,0,0,1,2.508,0,69.677,69.677,0,0,0,22.317-1.592C1728.959,1122.375,1722.661,1124.772,1715.752,1127.494Zm-16.02-5.011,16.02,5.011-16-5.03C1699.744,1122.473,1699.74,1122.483,1699.732,1122.483Zm50.262-9.756c7.938-4.176,14.123-8.381,18.525-12.556Q1761.917,1106.434,1749.994,1112.727Zm-531.5-26.046Zm22.008-2.535a2.955,2.955,0,0,1,1.3,2.053A2.955,2.955,0,0,0,1240.5,1084.146Zm-22.3-.157a6.692,6.692,0,0,0-1.911-2.957A7.345,7.345,0,0,1,1218.2,1083.989Zm-1.911-2.957c0-.157,0-.314,0-.452C1216.294,1080.717,1216.294,1080.874,1216.294,1081.032Zm396.121-5.659c1.258.226,4.183.609,8.779,1.228q-4.388-.589-8.779-1.258-1.728-.722-1.727-7.408Q1610.688,1074.626,1612.415,1075.372Zm-372.247-10.09q3.762,4.731,3.761,6.937,0-2.211-3.761-6.937a23.5,23.5,0,0,0-10.029-7.83c-.007.01-.01.01-.017.01A23.39,23.39,0,0,1,1240.168,1065.282Zm-19.473.953c-.427.727-.82,1.454-1.186,2.181.366-.707.759-1.434,1.186-2.152a23.116,23.116,0,0,1,4.483-6.052A23.091,23.091,0,0,0,1220.7,1066.235Zm410.557-10.336,2.2,10.974-2.2-10.974a23.306,23.306,0,0,0-5.075-2.2A25.359,25.359,0,0,1,1631.252,1055.9Zm-20.424,7.83c-.012.216-.025.432-.034.649.01-.216.022-.432.034-.649.644-7.3,1.368-11.4,2.2-12.232l.307.943-.307-.943C1612.2,1052.333,1611.44,1056.43,1610.828,1063.73Zm10.058-10.974Zm-34.24-3.154Zm-315.08-37.079q0,9.108-6.6,16.958c-5.237,6.082-12.232,9.118-21.038,9.118q13.208,0,21.065-9.118c4.372-5.227,6.6-10.866,6.6-16.938q0-14.914-15.492-21.114Q1271.565,997.632,1271.567,1012.522Zm-55.273-.589,3.453,18.805-3.449-18.815S1216.294,1011.923,1216.294,1011.932Zm-14.126,7.831-5.043-9.412a74.689,74.689,0,0,0-10.365,2.81c-.5.265-1,.55-1.5.865.5-.314,1-.6,1.5-.865a74.689,74.689,0,0,1,10.365-2.81Zm421.254-7.86,5.961-13.824h0Zm-21.251-1.444q-2.255-2.329-2.22-9.589Q1599.92,1008.12,1602.17,1010.459Zm-183.577-.079a31.539,31.539,0,0,0-3.154-1.621C1416.554,1009.28,1417.6,1009.81,1418.593,1010.38Zm-3.419-1.484q-1.242-.029-1.29-13.391C1413.906,1004.446,1414.326,1008.906,1415.174,1008.9Zm48.941-14.266a105.327,105.327,0,0,1-4.126,12.262,104.616,104.616,0,0,0,4.154-12.262q-22.943-28.93-38.612-20.446a24.464,24.464,0,0,0-5.635,4.3,24.924,24.924,0,0,1,5.6-4.284,15.665,15.665,0,0,1,7.509-1.926Q1446.41,972.279,1464.114,994.631Zm334.244,12.252c6.909-2.525,11.539-6.907,13.819-13.165a.12.12,0,0,0,0-.029c-2.284,6.268-6.907,10.67-13.816,13.175l-14.43-6.573Zm-16.1-4.362h0Zm-.221-.039c-.835.157-1.262-1.4-1.262-4.608C1780.771,1001.1,1781.2,1002.638,1782.034,1002.481Zm.744-.177a3.158,3.158,0,0,0,.678-.943A3.158,3.158,0,0,1,1782.778,1002.3Zm1-1.651c.049-.108.1-.236.15-.364C1783.876,1000.418,1783.827,1000.545,1783.778,1000.653Zm-369.894-6.023a29.327,29.327,0,0,1,.319-4.392A29.327,29.327,0,0,0,1413.884,994.631Zm367.2-2.839Zm-527.4-1.258c.184.069.371.128.555.187-.184-.059-.371-.118-.555-.187Zm-2.282-.6a.034.034,0,0,1-.029-.01C1251.379,989.934,1251.389,989.934,1251.4,989.934Zm364.473-7.231a23.711,23.711,0,0,1,2.4,1.444,23.711,23.711,0,0,0-2.4-1.444c-1.145-.069-2.206-.1-3.191-.1C1613.668,982.6,1614.731,982.634,1615.873,982.7Zm-9.751.609a5.824,5.824,0,0,0-1.191.55,5.824,5.824,0,0,1,1.191-.55Zm-202.606-5.954a56.081,56.081,0,0,0,5.959-1.415Q1406.528,976.754,1403.516,977.358ZM1226.657,962.9c-3.564,1.248-5.323,5.237-5.323,11.927,0-6.691,1.759-10.68,5.323-11.927Zm25.768,11.309Zm-138.854-.3c.838-.629,1.678-1.228,2.52-1.808C1115.249,972.662,1114.409,973.261,1113.571,973.9Zm6.909-2.23-.3-1.867h0l-.3-1.552h-3.763l4.163,3.282ZM1623.7,954.731q2.509,2.844,13.18,15.072c.007,0,.012-.01.02-.01-4.372-5.04-8.771-10.041-13.168-15.062-2.12-2.918-3.181-4.814-3.181-5.649C1620.55,949.917,1621.611,951.813,1623.7,954.731Zm-153.287,12.881c-1.869-.422-2.817-3.763-2.817-10.061C1467.595,963.849,1468.516,967.19,1470.412,967.612Zm-83.25-2.181q-6.267-5.055-6.266-10.051C1380.9,958.711,1382.984,962.09,1387.163,965.431Zm255.848-.128c.007-.01.015-.01.022-.02C1643.025,965.293,1643.017,965.293,1643.01,965.3Zm.047-.039a121.664,121.664,0,0,0,13.325-13.342A125.476,125.476,0,0,1,1643.057,965.264Zm-405.482-3.419c-.174-.069-.351-.138-.526-.2C1237.224,961.707,1237.4,961.776,1237.575,961.845Zm531.559-2.407c.007,0,.015-.01.017-.01-10.547-11.977-15.892-18.913-16.037-20.878Q1753.331,941.5,1769.133,959.438Zm-301.539-1.886c0-6.445.3-10.09.936-10.965l-.015-.02C1467.9,947.382,1467.595,951.057,1467.595,957.551Zm-46.8-17.891c0,1.867.943,4.932,2.812,9.108a62.084,62.084,0,0,1,2.2,7.221,62.084,62.084,0,0,0-2.2-7.221c-1.869-4.176-2.812-7.241-2.812-9.108Zm-31.43,1.562c-5.654,3.763-8.467,8.5-8.467,14.158,0-5.659,2.812-10.395,8.467-14.158a27.249,27.249,0,0,1,13.76-4.009A27.249,27.249,0,0,0,1389.363,941.222Zm166.5-3.124q5.641,14.752,23.236,16.329,12.781,1.046,21-8.066-8.231,9.093-21,8.037-17.593-1.547-23.236-16.319a32.344,32.344,0,0,1-2.25-8.921A31.132,31.132,0,0,0,1555.86,938.1Zm84.168-7.546q7.855,7.221,16.354,21.369-8.485-14.163-16.354-21.369c-.472-.118-.933-.226-1.385-.3C1639.095,930.326,1639.557,930.434,1640.028,930.552ZM1213.145,950.33q2.026-.722,4.014-1.415Q1215.169,949.608,1213.145,950.33Zm407.405-1.248Zm-132.227,0Zm-19.166-1.562q1.883,0,7.858-.314Q1471.035,947.515,1469.157,947.52Zm-24.182,0a28.3,28.3,0,0,0,13.2-9.422A28.435,28.435,0,0,1,1444.975,947.52Zm155.124-1.159c.184-.206.373-.422.56-.639C1600.473,945.938,1600.284,946.154,1600.1,946.361Zm.629-.727c.162-.187.324-.373.481-.58C1601.052,945.26,1600.89,945.447,1600.728,945.633Zm.484-.58c.364-.452.717-.914,1.068-1.4C1601.929,944.14,1601.576,944.6,1601.212,945.054Zm1.145-1.5c.322-.442.641-.9.948-1.385C1603,942.647,1602.678,943.108,1602.357,943.551Zm1.277-1.926c3.336-5.659,5.229-10.69,5.632-15.17C1608.863,930.906,1606.97,935.966,1603.634,941.625Zm185.309-.1Zm-33.6-15.072c-1.059,2.093-1.783,6.072-2.23,11.928,0,.02,0,.059,0,.079,0-.02,0-.059,0-.079.447-5.856,1.172-9.835,2.23-11.928,2.193-4.706,5.986-7.044,11.365-7.054h0C1761.32,919.4,1757.518,921.749,1755.344,926.455ZM1405.7,937.184h0Zm28.266-15.13q-6.267,4.731-6.266,8.165,0-3.434,6.266-8.165,5.976-4.716,11.006-5.964a36.812,36.812,0,0,1,17.272,12.566v-.029a36.761,36.761,0,0,0-17.272-12.537Q1439.957,917.342,1433.969,922.054Zm150.17-28.276q27.622,2.211,25.127,32.678,2.509-30.462-25.127-32.678c-.884-.079-1.746-.138-2.594-.167C1582.392,893.64,1583.255,893.7,1584.139,893.777Zm-30.48,27.962q2.284-27.692,25.633-28.149Q1555.952,894.033,1553.659,921.739Zm218.957-1.552c-.265-.059-.533-.128-.793-.187C1772.083,920.059,1772.351,920.128,1772.616,920.187Zm-110.5-10.68h0Zm-.725-.02a39.722,39.722,0,0,1-11.923-10.365A38.926,38.926,0,0,0,1661.4,909.487Zm3.353-.246a26.072,26.072,0,0,0,6.666-2.437A26.072,26.072,0,0,1,1664.748,909.242Zm7.118-2.663c.683-.364,1.38-.747,2.1-1.159C1673.246,905.832,1672.549,906.216,1671.866,906.579Zm398.88-6.819q10.066-.074,10.958-2.505C2081.082,898.857,2077.456,899.711,2070.746,899.761Zm-421.273-.639Zm409-1.248Zm22.008-2.82a2.251,2.251,0,0,1,1.282,1.729A2.208,2.208,0,0,0,2080.477,895.054Zm-22.008,1.67a5.376,5.376,0,0,0-1.015-2.653A5.412,5.412,0,0,1,2058.469,896.725Zm-376.01-.108a21.358,21.358,0,0,0-9.326-13.853A21.466,21.466,0,0,1,1682.46,896.617Zm374.946-2.623a.419.419,0,0,1-.054-.069A.419.419,0,0,0,2057.406,893.993Zm-476.868-.4c-.165,0-.334-.01-.5-.01C1580.2,893.581,1580.368,893.591,1580.538,893.591Zm498.964-17.4c2.508,2.957,3.874,5.129,4.1,6.612-.223-1.484-1.589-3.655-4.1-6.612a22.638,22.638,0,0,0-10.363-8.165c-3.564,1.061-6.6,4.185-9.11,9.442,2.505-5.256,5.546-8.381,9.11-9.442A22.914,22.914,0,0,1,2079.5,876.19ZM2067.887,847c2.375,1.258,6.4,1.906,12.109,1.906-5.684,0-9.707-.648-12.082-1.906q-4.764-2.888-9.754-5.355C2061.505,843.316,2064.738,845.1,2067.887,847Zm-43.353-21.988c-3.761,2.319-7.774,6.16-11.923,11.594,0,0,.007,0,.01.01,4.176-5.453,8.155-9.294,11.913-11.6a93.582,93.582,0,0,1,10.365-3.144l5.318,9.412-5.318-9.412A93.582,93.582,0,0,0,2024.534,825.012Zm29.534-1.926q13.875-23.8,30.406-23.835h-.012Q2067.937,799.251,2054.068,823.086Zm221.77-1.533c11.955-.216,18.945-3.144,21.035-8.8a88.78,88.78,0,0,0,4.4-14.128h-.007a88.47,88.47,0,0,1-4.4,14.109c-2.09,5.679-9.081,8.577-21.035,8.8-6.33.2-10.751-.206-13.222-1.277C2265.084,821.328,2269.48,821.74,2275.837,821.554Zm-13.3-1.326-.128-.059Zm-.187-.079a.934.934,0,0,0-.143-.069A.934.934,0,0,1,2262.35,820.149Zm-3.409-2.594c-.039-.029-.079-.049-.115-.079C2258.862,817.506,2258.9,817.526,2258.941,817.555Zm-.329-.226a36.256,36.256,0,0,0-5.367-3.006h-.012A40.278,40.278,0,0,1,2258.612,817.329Zm-7.263-17.135q.265,14.369,1.557,14.315c-.852-.069-1.356-4.834-1.557-14.344-.007-.285-.007-.57-.007-.845C2251.336,799.6,2251.341,799.9,2251.349,800.194ZM2101.36,805.47a28.509,28.509,0,0,0-4.871-3.075A28.711,28.711,0,0,1,2101.36,805.47Zm-5.067-3.174h0Zm-22.676-2.171c-5.78-.629-9.552-1.444-11.387-2.437Q2064.941,799.177,2073.617,800.125Zm-24.258-38.887q-58.736,22.283-79.366,29.917,20.669-7.619,79.366-29.917Zm-92.026,23.875-.334-1.9-.3-1.582h-3.763l4.237,3.37Zm105.844-11.643c-3.318,1.2-5.018,4.755-5.038,10.729.02-5.974,1.719-9.53,5.038-10.729,2.088-.806,5.541-1.336,10.363-1.562q8.477,2.844,15.708,11.947l.007-.02q-7.232-9.064-15.715-11.928C2068.719,772.134,2065.266,772.635,2063.178,773.47Zm177.164,9.452a65.826,65.826,0,0,0,10.67-3.154,33.87,33.87,0,0,1,7.6-1.886,34.462,34.462,0,0,0-7.6,1.857,63.646,63.646,0,0,1-10.67,3.154q-10.283-6.661-14.887-9.982Q2230.053,776.241,2240.342,782.922Zm-282.608-.147q11.573-7.074,32.865-15.907Q1969.3,775.7,1957.734,782.775Zm304.285-3.321c.39-.216.783-.432,1.184-.629C2262.8,779.021,2262.409,779.238,2262.019,779.454Zm2.788-1.317a14.929,14.929,0,0,1,2.422-.648A14.929,14.929,0,0,0,2264.806,778.137Zm51.205-6.534h0c-2.4-.108-4.362-.167-5.878-.167C2311.662,771.437,2313.624,771.5,2316.012,771.6Zm-12.23-10.061c0,6.268,1.032,9.619,3.122,10.061h.017c-2.083-.452-3.11-3.773-3.11-10.061-.224-6.435,0-10.11.6-10.974l-.015-.029C2303.782,751.384,2303.588,755.058,2303.782,761.543Zm-82.441,7.968q-3.994-3.994-4.232-7.968Q2217.341,765.551,2221.341,769.511Zm103.99-4.146q1.381-1.71,2.635-3.508Q2326.433,763.965,2325.331,765.365ZM2327.966,761.857Zm-110.858-.314Zm39.563-16.663c0,1.877.948,4.932,2.813,9.118a60.445,60.445,0,0,1,2.23,6.907,63.335,63.335,0,0,0-2.2-6.907c-1.891-4.185-2.812-7.221-2.812-9.118a63.4,63.4,0,0,0-13.843-1.995A63.11,63.11,0,0,1,2256.671,744.88Zm67.542,7.546-.007-.02a44.431,44.431,0,0,0-11.311-1.552l-1.53.177c.494-.049,1.01-.1,1.557-.147A41.9,41.9,0,0,1,2324.213,752.425Zm-19.149-.933c.683,0,1.773-.069,3.264-.187C2307.243,751.384,2306.152,751.443,2305.064,751.492Zm-62.448-8.607c-.2,0-.4-.01-.594-.01C2242.219,742.875,2242.415,742.885,2242.617,742.885Zm26.621-16.221c-4.208,3.37-6.271,6.19-6.271,8.5,0-2.289,2.09-5.129,6.271-8.469q5.641-5.055,10.67-6.3a36.834,36.834,0,0,1,17.609,12.262c0,.049,0,.1.007.147,0-.049,0-.118-.007-.177a36.983,36.983,0,0,0-17.609-12.232Q2274.889,721.648,2269.237,726.664Zm-1114.18,828.669v-.314c.079.393.192.816.3,1.258A1.668,1.668,0,0,1,1155.057,1555.333ZM15.381,977.663q106.191-44.3,123.478-164.293a1104.919,1104.919,0,0,0-.332-314.134A1014.522,1014.522,0,0,0,113.7,379.881Q102.417,337.172,71.939,302.9A114.318,114.318,0,0,0,8.472,266.147l-.614-4.7-2.505-8.174A1696.627,1696.627,0,0,0,264.513,153.091a42.458,42.458,0,0,1,30.757-2.545v-.128c1.169.393,2.368.806,3.623,1.258l1.086.472A1867.28,1867.28,0,0,0,474.4,541.5c.032.049.066.088.1.138q38.7,65.066,82.466,126.909,9.447-228.062-58.424-441.653a243.661,243.661,0,0,0-45.885-83.247q-9.362-11.5-19.142-22.617c-1.867-2.152-3.761-4.323-5.657-6.435-.3-.364-.612-.727-.946-1.091.334.364.641.727.946,1.091,1.9,2.112,3.763,4.264,5.63,6.435a39,39,0,0,1-5.013.295c-.42,1.071-.948,1.484-1.592,1.287-1.029-.639-1.557-4.205-1.557-10.69q0-9.417,38.308-21.379a169.349,169.349,0,0,1,32.206-7.054c2.076-.855,4.151-1.68,6.251-2.505-3.566-.786-5.586-1.975-6.084-3.586a17.04,17.04,0,0,0,5.016-2.23,15.772,15.772,0,0,1,5.991-.924l4.095,1.877,1.363.786c.01,0,.02-.01.029-.01A575.677,575.677,0,0,1,654.646,43.1l.948,3.792,5.32,3.763Q546.283,345.612,613.8,660.385a1033.236,1033.236,0,0,1,18.527,122.174q6.934,78.86,16.354,155.52l2.815,1.827a22.643,22.643,0,0,0-5.657,8.194,13.947,13.947,0,0,1-4.4,5.659,15.862,15.862,0,0,1-3.763,2.2c-2.729.609-5.46,1.366-8.162,2.171l-167.749,1.287Q384.786,657.255,187.534,421.981q-1.547,241.842,63.772,472.13a95.828,95.828,0,0,0,38.951,54.018,117.645,117.645,0,0,1,24.823,22.932A1391.889,1391.889,0,0,1,134.725,982.8Q75.005,982.8,15.381,977.663Zm191.627-17.606c-.3-.59-.582-1.169-.842-1.778C206.425,958.887,206.705,959.477,207.008,960.057Zm11-4.677c5.853,0,11.62-2.122,17.275-6.3,7.327-5.433,11.006-12.576,11.006-21.369a43.9,43.9,0,0,0-.307-5.168c-.01-.01-.02-.02-.029-.02q-6.061-3.3-15.379-3.291h-.017q9.355,0,15.4,3.291a38.561,38.561,0,0,1,.307,5.188c0,8.793-3.65,15.936-10.977,21.369-5.654,4.176-11.422,6.3-17.275,6.3ZM204.5,952.845Zm52.8-6.917ZM175.609,911.05c-18.834,3.115-28.279,12.674-28.279,28.581q0-23.86,28.279-28.581,23.458-4.156,27.453,13.273-3.231-14.074-19.139-14.079A47.313,47.313,0,0,0,175.609,911.05Zm-39.256,25.456a26.744,26.744,0,0,0,11.923-9.4,27.071,27.071,0,0,1-11.937,9.4Zm67.532-4.087c0-.845-.02-1.651-.064-2.446C203.866,930.768,203.886,931.574,203.886,932.419Zm-.167-3.891c-.012-.108-.022-.236-.037-.354C203.7,928.292,203.706,928.42,203.719,928.528Zm-.145-1.307c-.01-.1-.027-.187-.037-.295C203.547,927.035,203.564,927.123,203.574,927.221Zm-.081-.6c-.015-.088-.027-.177-.042-.275C203.466,926.445,203.478,926.534,203.493,926.622Zm-.093-.589c-.022-.138-.047-.265-.069-.393C203.353,925.767,203.377,925.9,203.4,926.033Zm369.866-10.582q4.576,9.756,20.655,10.041-16.068-.295-20.625-10.041-1.651-3.286-1.867-9.953C571.568,909.939,572.192,913.26,573.266,915.451Zm-35.881,10.041q-15.765-.368-20.65-12.547Q521.595,925.119,537.385,925.492ZM203.3,925.453c-.027-.138-.054-.285-.081-.422C203.242,925.168,203.269,925.315,203.3,925.453Zm-.111-.57c-.027-.128-.056-.246-.084-.383C203.129,924.638,203.159,924.755,203.186,924.883Zm407.8-5.649a21.245,21.245,0,0,0,7.553-16.054A21.384,21.384,0,0,1,610.989,919.234ZM126.3,911.05c-3.79,3.115-5.657,5.875-5.657,8.165h0c.015-2.3,1.879-5.03,5.657-8.165Zm25.741,6.632v-.029a33.652,33.652,0,0,0-15.683-12.566A20.538,20.538,0,0,0,130.23,908a20.993,20.993,0,0,1,6.094-2.889A33.346,33.346,0,0,1,152.037,917.681ZM594.969,879.01q-23.569,0-23.57,24.513,0-24.494,23.57-24.513Zm23.57,23.56q0-1.091-.052-2.152Q618.539,901.48,618.539,902.571Zm-56.557-2.191c0-.334,0-.668,0-.992C561.979,899.711,561.982,900.046,561.982,900.38Zm-23.57-31.735q-23.573.339-23.57,30.173,0-29.843,23.57-30.173ZM172.4,898.778a1.873,1.873,0,0,1-.236-.01A1.873,1.873,0,0,0,172.4,898.778Zm-.661-.039-.489-.029Zm-.626-.049c-8.648-.737-14.475-4.9-17.488-12.438Q158.147,897.584,171.114,898.69Zm15.5-3.016a38.516,38.516,0,0,0,4.542-1.258,38.516,38.516,0,0,1-4.542,1.258Zm5.016-1.562a19.889,19.889,0,0,0,9.11-17.282A19.924,19.924,0,0,1,191.629,894.111ZM167.752,878.4c0,.825,1.142,2.309,3.453,4.4q1.264,1.105,4.443,3.773-2.229-1.886-4.443-3.773c-2.311-2.093-3.453-3.576-3.453-4.4ZM152.7,879.845a18.687,18.687,0,0,0-.624-3.331A18.687,18.687,0,0,1,152.7,879.845Zm444.254-.815c-.464-.02-.936-.02-1.415-.02C596.016,879.01,596.487,879.01,596.951,879.03Zm-396.212-2.2Zm-48.7-.157q.048-16.108,7.57-21.644Q152.058,860.554,152.037,876.672Zm387.871-8.007c-.354-.02-.707-.029-1.071-.029C539.2,868.635,539.554,868.645,539.907,868.665Zm-346.719-6.9a30.808,30.808,0,0,0-2.343-2.093C191.646,860.333,192.427,861.021,193.189,861.767ZM603.1,858.3c-.088.108-.179.2-.268.295.1-.108.2-.206.3-.314.3-.334.585-.678.867-1.012C603.711,857.611,603.414,857.965,603.1,858.3Zm-413.877.147h0a28.732,28.732,0,0,0-3-.147Q187.674,858.3,189.227,858.447Zm368.019-.472a22.316,22.316,0,0,0,2.842-.177A22.984,22.984,0,0,1,557.246,857.975Zm-37.669,0c5.657,0,11.4-1.985,17.275-5.964a8,8,0,0,0,.759-.619c0-.01-.012-.01-.015-.02a3.992,3.992,0,0,1-.774.609c-5.846,4.009-11.606,5.993-17.258,5.993Zm40.511-.177a22.67,22.67,0,0,0,16.327-8.931A22.776,22.776,0,0,1,560.088,857.8Zm43.935-.57c.066-.069.13-.157.194-.236C604.153,857.071,604.089,857.159,604.023,857.228Zm-115.871-3.969h.007q-8.172-1.253-10.677-2.839C479.152,851.481,482.719,852.434,488.152,853.259Zm122.5-14.119a27.23,27.23,0,0,1-3.552,13.627,27.236,27.236,0,0,0,3.579-13.657q0-32.673-28.276-30.792a30.1,30.1,0,0,0-10.4,2.387,30.382,30.382,0,0,1,10.375-2.358c1.027-.069,2.029-.1,3-.1Q610.669,808.251,610.655,839.14ZM477.482,850.42a4.3,4.3,0,0,1-.806-.658A4.3,4.3,0,0,0,477.482,850.42Zm-284.293-.914c1.113-.373,2.127-.717,3.043-1Q194.854,848.931,193.189,849.506Zm327.951-45.558c10.363,2.063,17.69,6.219,21.981,12.409a66.941,66.941,0,0,0-11,14.924L534.742,847l-2.6-15.69a66.4,66.4,0,0,1,10.977-14.934c7.3-7.044,14.934-9.216,22.958-6.435a27.612,27.612,0,0,1,3.9,1.7q12.409,6.308,12.4,20.259,0-13.971-12.4-20.259h.012a31.853,31.853,0,0,0-3.913-1.749q-12.037-4.141-22.958,6.465c-4.291-6.219-11.618-10.346-21.981-12.438q-14.1-2.8-20.745,4.254,4.749-5.026,13.286-5.03A38.8,38.8,0,0,1,521.139,803.947Zm-21.372,42.071-.457.491.457-.462c.553-.55,1.066-1.11,1.547-1.651C500.836,844.927,500.323,845.468,499.767,846.018Zm-25.7-5.807c0-.069-.007-.147-.01-.226C474.058,840.064,474.063,840.143,474.065,840.211Zm-.039-2.014c0,.6.01,1.189.029,1.749-.02-.57-.029-1.169-.029-1.778Zm-268.578-5.355Zm-45.554-1.562Zm.029-1.523c0-.029,0-.059,0-.1C159.926,829.7,159.926,829.728,159.924,829.758Zm.042-.815q1-16.138,16.255-15.268c.337.029.668.059,1,.1-.332-.039-.663-.069-1-.1-.533-.029-1.054-.049-1.562-.049Q160.931,813.625,159.965,828.942Zm324.426-1.14Zm79.15-37.974c2.024,1.4,6.035,2.152,11.984,2.191-5.947-.039-9.933-.8-11.984-2.22a32.842,32.842,0,0,0-7.858-5.659c-1.027,1.061-1.557-3.645-1.56-14.089h0c0,10.444.531,15.15,1.56,14.119A32.614,32.614,0,0,1,563.541,789.829Zm26.692-1.592c-2.83,2.27-6.983,3.537-12.4,3.753,5.421-.216,9.574-1.484,12.4-3.724l4.736-4.1Zm2.707-9.845h0Zm.764-.187a.029.029,0,0,0,.025-.01A.029.029,0,0,1,593.7,778.206Zm.739-.216a.069.069,0,0,0,.042-.01A.069.069,0,0,1,594.443,777.99Zm.72-.226c.012,0,.022-.01.034-.01C595.185,777.754,595.175,777.764,595.163,777.764Zm.7-.236a.027.027,0,0,1,.025-.01A.027.027,0,0,0,595.858,777.528Zm.671-.265Zm0,0,1.56-7.212c0-.01,0-.01,0-.01Zm-32.378-4.431c-.707-.442-1.432-.845-2.169-1.228a.37.37,0,0,1-.27.138.37.37,0,0,0,.27-.138C562.736,772,563.458,772.409,564.151,772.832Zm.643-23.207a23.6,23.6,0,0,0-4.068,3.124,23.6,23.6,0,0,1,4.068-3.124,13.281,13.281,0,0,1,4.205-1.68A13.281,13.281,0,0,0,564.794,749.625Zm-57.781-12.566q7.855-5.689,17.272-17.3-9.443-11.952-17.272-17.272a29.307,29.307,0,0,0-4.274-.344,28.871,28.871,0,0,1,4.244.344q7.9,5.335,17.275,17.272-9.4,11.613-17.275,17.272-5.641-5.645-13.819-12.871C498.625,728.973,503.223,733.266,507.013,737.059Zm-16.022-27.972c-.862,1.867-1.253,5.433-1.253,10.67,0-5.237.418-8.8,1.253-10.67ZM296.525,372.67l-9.417,3.144,9.444-3.144,4.709-12.566Zm-18.835-23.885c-3.119,1.258-4.709,5.247-4.709,11.928,0-6.681,1.589-10.67,4.709-11.928Zm23.57,11.318c-4.181-6.3-8.916-10.473-14.153-12.576C292.345,349.63,297.081,353.806,301.261,360.1Zm-124.3-17.646a24.458,24.458,0,0,1-5.757-1.218A23.2,23.2,0,0,0,176.963,342.458Zm-4.2-25.093q-5.018,2.505-5.016,12.871v.02c0-6.907,1.673-11.22,5.016-12.89.044-.029.093-.049.142-.079C172.861,317.316,172.812,317.336,172.767,317.365Zm20.109,12.881s0-.01,0-.01a25.787,25.787,0,0,0-1.923-4.441A25.84,25.84,0,0,1,192.877,330.246Zm-6.037-10.434c-1.014-1.228-2.139-2.456-3.372-3.7h-.029C184.685,317.355,185.817,318.583,186.839,319.811ZM233.727,304.8c-3.149,1.258-4.738,5.237-4.738,11.947,0-6.71,1.589-10.66,4.738-11.947a40.184,40.184,0,0,1,9.417-1.248A38.639,38.639,0,0,0,233.727,304.8Zm23.543,11.309Zm-87.651-21.979a33.761,33.761,0,0,1-11.834,10.631,33.7,33.7,0,0,0,11.861-10.631q7.523-10.994,7.523-21.34C177.169,279.7,174.634,286.829,169.619,294.129ZM205.421,280a.021.021,0,0,0,.02-.01c-1.248-1.012-2.493-2.044-3.736-3.065C202.861,277.878,204.1,278.91,205.421,280Zm48.7-13.509c0,5.846.874,9.717,2.643,11.564-1.768-1.847-2.64-5.718-2.643-11.584ZM197.3,273.261q-3.636-3.051-7.256-6.16Q191.8,268.663,197.3,273.261ZM166.5,246.7q10.655,9.108,10.67,26.085,0-17.007-10.67-26.085c-.874-.7-1.778-1.356-2.707-1.955C164.721,245.348,165.625,246.006,166.5,246.7Zm115.9,19.149q-6.271-9.417-14.126-12.576l-.408.029.408-.029C273.51,255.4,278.219,259.574,282.4,265.853Zm-90.771-17.891q-5.055,5.644-5.043,14.767a4.03,4.03,0,0,0,1.223,2.132,4,4,0,0,1-1.2-2.132q0-9.108,5.016-14.767Zm30.48,1.552q2.174,3.154,2.174,12.271c0-6.111-.725-10.169-2.174-12.271Zm-29.873-2.191q4.657-4.642,12.768-4.637h0Q196.9,242.685,192.236,247.323Zm-68.994-1.533a38.344,38.344,0,0,1,10.284-4.736A37.907,37.907,0,0,0,123.242,245.79Zm40.162-1.3a34.446,34.446,0,0,0-18.739-5.08A34.5,34.5,0,0,1,163.4,244.493Zm-29.868-3.449.354-.088Zm112.727-12.89-9.417,3.144,9.447-3.144L251,215.588ZM222.72,216.227c0-.216,0-.422,0-.629C222.723,215.8,222.72,216.01,222.72,216.227ZM251,215.588q-6.267-9.447-14.126-12.566h-.025C242.085,205.115,246.794,209.32,251,215.588Zm-23.568-11.309A5.354,5.354,0,0,0,225.6,205.5a5.5,5.5,0,0,1,1.835-1.218ZM769.323,884.05a148.075,148.075,0,0,1-32.069-78.236Q715.69,599.784,694.85,393.7q-2.8-27.662-20.728-50.284a146.1,146.1,0,0,0-14.735-15.69h0c-2.147-1.965-4.348-3.92-6.632-5.787q1.581-1.208,3.215-2.329c-1.1.727-2.179,1.5-3.215,2.329q-4.8-4.023-10.058-7.693l6.6,3.124-3.763-5.964q24.07-3.758,47.754-9.727l54.354-16.968c2.481-.914,5.016-1.837,7.526-2.839a309.118,309.118,0,0,1,67.534-18.53,19.073,19.073,0,0,1,8.5,0l-.334,1.592h-.012a1099.346,1099.346,0,0,0-9.4,358.366A342.862,342.862,0,0,0,883.971,779.4q10.029,14.177,24.182,1.9,61.89-53.748,49.928-146.382Q943.45,519.7,921.662,405.6a504.394,504.394,0,0,0-53.1-147.945l6.767-1.729-.165.167.037-.01.128-.128q16.679-8.857,83.694-28.443,74.435-21.988,89.852-18.225l1.56,3.144q-7.144,2.343-18.358,5.659-35.606,150.779-8.332,304.073a2302.552,2302.552,0,0,0,74.446,299.672,566.54,566.54,0,0,0,24.489,62.212l6.6,3.115L976.3,903.5l-15.074-62.831q-28.252,67.866-99.574,78.236a122.574,122.574,0,0,1-18.589,1.474Q798.572,920.383,769.323,884.05Zm97.344,7.221c3.048-5.05,4.61-11.23,4.706-18.442Q871.229,883.648,866.667,891.272Zm144.513-33.3c0,6.3.617,10.051,1.869,11.309a48.164,48.164,0,0,0,4.4,2.839l1.258,1.562q3.132,1.592,12.871,1.592c6.713,0,11.616-2.427,14.765-7.211A99.817,99.817,0,0,0,1052,858a.049.049,0,0,1,0-.02A86.727,86.727,0,0,1,1046.341,868c-3.149,4.854-8.052,7.251-14.765,7.251q-9.741,0-12.871-1.592l-1.258-1.552c-1.5-.865-2.977-1.847-4.4-2.849-1.253-1.258-1.867-5.011-1.869-11.309ZM846.248,845.713q-25.116,0-25.135,27.058,0-27.043,25.135-27.058h0Zm25.127,26.41Zm-.01-1.091c-.012-.57-.032-1.11-.061-1.66C871.334,869.922,871.353,870.463,871.366,871.032Zm-48.693-25.6c0,4.156-1.447,8.9-4.4,14.128a28.236,28.236,0,0,1-4.2,5.492,28.624,28.624,0,0,0,4.227-5.492c2.925-5.256,4.4-9.972,4.4-14.128q0-26.69-26.721-26.714-26.7,0-26.69,26.714,0-26.69,26.69-26.714Q822.691,818.714,822.673,845.428Zm45.821,11.7c-.007-.01-.012-.029-.02-.039C868.482,857.1,868.487,857.12,868.494,857.13Zm-.54-1.041c-.01-.02-.022-.039-.034-.059C867.932,856.049,867.944,856.069,867.954,856.089Zm-.589-.992a.564.564,0,0,1-.042-.079A.564.564,0,0,0,867.364,855.1Zm-.265-.413q-.052-.074-.1-.147Q867.048,854.61,867.1,854.684Zm-.324-.472-.1-.147Zm-.422-.58a.146.146,0,0,1-.02-.02A.146.146,0,0,0,866.352,853.632Zm-.337-.413c-.012-.02-.027-.039-.039-.059C865.989,853.18,866,853.2,866.016,853.22Zm-.3-.364c-.037-.039-.074-.088-.108-.128C865.645,852.768,865.682,852.817,865.719,852.856Zm-.334-.383c-.052-.049-.1-.108-.155-.167C865.284,852.365,865.333,852.424,865.385,852.473Zm-.42-.432a1.362,1.362,0,0,0-.123-.138A1.362,1.362,0,0,1,864.965,852.041Zm-.356-.364c-.057-.059-.115-.108-.172-.167C864.493,851.569,864.552,851.618,864.608,851.677Zm-.4-.373c-.061-.059-.123-.118-.189-.177C864.09,851.186,864.152,851.245,864.213,851.3Zm-.467-.413c-.049-.039-.1-.088-.147-.128C863.651,850.8,863.7,850.852,863.746,850.891Zm-.486-.4a.559.559,0,0,1-.1-.079A.559.559,0,0,0,863.26,850.488Zm-.484-.373c-.02-.01-.044-.029-.061-.039C862.732,850.086,862.756,850.105,862.776,850.115Zm33.756,0c5.239-3.753,10.979-9.53,17.277-17.272-1.061-3.341-3.76-7.634-8.167-12.871a94.727,94.727,0,0,0-9.11-9.118v.029a92.428,92.428,0,0,1,9.083,9.088q6.6,7.855,8.162,12.871-9.391,11.6-17.255,17.263C896.525,850.115,896.53,850.115,896.532,850.115Zm-34.161-.285a.811.811,0,0,0-.123-.088A.811.811,0,0,1,862.371,849.83Zm-.432-.295a1.361,1.361,0,0,0-.165-.108A1.361,1.361,0,0,1,861.939,849.535Zm-.516-.334a.966.966,0,0,1-.135-.079A.966.966,0,0,0,861.423,849.2Zm-.408-.236c-.079-.049-.152-.1-.228-.138C860.863,848.867,860.936,848.916,861.015,848.965Zm-.42-.246c-.108-.049-.214-.108-.317-.167C860.381,848.612,860.487,848.671,860.595,848.72Zm-.553-.285-.285-.147Zm-.663-.324c-.049-.02-.1-.049-.152-.069C859.276,848.062,859.33,848.091,859.379,848.111Zm-.612-.275a.315.315,0,0,1-.088-.039A.315.315,0,0,0,858.768,847.836Zm-.462-.187a1.34,1.34,0,0,0-.189-.069A1.6,1.6,0,0,1,858.306,847.649Zm-.481-.187c-.093-.029-.187-.069-.278-.1C857.638,847.393,857.731,847.433,857.824,847.462Zm-.526-.187-.334-.118Zm-.565-.187-.364-.118Zm-.8-.236c-.054-.02-.108-.029-.165-.049C855.822,846.824,855.877,846.833,855.931,846.853Zm-.734-.206h0Zm-.675-.147v0Zm-1.275-.255a.027.027,0,0,0-.025-.01A.027.027,0,0,1,853.246,846.244Zm-1.294-.206a.185.185,0,0,1-.074-.01A.185.185,0,0,0,851.951,846.038Zm-.653-.079a.494.494,0,0,1-.115-.02A.494.494,0,0,0,851.3,845.959Zm-3.692-.246h0Zm42.464-1.788q-3.64-3.39-7.383-6.681Q886.669,840.781,890.07,843.925Zm-2.034-19.552c-5.851,4.176-8.8,7-8.8,8.469,0-1.474,2.95-4.294,8.8-8.469.177-.128.351-.265.523-.4C888.387,824.108,888.213,824.246,888.036,824.374Zm-48.086-2.505h.022q-9.907-7.722-13.78-11.083C828.767,813.035,833.367,816.72,839.95,821.868Zm.174-.039c1.145-.216,2.5-.55,4.085-1.012C842.858,821.19,841.5,821.534,840.125,821.829ZM825.21,809.911c-3.76-3.341-5.654-6.71-5.654-10.051C819.556,803.23,821.423,806.571,825.21,809.911Zm-5.654-10.051Zm36.136-15.69c0,1.867.806,4.9,2.505,9.088.231.688.442,1.326.636,1.926-.194-.6-.405-1.238-.636-1.926-1.673-4.185-2.505-7.221-2.505-9.088Zm-47.143,6.268-4.709,4.1,4.736-4.1L811.7,776.31Zm-36.05,1.9c-.1-.079-.209-.138-.314-.206C772.29,792.2,772.4,792.256,772.5,792.334Zm-.42-.275c-.339-.226-.683-.432-1.032-.639C771.4,791.627,771.743,791.843,772.079,792.059Zm-1.068-.658c-.088-.059-.177-.108-.268-.167C770.834,791.293,770.922,791.342,771.011,791.4Zm-1.7-.953c-.007,0-.012-.01-.017-.01a.357.357,0,0,1-.263.138A.345.345,0,0,0,769.311,790.448Zm58.1-4.716a23.062,23.062,0,0,1,13.826-4.048h0A23,23,0,0,0,827.411,785.732ZM811.7,776.31q-14.8-22.357-26.621-22.352Q796.882,753.973,811.7,776.31ZM778.4,755.893c-7.133,4.392-10.67,11.191-10.67,20.416,0-9.226,3.537-16.025,10.67-20.416Zm-30.48-321.071h0c0-.049,0-.1.01-.147C747.932,434.724,747.929,434.774,747.924,434.823Zm19.81-2.476a2.663,2.663,0,0,1,1.285,2.338c.142-.786-.282-1.582-1.28-2.368Zm-.334-18.864c2.311,3.144,3.453,5.463,3.453,6.907l-2.469,9.461,2.5-9.461c0-1.474-1.142-3.783-3.456-6.907a20.583,20.583,0,0,0-9.137-7.86c-2.247.6-4.35,2.309-6.286,5.08,1.943-2.771,4.043-4.451,6.286-5.08A20.382,20.382,0,0,1,767.4,413.483ZM745.724,360.1l2.7,16.152L745.751,360.1q15.673-27.662,33.908-21.369c.339.118.675.255,1.007.383-.332-.128-.668-.265-1.007-.383a20.2,20.2,0,0,0-6.676-1.179Q758.522,337.555,745.724,360.1Zm-26.69,1.248c-3.539,2.093-7.246,5.856-10.977,11.318,3.761-5.463,7.438-9.226,10.977-11.318Zm14.153,6.583-4.709-9.422a.025.025,0,0,0-.025.01Zm196.959-8.7a32.814,32.814,0,0,0-3.8-2.289A38.589,38.589,0,0,1,930.146,359.239Zm36.1-2.928q.976-2.446,2.046-6.013Q967.353,353.334,966.243,356.311ZM924.784,342.8v.02a30.854,30.854,0,0,1,.481-5.551A30.554,30.554,0,0,0,924.784,342.8Zm45.546.02a.063.063,0,0,0,.007-.02q-20.769-28.885-34.881-20.426a24.954,24.954,0,0,0-4.028,3.124,23.763,23.763,0,0,1,4.028-3.095,12.936,12.936,0,0,1,6.767-1.926Q954.3,320.48,970.33,342.822ZM778.711,322.405,774,334.971l4.736-12.6q-6.308-9.4-14.153-12.537a37.515,37.515,0,0,0-9.415,1.258,1.7,1.7,0,0,0-.292.128,1.7,1.7,0,0,1,.292-.128,38.994,38.994,0,0,1,9.415-1.258Q772.44,312.978,778.711,322.405Zm136.658,3.124Q904.04,316.7,900.6,313.6C902.916,315.695,907.816,319.674,915.369,325.53Zm0,0a41.493,41.493,0,0,0,4.244-1.051C918.206,324.871,916.791,325.225,915.369,325.53ZM659.05,319.9l-.641-3.478h-3.456Zm-.336-2.034.336,2.034-.307-2.053C658.733,317.856,658.723,317.856,658.714,317.866Zm325.747-1.759h0l-3.264-.147Q982.661,316.034,984.461,316.107Zm-11-10.365c0,4.991.531,8.145,1.606,9.422-1.051-1.3-1.577-4.431-1.577-9.422,0-6.445.3-10.12.941-10.965l-.022-.039C973.791,295.573,973.457,299.258,973.457,305.742Zm14.7,9.029a11.718,11.718,0,0,0,2.913-2.112A13.731,13.731,0,0,1,988.155,314.771ZM900.6,313.6c-3.788-3.37-5.657-6.72-5.657-10.051C894.946,306.882,896.815,310.262,900.6,313.6Zm91.719-16.329,3.146,9.422-3.146-9.442a29.194,29.194,0,0,0-10.363-1.877c-3.569.2-5.88.3-6.909.3,1.029,0,3.341-.079,6.909-.3A29.442,29.442,0,0,1,992.321,297.273Zm-58.731-.3a66.867,66.867,0,0,1,2.2,7.221,68.389,68.389,0,0,0-2.2-7.251c-.42-1.051-.788-2.034-1.11-2.938C932.8,294.915,933.167,295.9,933.59,296.968ZM902.8,289.423c-5.264,3.753-7.858,8.469-7.858,14.128,0-5.659,2.594-10.375,7.858-14.128Zm28.252-1.592c-.336-.108-.668-.206-.995-.3C930.387,287.625,930.718,287.723,931.055,287.831ZM943,270.254c-3.788,3.115-5.654,5.846-5.654,8.155,0-2.309,1.867-5.011,5.654-8.155,3.569-3.154,6.909-5.129,10.058-5.964.671.255,1.329.54,1.977.845-.644-.314-1.3-.6-1.977-.874C949.914,265.126,946.573,267.1,943,270.254Zm25.746,6.6a32.493,32.493,0,0,0-8.292-8.567A33.512,33.512,0,0,1,968.751,276.857Zm63.388-59.038.079-.344-.01.01C1032.181,217.592,1032.164,217.71,1032.139,217.818Zm81.4,599.4q-21.981-54.381-21.983-109.951,0-53.733,12.232-95.5,24.534-83.547,89.545-83.552,62.48,0,85.114,64.688,11.62,33.012,10.7,70.681a123.342,123.342,0,0,1-12.564,54.686q-19.185,39.261-59.677,39.261-43.671,0-61.271-38.946-9.439-21.075-9.439-48.368c0-16.555,1.587-29.308,4.7-38.337q5.689-16.049,16.857-24.268c-.5.727-.946,1.454-1.42,2.2q-5.018,7.855-10.67,28.286,5.641-20.441,10.7-28.286c.447-.786.919-1.5,1.393-2.2q11.992-8.813,30.313-8.8c1.673.029,3.286.059,4.878.167,0,.01.005.01.005.01q26.3,1.931,37.522,24.956a59.8,59.8,0,0,1,4.709,12.733,55.677,55.677,0,0,1,1.562,13.038q0,16.963-7.523,37.364-9.4,26.365-24.351,27.972h-3.93a6.83,6.83,0,0,0,4.4,1.582q26.078,0,34.55-30.782,3.172-31.14,3.146-31.735c0-1.474-.057-2.987-.17-4.569a116.835,116.835,0,0,0-1.724-14.266,210.029,210.029,0,0,0-7.551-28.276q-14.421-42.753-40.818-42.739-42.083,0-62.519,38.033c-8.386,15.71-12.566,29.809-12.566,42.395a280.778,280.778,0,0,0,12.259,82.913q21.985,72.567,74.749,72.557,29.217,0,54.052-18.834a140.723,140.723,0,0,0,20.09-18.216h-.14a19.633,19.633,0,0,0,1.557-1.739l.474-.472a7.922,7.922,0,0,0,.644.953,1.543,1.543,0,0,1,.3-.314q36.453-44.095,39.889-112.319l-.02-.118c.224-4.628.337-9.334.337-14.158q0-122.778-26.722-229.934-25.787-101.836-77.556-197.639c.312.59.624,1.179.941,1.769q-10.323-14.959-21.038-29.662c0-.422.533-.943,1.589-1.592a3.036,3.036,0,0,0,1.4-.924c-.364-.639-.725-1.277-1.088-1.886a7.979,7.979,0,0,0,1.562-4.706,13.124,13.124,0,0,1,.943.943,36.608,36.608,0,0,1,4.235-2.2c.756-.364,1.535-.727,2.343-1.12l50.871-15.062c.143-.039.287-.069.43-.1-.152.029-.3.059-.457.1q12.413-3.021,27.331-6.435,68.787-15.681,88.57-15.386a4.8,4.8,0,0,1,.644-1.592,1.818,1.818,0,0,0,.948-1.552c.361,1.4.725,2.78,1.083,4.225l.169.147.165,1.11q15.67,57.093,61.713,201.825,29.84,93.244,48.533,158.3,2.8,9.756,5.347,18.874-.582-8.784-1.113-19.011a7.59,7.59,0,0,0,0-1.11q-1.046-18.186-1.253-36.441,0-33.6,6.266-104.6,6.311-70.651,6.3-103.663a328.771,328.771,0,0,0-24.96-126.438.023.023,0,0,0,.022-.01c-1.086-2.584-2.169-5.109-3.313-7.673.867-2.083,2.844-3.154,5.966-3.154.278.422.528.865.806,1.277l2.508-.8,16.8-5.05q31.3-9.019,50.567-12.389,28.547-4.893,92.667-9.255l.307-1.719,5.988-.314.948-.943c.614,0,.921,1.69.921,5.04L1657,113.231c-4.21,17.773-6.271,27.834-6.271,30.143q0,.339-4.1,41.461-4.093,41.457-4.065,59.058,0,106.817,50.567,274.54,50.819,169.79,109.465,253.033l2.061.472-.3,3.154c-1.506.029-2.955.079-4.4.167,2.591-.088,5.207-.118,7.828-.167l-3.426.776v.776l-.639,2.24c-.644,1.444-2.537,2.171-5.659,2.171a12.629,12.629,0,0,1-7.383-2.348q-54.37,11.245-108.849,21.811-47.9,9.24-95.816,18.559l-1.587-1.9c1.557-.393,3.149-.806,4.736-1.248a4.582,4.582,0,0,1-1.9-.648c-.639-.413-.948-2.191-.948-5.315q20.441-151.118,20.426-172.792,0-107.112-11.316-174.325-8.231-47.145-38.949-161.621c-.3-1.169-.639-2.4-.948-3.6a19.3,19.3,0,0,1-.943,2.338c-.393.7-.811,1.366-1.258,2.034v226.21q-3.132,15.99-3.146,51.817,0,24.287,13.679,227.566l.167.167c.2,0,.307,1.562.307,4.706,0,3.35-.415,5.463-1.253,6.3-.224,0-1.479.088-3.79.3q-15.379,1.253-39.253,6.6-15.342,3.684-27.193,6.445a38.462,38.462,0,0,0-15.214-3.625,41.572,41.572,0,0,0-9.11.776q-7.649-22.814-23.263-85.615-27.625-116.809-36.75-152.651-9.189-36.564-40.371-130.5,1.135,13.116,1.118,24.317c0,4.126-.057,8.086-.169,11.78q11.492,66.746,11.48,89.073,0,5.025.3,59.372-1.879,61.278-11.616,110.895-30.8,155.5-130.36,155.49Q1151.543,911.443,1113.542,817.221Zm82.328,49.223q3.467,3.183,14.767,11.957c.007,0,.015-.01.022-.01q-11.322-8.784-14.762-11.947-5.681-5.025-5.681-10.031C1190.216,859.753,1192.11,863.094,1195.87,866.444Zm14.963,11.918c.956-.187,2.058-.452,3.318-.806C1213.054,877.851,1211.944,878.116,1210.833,878.362Zm62.629-43.014q21.985,1.886,21.981,27.333,0-25.452-21.981-27.333c-.494-.039-.975-.059-1.449-.069C1272.488,835.289,1272.969,835.309,1273.463,835.348Zm-21.981,26.419q0-25.26,17.881-26.449Q1251.479,836.512,1251.482,861.767Zm-20.424-4.745Zm-32.987-14.767c-5.237,3.792-7.855,8.5-7.855,14.158,0-5.659,2.618-10.365,7.855-14.158a23.2,23.2,0,0,1,13.846-4.028h0A23.14,23.14,0,0,0,1198.071,842.255Zm30.787,7.555Zm.639-13.784c7.079-1.631,11.756-3.144,14.047-4.578q-3.437,2.152-14.047,4.539c-7.324-2.5-11.085-3.753-11.309-3.753C1218.384,832.234,1222.172,833.491,1229.5,836.026Zm41.953-.757h0Zm13.021-22.2c0,6.691,1.14,10.778,3.453,12.252,1.673,1.061,5.237,2.014,10.67,2.82q-8.15-1.253-10.67-2.839c-2.309-1.484-3.453-5.541-3.453-12.252Zm23.543,11.918-9.42,3.154,9.42-3.124,4.736-12.566c-.005,0-.005,0-.007-.01Zm-58.09-6.268Zm-36.136,0Zm.015-.855c.015-.413.039-.806.074-1.2C1213.84,817.054,1213.815,817.447,1213.8,817.86Zm12.549-10.454Zm276.438-4.372c6.072,0,10.67-.757,13.814-2.2,3.149-1.7,5.045-2.535,5.657-2.535l3.149-16.663a62.084,62.084,0,0,0-2.2-7.221,40.512,40.512,0,0,1-2.37-7.437,39,39,0,0,0,2.37,7.438,64.9,64.9,0,0,1,2.174,7.221l-3.149,16.663c-.612,0-2.481.835-5.63,2.505-3.144,1.444-7.772,2.2-13.814,2.2a70.428,70.428,0,0,1-13.025-1.012A69.138,69.138,0,0,0,1502.788,803.034Zm-213.612-1.926a40.225,40.225,0,0,1,9.417-1.248c.656.265,1.3.55,1.938.884-.636-.334-1.282-.619-1.938-.884A40.225,40.225,0,0,0,1289.176,801.108Zm191.958-7.742c-.061-.147-.123-.295-.184-.452C1481.011,793.071,1481.072,793.219,1481.134,793.366Zm136.938-12.34q8.489,0,15.718-6.268,7.855-6.956,7.853-16.663,0-17.3-12.387-21.9,12.361,4.628,12.36,21.9,0,9.727-7.857,16.634c-4.817,4.2-10.024,6.3-15.7,6.3Zm-11.618,0a9.4,9.4,0,0,0,1.732-1.12,10.086,10.086,0,0,1-1.751,1.11Zm-10.39-10.031c2.078,4.343,5.91,7.28,11.566,8.774-5.657-1.493-9.488-4.431-11.566-8.8-1.032-2.368-1.56-6.347-1.56-11.928h0c0,5.6.528,9.56,1.56,11.957Zm190.371,4.539h.641l-.641-.806Zm-190.678-5.188Zm-74.928-3.409c-.02-.108-.034-.216-.054-.334C1520.795,766.721,1520.809,766.829,1520.829,766.937Zm-.081-.54c-.007-.059-.015-.128-.022-.187C1520.733,766.269,1520.741,766.337,1520.748,766.4Zm-.044-.432c0-.059-.01-.108-.012-.157C1520.694,765.856,1520.7,765.905,1520.7,765.964Zm-.025-.334c0-.088-.007-.187-.007-.265C1520.672,765.443,1520.677,765.542,1520.679,765.63Zm137.66-4.048a32.022,32.022,0,0,0-4.158-2.545A38.918,38.918,0,0,1,1658.339,761.582Zm4.952-37.089c-7.133,4.372-10.67,11.171-10.67,20.387v.029c0-9.226,3.537-16.044,10.67-20.416Zm33.29,20.416,0-.029q-18.035-27.191-31.641-21.242a12.325,12.325,0,0,1,5.026-1.071Q1681.776,722.567,1696.581,744.909Zm-95.8-4.6q10.526-72.42,15.1-185.456h4.677q4.723,56.533,4.741,65.965,0-9.4-4.709-65.965h-4.709Q1611.275,667.861,1600.777,740.311Zm-279.54-3.429a.1.1,0,0,1,.015-.02A.1.1,0,0,0,1321.237,736.882Zm6.89-19.021a86.6,86.6,0,0,1-6.789,18.825,86.078,86.078,0,0,0,6.789-18.8c.086-.364.169-.766.258-1.228C1328.3,717.1,1328.213,717.507,1328.127,717.861Zm288.39,16.663q2.421-22.268,4.7-49.616,4.1-49.032,4.07-64.088,0,15.047-4.1,64.088-2.045,24.818-4.709,49.616ZM1525.38,711.9l3.149,9.412-3.149-9.412A74.99,74.99,0,0,0,1510,710.011c-3.79.216-6.187.324-7.214.324l-.643-.943c-.614.835-.948,4.519-.948,11,0-6.484.334-10.169.948-11l.643.943c1.027,0,3.451-.108,7.214-.324A77.087,77.087,0,0,1,1525.38,711.9Zm117.821-9.412,9.42-3.124,4.709-12.566a32.351,32.351,0,0,0-6.9-12.389,32.042,32.042,0,0,1,6.868,12.37l-4.706,12.556-9.41,3.144C1643.192,702.475,1643.194,702.485,1643.2,702.485Zm-11.645-2.81c.8.648,2.675,1.277,5.62,1.867-2.94-.589-4.819-1.218-5.62-1.9a3.367,3.367,0,0,1-1.191-1.542A3.47,3.47,0,0,0,1631.557,699.675Zm15.1-28.414Zm-1.375-.806a19.412,19.412,0,0,0-2.078-.953A19.412,19.412,0,0,1,1645.28,670.455ZM1333.142,658.518Zm-175.914-11h.027l-1.587-9.412Zm-43.964-39.261a28.069,28.069,0,0,0-.641-4.087A28.674,28.674,0,0,1,1113.264,608.253Zm22.288-54.971c-1.7,1.346-3.345,2.712-4.873,4.077q-10.869,13.043-18.837,31.9a16.168,16.168,0,0,0-.167,2.338,16.47,16.47,0,0,1,.167-2.338q7.98-18.849,18.837-31.882c1.528-1.385,3.173-2.751,4.873-4.1,1.027-.786,2.053-1.543,3.087-2.279C1137.605,551.74,1136.579,552.5,1135.552,553.283Zm18.22,17.891q27.961-21.355,41.15-25.741Q1181.721,549.809,1153.772,571.174Zm-12.188-22.146q14.888-9.476,31.091-9.835Q1156.465,539.533,1141.585,549.028Zm51.778-6.75,1.56,3.154-1.56-3.154Zm-3.567-1.012c-.049-.01-.1-.029-.145-.039C1189.7,541.237,1189.747,541.257,1189.8,541.267Zm-15.263-2.083c-.2-.01-.4-.01-.594-.01C1174.135,539.174,1174.331,539.174,1174.533,539.184Zm190.035-7.909h.948v-3.144C1365.209,529.241,1364.9,530.3,1364.568,531.275ZM1342.25,382.4c.641,1.857,1.312,3.812,2.063,5.816-.7-2.122-1.393-4.205-2.063-6.3Zm6.6-8.174q-9.4,0-10.363-2.2Q1339.411,374.232,1348.853,374.222Zm-10.363-2.2a6.481,6.481,0,0,0,.027-.786A6.481,6.481,0,0,1,1338.49,372.021ZM1358.27,369.526Zm-17.913-17.921a31.114,31.114,0,0,0-4.068,14.767,30.831,30.831,0,0,1,4.1-14.767c2.505-5.011,5.318-7.939,8.467-8.774a17.137,17.137,0,0,1,4.011,2.289,17.508,17.508,0,0,0-4.011-2.319C1345.7,343.637,1342.891,346.594,1340.356,351.605Zm17.611-.953c2.27,3.164,3.441,5.443,3.451,6.917h0c0-1.454-1.14-3.763-3.451-6.917Zm-40.511-36.107c2.832-.589,5.954-2.486,9.388-5.649-3.426,3.154-6.543,5.021-9.4,5.649Zm-1.194-.413a21.493,21.493,0,0,1-6.846-4.244A20.721,20.721,0,0,0,1316.263,314.133ZM1358.27,298.5c-3.146,1.287-4.709,5.237-4.709,11.947,0-6.681,1.589-10.66,4.709-11.918a38.094,38.094,0,0,1,9.447-1.258q7.848,3.139,14.119,12.556l0-.02q-6.267-9.388-14.123-12.556A40.769,40.769,0,0,0,1358.27,298.5Zm-31.091-6.573c4.178,4.205,6.713,7.015,7.551,8.5-.838-1.484-3.345-4.323-7.551-8.5Zm-15.715-5.325c.128-.059.248-.118.371-.177C1311.712,286.485,1311.591,286.544,1311.464,286.6Zm8.58-1.4c-1-.855-1.862-1.543-2.586-2.044l-.005.01A30.523,30.523,0,0,1,1320.043,285.2Zm57.09-41.334c0,1.9.833,4.932,2.537,9.118a66.412,66.412,0,0,1,2.169,7.212,66.412,66.412,0,0,0-2.169-7.212c-1.7-4.215-2.537-7.251-2.537-9.118Zm-28.281,1.562Q1341,251.115,1341,259.574q0-8.474,7.853-14.148a23.062,23.062,0,0,1,13.826-4.048h0A23.013,23.013,0,0,0,1348.853,245.426Zm-31.091,3.144a32.829,32.829,0,0,0,4.8-10.218A34.264,34.264,0,0,1,1317.761,248.57ZM1314,205.861c6.462,5.885,9.722,13.824,9.722,23.885q0-15.091-9.722-23.885-8.817-7.855-21.7-7.85t-21.679,7.85c-.4.364-.793.747-1.174,1.13.381-.383.771-.766,1.174-1.13q8.824-7.855,21.679-7.85Q1305.207,198.011,1314,205.861Zm-53.1,23.885c0-.324.005-.629.012-.943C1260.9,229.117,1260.9,229.422,1260.9,229.746Zm.007-.128a.063.063,0,0,1,0-.029A.063.063,0,0,0,1260.9,229.618Zm264.169-6.789c-2.832-2.053-4.308-6.317-4.4-12.871C1520.765,216.512,1522.241,220.805,1525.073,222.829Zm-4.4-13.509Zm30.479-12.871q2.505,1.886,2.508,11.918c0-6.71-.838-10.66-2.508-11.947-2.869-.806-5.713-1.759-8.5-2.82a65.339,65.339,0,0,0-13.175,2.515q-6.868,2.446-8.386,9.137,1.5-6.661,8.386-9.118a68.429,68.429,0,0,1,13.175-2.535C1545.384,194.661,1548.2,195.614,1551.151,196.449Zm-30.445,11.643c0-.108.015-.206.022-.3C1520.721,207.885,1520.711,207.983,1520.706,208.092Zm.042-.6c.005-.059.012-.108.02-.167C1520.76,207.384,1520.753,207.433,1520.748,207.492Zm.061-.58c.005-.049.012-.088.017-.128C1520.822,206.824,1520.814,206.863,1520.809,206.913Zm.079-.57c.015-.088.03-.2.049-.285C1520.917,206.146,1520.9,206.254,1520.888,206.343Zm.091-.55c.037-.167.066-.324.106-.491C1521.05,205.468,1521.016,205.625,1520.979,205.792Zm-170.567-9.039a10.014,10.014,0,0,1-1.425,2.78,10.252,10.252,0,0,0,1.457-2.78,27.819,27.819,0,0,0-10.058-3.488c-3.149.226-5.045.334-5.657.334.612,0,2.508-.079,5.627-.295A27.433,27.433,0,0,1,1350.412,196.753Zm-101.693,1.366c3.957-2.063,6.47-4.608,7.469-7.663C1255.161,193.511,1252.673,196.056,1248.719,198.119Zm7.469-7.663a27.7,27.7,0,0,0-6.231-2.633A29.487,29.487,0,0,1,1256.188,190.456Zm-6.47-2.7c-.128-.039-.255-.069-.383-.108C1249.463,187.685,1249.591,187.715,1249.718,187.754Zm-.592-.157a25.8,25.8,0,0,0-2.994-.589c-3.12.216-5.043.295-5.657.295v.029c.641,0,2.51-.108,5.657-.3A24.435,24.435,0,0,1,1249.126,187.6Zm-25.953-8.115s.007-.01.007-.01a58.343,58.343,0,0,1-12.544-2.368c0,.01,0,.01.007.02A60.233,60.233,0,0,0,1223.174,179.481Zm33.963-12.9q-16.02,6.853-28.311,11.063,12.291-4.185,28.284-11.033,17.8-7.826,24.015-10.1Q1274.9,158.765,1257.136,166.581Zm261.517,9.737c-.081-.049-.162-.108-.243-.147C1518.491,176.209,1518.572,176.268,1518.653,176.318Zm-.513-.314a1.229,1.229,0,0,0-.169-.108A1.229,1.229,0,0,1,1518.139,176Zm-302.32-1.091.167-.138h-.31Zm298.812-4.795Zm-.064-1.15c-.012-.236-.025-.481-.034-.727C1514.543,168.487,1514.556,168.733,1514.568,168.968Zm45.362-22.47c0,2.918,2,6.259,5.988,10.051q.917.958,14.43,11.928-13.5-10.994-14.43-11.957c-3.977-3.753-5.986-7.123-5.988-10.041Zm20.419,21.978c1.108-.206,2.429-.521,3.962-.963C1583,167.878,1581.68,168.2,1580.349,168.477Zm-65.854-1.277c0-.039,0-.088,0-.138C1514.494,167.112,1514.494,167.161,1514.494,167.2Zm-.02-.678c0-.177-.012-.354-.015-.54C1514.462,166.168,1514.472,166.345,1514.475,166.522Zm75.625-.855a24.341,24.341,0,0,1,7.553-1.9A23.513,23.513,0,0,0,1590.1,165.667Zm-75.647-.088c-.005-.226-.012-.452-.017-.688C1514.44,165.127,1514.448,165.353,1514.453,165.579Zm83.2-1.808,3.117-16.634v-.029Zm-39.285-3.154c-.378-.59-.752-1.159-1.125-1.719C1557.616,159.458,1557.99,160.028,1558.368,160.617ZM1525.685,140.2q-11.282,6.6-11.284,20.416,0-13.824,11.284-20.416,13.606-8.106,31.211,18.166-13.451-20.072-24.562-20.092A12.738,12.738,0,0,0,1525.685,140.2Zm-251.979,11.77c.177-.039.359-.088.536-.128h-.027C1274.045,151.883,1273.876,151.932,1273.706,151.971Zm2.948-.02c-.788-.069-1.587-.108-2.385-.108C1275.1,151.853,1275.895,151.893,1276.654,151.952ZM1598.6,139.886q.273.825.513,1.562-.24-.737-.513-1.562c-.209-.521-.405-1.022-.585-1.5C1598.191,138.865,1598.387,139.366,1598.6,139.886ZM1515.9,104.7l1.132-.295c.007,0,.012-.01.015-.01C1516.668,104.5,1516.282,104.6,1515.9,104.7ZM1822.235,768.46q38.575-212.514-13.509-406.322-36.4-136-117.492-262.789a53.811,53.811,0,0,0-4.709-6.268l-.138-.167q-.273-.6-.555-1.208.284.619.555,1.238a59.7,59.7,0,0,0-7.688-7.693,884.2,884.2,0,0,1,268.549-22.313q139.5,73.172,63.8,214.224a112.18,112.18,0,0,1-35.522,39.9q226.8,58.419,187.53,289-11.908,69.119-78.2,94.86a1449.293,1449.293,0,0,1-161.758,50.9,224.927,224.927,0,0,0-28.308,5.649c-1.557.422-5.067,1.592-10.5,3.458q-34.434,7.56-69.264,13.48Zm40.845-21.988c9.835,0,18.247-4.706,25.13-14.148Q1877.846,746.486,1863.08,746.471Zm75.394-31.391a62.656,62.656,0,0,1,6.33-2.27q-4.1,1.282-6.33,2.24c-.83-.668-1.651-1.326-2.476-1.994C1936.787,713.7,1937.61,714.373,1938.474,715.08Zm-51.851-21.065q9.447,7.855,9.444,19.463c0-7.762-3.119-14.256-9.417-19.463a33.744,33.744,0,0,0-8.047-5.1A33.7,33.7,0,0,1,1886.623,694.016Zm42.3,13.244c-1.641-1.366-3.279-2.751-4.912-4.136Q1924.524,703.639,1928.924,707.26Zm-2.4-28.316c-5.657,3.537-8.5,8.273-8.5,14.119,0,2.928,2.009,6.3,5.991,10.061-3.982-3.763-5.964-7.133-5.964-10.061,0-5.846,2.815-10.582,8.472-14.119a24.219,24.219,0,0,1,13.907-3.94h0A24.219,24.219,0,0,0,1926.52,678.944Zm74.137,9.383a26.85,26.85,0,0,1-11.923,9.452,26.787,26.787,0,0,0,11.923-9.422c2.535-3.341,3.76-6.484,3.76-9.412h0C2004.41,681.882,2003.184,685,2000.657,688.327Zm-159.607,7.28c.015-.029.03-.049.047-.079C1841.079,695.558,1841.065,695.578,1841.05,695.607Zm.184-.275a20.771,20.771,0,0,1,12-8.4A20.66,20.66,0,0,0,1841.234,695.332Zm12.286-8.479c.111-.029.226-.059.344-.088Zm107.883-3.842a6.868,6.868,0,0,1,.636,1.12,6.868,6.868,0,0,0-.636-1.12Zm11.616-2.505c0-.079,0-.147.007-.226C1973.021,680.359,1973.019,680.428,1973.019,680.506Zm-61.88-14.767a54.67,54.67,0,0,1,5.35-2.515h-.027A56.41,56.41,0,0,0,1911.139,665.739Zm3.763-30.792q0,.958,2.508,4.1c1.476,2.093,2.2,6.15,2.2,12.232,0,6.278-.472,10.218-1.461,11.8q1.485-2.373,1.489-11.8c0-6.082-.725-10.139-2.2-12.232-1.673-2.093-2.505-3.478-2.505-4.1a45.94,45.94,0,0,0-14.443-2.78A45.775,45.775,0,0,1,1914.9,634.948Zm-25.6,25.034c-1.312-1.11-2.609-2.23-3.908-3.35C1886.156,657.309,1887.458,658.42,1889.305,659.982Zm-3.908-3.35c-.142-.138-.285-.265-.42-.393C1885.112,656.366,1885.255,656.494,1885.4,656.632Zm-.42-.393c-.13-.118-.258-.246-.381-.364C1884.719,655.993,1884.847,656.121,1884.977,656.239Zm-.405-.383c-.115-.108-.224-.216-.332-.324C1884.349,655.639,1884.457,655.747,1884.572,655.855Zm-.378-.373c-.1-.088-.187-.177-.275-.275C1884.007,655.305,1884.1,655.394,1884.194,655.482Zm-.361-.354c-.069-.079-.135-.147-.2-.216C1883.7,654.981,1883.764,655.05,1883.833,655.128Zm-.346-.373c-.039-.039-.074-.079-.108-.118C1883.413,654.676,1883.447,654.716,1883.486,654.755Zm-.332-.364c0-.01-.007-.01-.007-.02C1883.147,654.382,1883.15,654.382,1883.155,654.391Zm3.8-16.928Zm.626-.648h0Zm120.931-3.429,6.271,3.144h.01l-6.254-3.144c1.145-3.478,2.675-7.5,4.682-12.085,1.28-1.926,2.535-3.792,3.76-5.659l17.442-35.026c.614-1.67,1.169-3.341,1.727-5.04a4.828,4.828,0,0,0,.3-.619q.04-.059.074-.118,25.938-78.05-33.339-159.764-39.909-55.3-107.458-45.549l21.981,81.351q5.059,111.489,80.742,174.01c5.433,4.176,10.255,3.154,14.46-3.124l.307-.462C2011.216,625.889,2009.654,629.937,2008.514,633.386Zm-101.441-42.4c2.925-.639,6.185-2.613,9.724-5.964.712-.619,1.4-1.228,2.041-1.857-.658.629-1.341,1.238-2.041,1.837-3.569,3.34-6.8,5.315-9.751,5.954a21.682,21.682,0,0,1-7.052-3.812A20.732,20.732,0,0,0,1907.074,590.981Zm11.815-7.87c.135-.128.27-.255.4-.383Zm.521-.5a40.774,40.774,0,0,0,4.937-5.777A44.227,44.227,0,0,1,1919.409,582.61Zm4.937-5.777a21.347,21.347,0,0,0-2.282-2.947A20.772,20.772,0,0,1,1924.346,576.833Zm-32.7-4.274a23.025,23.025,0,0,1-.282-3.586A22.548,22.548,0,0,0,1891.641,572.559Zm9.439-9.55c-4.817,2.319-8.049,4.294-9.722,5.964,1.673-1.67,4.905-3.645,9.722-5.964.376-.177.734-.354,1.068-.511C1901.815,562.656,1901.456,562.832,1901.08,563.009Zm9.594-.5a44.014,44.014,0,0,0-3.6-2.957c0,.01,0,.02,0,.029A39.711,39.711,0,0,1,1910.675,562.508Zm141.7-21.055a62.447,62.447,0,0,0,3.252-11.731h-.027A62.1,62.1,0,0,1,2052.373,541.453Zm-241.751-179.8q-16.978-82.073-30.561-128.511Q1793.6,279.6,1810.622,361.656Zm78.509-50.255q3.176,4.716,12.564,7.85h.015c-6.261-2.083-10.461-4.706-12.551-7.85.975-3.095,2.147-6.239,3.458-9.422a74.729,74.729,0,0,0,8.327-2.672,68.677,68.677,0,0,0,12.092-6.268c.194-.167.418-.334.614-.472,2.115-1.474,4.149-3.036,6.126-4.716.2-.216.42-.432.643-.639.14-.157.3-.295.474-.472.445-.354.865-.717,1.253-1.081l10.031-10.061c6.212-17.213,9.835-33.159,10.864-47.72l6.573-7.683v-.039q1.511-23.4,26.552-23.4,26.708,0,26.692,26.694,0-26.7-26.692-26.694-25.028,0-26.552,23.4l-6.6,7.693q5.891-79.862-89.682-108.684a103.737,103.737,0,0,0-14.128-2.2l45.246,186.586c2.785-.432,5.519-.933,8.167-1.592C1891.332,305.074,1890.16,308.2,1889.131,311.4Zm65.059-71.133c-.027-.039-.052-.069-.074-.108C1954.138,240.2,1954.162,240.229,1954.189,240.268Zm44.293-2.692c2.928-5.247,4.375-9.953,4.375-14.128C2002.858,227.624,2001.381,232.359,1998.483,237.576Zm-48.4-7.349-.012-.049Zm-.167-.924a.13.13,0,0,0,0-.029A.13.13,0,0,1,1949.918,229.3Zm-.106-.757c-.012-.069-.025-.138-.032-.206C1949.788,228.41,1949.8,228.478,1949.812,228.547Zm-.1-.8c-.012-.118-.027-.236-.039-.354C1949.685,227.516,1949.7,227.633,1949.712,227.751Zm-.108-1.12c0-.069-.012-.128-.015-.2C1949.591,226.5,1949.6,226.563,1949.6,226.631Zm-.128-3.183c0,.393.007.776.02,1.169C1949.483,224.224,1949.476,223.841,1949.476,223.448Zm-142.951-17.272c5.237,3.557,10.975,9.334,17.272,17.272-6.271-7.939-12.009-13.716-17.272-17.272a26.763,26.763,0,0,0-2.67-.295A26.763,26.763,0,0,1,1806.525,206.176Zm-16.02,6.593q2.885-6.5,10.778-6.907Q1793.4,206.259,1790.505,212.768Zm12.1-6.936c-.081,0-.162-.01-.243-.01C1802.44,205.822,1802.521,205.832,1802.6,205.832Zm8.963-20.721c3.372-1.67,5.35-2.505,5.961-2.505C1816.888,182.606,1814.91,183.441,1811.565,185.111Zm4.375-35.5c0,1.9.867,4.932,2.508,9.118a61.862,61.862,0,0,1,2.2,7.231l-3.122,16.644,3.149-16.644a60.028,60.028,0,0,0-2.2-7.231q-2.5-6.278-2.505-9.118a74.014,74.014,0,0,0-17.727-2.466A73.645,73.645,0,0,1,1815.94,149.613Zm-41.073,26.459a35.053,35.053,0,0,1-1.326-10.08A34.764,34.764,0,0,0,1774.866,176.072Zm197.571-1.11q-1.765-1.665-3.512-3.34Q1969.956,172.668,1972.437,174.962Zm10-25.319c5.237,3.566,11.006,9.3,17.272,17.272q-9.4-11.952-17.272-17.272c-.889-.147-1.746-.246-2.567-.3C1980.69,149.4,1981.547,149.5,1982.436,149.643Zm-17.3,17.272c0-11.554,4.316-17.439,12.885-17.626Q1965.158,149.569,1965.135,166.915Zm-191.6-1.592c0-.177,0-.364.007-.54C1773.537,164.96,1773.537,165.147,1773.537,165.323Zm5.961-14.767c-1.022.472-1.99.9-2.911,1.277.931-.383,1.906-.806,2.938-1.277a28.573,28.573,0,0,1,7.487-2.466A28.942,28.942,0,0,0,1779.5,150.556Zm199.17-1.267h0Zm-189.389-1.238q.936-1.341,1.314-5.453-.383,4.112-1.346,5.453Zm-39.285-11q0-1.518.12-2.918Q1749.993,135.529,1749.994,137.047ZM1786.1,119.8c0,.609.835,1.975,2.535,4.058,1.476,2.093,2.2,6.19,2.2,12.252v-.02c0-6.072-.725-10.13-2.2-12.232-1.673-2.112-2.505-3.468-2.505-4.087q-17.468-5.173-26.64-.707a23.432,23.432,0,0,1,10.255-2.053A58.166,58.166,0,0,1,1786.1,119.8Zm189.426,15.681c2.535-3.34,3.787-6.484,3.787-9.412C1979.287,129,1978.035,132.144,1975.527,135.485Zm-60.637-3.969a26,26,0,0,1-3.751-2.938A20.969,20.969,0,0,0,1914.89,131.516Zm7.87-22.715c5.237,3.979,7.831,7.85,7.831,11.613l-3.122,10.365,3.149-10.365q0-5.644-7.858-11.613h0Zm30.787,10.67c-3.76,3.144-5.657,5.846-5.657,8.155,0-2.279,1.9-5.011,5.657-8.155,3.564-3.124,6.909-5.129,10.058-5.964a33.794,33.794,0,0,1,15.71,12.566,33.4,33.4,0,0,0-15.71-12.566C1960.455,114.342,1957.11,116.316,1953.546,119.47Zm-81.356-5.011c.617-.835,2.2-4.549,4.728-11.21C1874.384,109.92,1872.785,113.644,1872.19,114.459Zm-18.554-23.275c6.936,1.071,14.767,4.824,23.568,11.318-8.8-6.494-16.631-10.247-23.568-11.318a21.366,21.366,0,0,0-2.552-.157A21.366,21.366,0,0,1,1853.636,91.184ZM1841.072,102.5c0-7.428,3.144-11.24,9.4-11.466Q1841.087,91.376,1841.072,102.5Zm-156.1-12.537c.081.147.16.295.236.452-.074-.157-.147-.3-.224-.452Zm10.977-1.592Zm507.623,586.168q34.272-194.166-33.906-384.511A1088.735,1088.735,0,0,0,2045.9,46.274l-6.936-2.505,4.709-.943-1.867-2.82,3.119,2.82q151.741,10.36,295.6-33.6l-3.149,4.706,39.592,124.4-7.217,5.315a159.375,159.375,0,0,0-55.609-39.87A263.11,263.11,0,0,0,2206.1,81.467l50.569,181.261a120.471,120.471,0,0,0,20.365-2.8.516.516,0,0,0,.054-.039,105.2,105.2,0,0,0,33.3-14.158,79.686,79.686,0,0,0,18.215-15.514c.005,0,.005,0,.005-.01a78.917,78.917,0,0,0,6.6-8.626c4.593-7.143,9-14.236,13.175-21.369l.948,3.449,1.864-16,49.955,154.861-3.76,2.191-7.858-4.087-3.76.943q-10.99-20.1-33.292-27.638-36.151-12.247-75.085-5.325c-4.431.835-8.833,1.788-13.207,2.82q22.522,131.576,115.6,208.545c.008,0,.015-.01.02-.01,2.982,2.456,6.018,4.854,9.108,7.251q15.047,11.274,32.988,3.449c1.731-.757,3.458-1.533,5.185-2.368l34.073-23.57q40.075-40.926,19.643-118.882l-.779-2.81,4.375.943a1439.089,1439.089,0,0,0,68.34,170.257q5.018,10.582,10.2,21.035l-2.508,3.154.781,10.493q-20.647-.914-82.775,17.145-45.885,17.67-93,31.862a1238.905,1238.905,0,0,1-178.422,39.732Zm79.182-33.326a30.217,30.217,0,0,1-14.777,6.15,30.346,30.346,0,0,0,14.777-6.121,24.826,24.826,0,0,0,10.577-18.884A24.722,24.722,0,0,1,2282.749,641.216Zm38.308-11.584q3.471,2.166,13.207,2.171h0q-9.716,0-13.183-2.171c-.842-.658-1.7-1.277-2.576-1.886Q2319.811,628.66,2321.057,629.633Zm-82.3.609c-1.191-9.894-1.832-14-1.867-12.291v.059c0-.275.024-.4.054-.4C2237.125,617.6,2237.741,621.8,2238.755,630.242Zm70.347-25.132,3.176,18.835-3.144-18.835q12.785-22.489,27.242-22.509h-.012Q2321.9,582.6,2309.1,605.109ZM2265.14,591.3q28.289,0,28.279,28.581,0-28.591-28.279-28.581Zm109.937-1.9h.027l-2.2-2.849Zm-2.174-2.849c-1.619-1.8-2.476-5.7-2.53-11.643C2370.422,580.851,2371.258,584.752,2372.9,586.55Zm-74.69-11.859c.754-.275,1.525-.57,2.312-.914Q2299.379,574.264,2298.214,574.691Zm82.547-12.93c-6.909,1.67-10.392,5.846-10.392,12.556,0-6.71,3.483-10.886,10.392-12.556a26.031,26.031,0,0,1,5.431-.7A26.031,26.031,0,0,0,2380.761,561.761Zm24.182,11.918ZM2258.9,567.411c.071-.01.135-.039.2-.049-.073.01-.147.039-.223.049Zm-.251-.01c-1.412-.079-2.839-.138-4.264-.2C2255.576,567.254,2256.993,567.322,2258.646,567.4Zm56.754-14.148c0,8.184-.324,12.871-.953,14.02q.98-1.665.98-14.02,0-23.86-18.859-18.52t-18.834,18.52q0-13.146,18.834-18.52a23.129,23.129,0,0,1,6.246-.973Q2315.411,533.76,2315.4,553.253Zm86.4,11.014.332,2.839-.332-2.839c-.332-.138-.658-.265-.985-.393C2401.14,564,2401.467,564.129,2401.8,564.267Zm-152.511,1.965c-.894-1.366-1.38-4.225-1.42-8.607C2247.907,562.007,2248.376,564.866,2249.288,566.232Zm13.2-.108a12.184,12.184,0,0,0,2.992-2.161A13.9,13.9,0,0,1,2262.485,566.124Zm4.242-17.547,3.122,9.422a52.518,52.518,0,0,1-4.372,5.964,50.944,50.944,0,0,0,4.4-5.964l-3.149-9.422a29.416,29.416,0,0,0-10.365-1.9A29.649,29.649,0,0,1,2266.727,548.576Zm128.582,13.549a34.464,34.464,0,0,0-8.312-1.081A34.464,34.464,0,0,1,2395.309,562.125Zm-147.443-5.079c0-.806.007-1.582.015-2.3C2247.873,555.464,2247.866,556.24,2247.866,557.046Zm1.592-10.051-.616-.953c0,.01-.01.02-.012.02Zm136.319-12.547q1.253,3.154,36.443,3.154,16.642,0,29.77-16.044-13.128,16-29.77,16.015c-23.455,0-35.569-1.061-36.441-3.144A.054.054,0,0,1,2385.776,534.448Zm-11.311-10.994c5.657,2.112,9.11,4.284,10.365,6.593a8.693,8.693,0,0,1,.956,4.1,8.472,8.472,0,0,0-.928-4.117c-1.253-2.309-4.731-4.49-10.353-6.6C2374.492,523.424,2374.478,523.444,2374.465,523.454Zm88.769-19.729c.312-.648.616-1.287.916-1.955l-.027.029C2463.836,502.448,2463.539,503.087,2463.234,503.725Zm-191.8-8.548,9.415-3.154-9.442,3.115a50.731,50.731,0,0,1-8.749-1.926A51.258,51.258,0,0,0,2271.438,495.178Zm14.123-15.72-4.708,12.566,4.736-12.566a42.734,42.734,0,0,0-4.942-6.18A43.123,43.123,0,0,1,2285.562,479.458Zm-23.543-11.309Zm9.42-1.258Zm-14.767-191.6q32.345-11.318,48.059-20.731,15.717-9.55,21.812-20.1-6.146,10.552-21.785,20.072-15.706,9.447-48.044,20.731C2256.7,275.265,2256.681,275.285,2256.671,275.294Zm.84-.668q2.867-2.255,5.758-4.48C2261.247,271.689,2259.329,273.192,2257.511,274.626Zm-74.569-90.9q-16.764-14.664-16.764-16.811C2166.178,168.369,2171.766,173.95,2182.942,183.726Zm17.813-13.7Zm-71.3-1.552q-11.031-38.951-24.82-64.727,13.783,25.746,24.82,64.727Zm45.527-11.928c-5.853,3.763-8.806,7.221-8.806,10.365,0-3.144,2.952-6.6,8.806-10.365.7-.472,1.368-.924,1.99-1.366C2176.352,155.616,2175.689,156.078,2174.984,156.55Zm-22.932-6.907a33.487,33.487,0,0,0,8.423-4.765A36.321,36.321,0,0,1,2152.052,149.643Zm15.715-12.566c-.167-1-.383-1.985-.636-2.967C2167.384,135.082,2167.6,136.065,2167.767,137.077Zm-26.383-17.911c-2.316,1.886-3.458,6.268-3.458,13.175v.01q0-10.346,3.458-13.185c.639-.648,4.2-1.985,10.667-4.068q5.685,2.166,10.393,8.764c-3.122-4.392-6.6-7.32-10.393-8.764C2145.587,117.151,2142.023,118.517,2141.385,119.166Zm-33.3-35.5,3.149,18.854a63.386,63.386,0,0,1,6.124,3.714,61.99,61.99,0,0,0-6.124-3.733l-3.122-18.834a75.309,75.309,0,0,1,9.258-12.831A75.612,75.612,0,0,0,2108.088,83.668Zm44.3,17.272a30.991,30.991,0,0,0,4.082-7.045A31.576,31.576,0,0,1,2152.386,100.94Zm18.527-3.115a59.139,59.139,0,0,0,7.5-2.515A62.279,62.279,0,0,1,2170.914,97.826Zm0,0q-8.691-7.192-12.7-10.542v.029C2160.883,89.533,2165.139,93.041,2170.914,97.826Zm10.363-3.763c3.76-1.67,6.077-2.535,6.909-2.535C2187.354,91.528,2185.037,92.363,2181.277,94.063ZM2191.335,77.4c-.1-.147-.192-.295-.29-.432C2191.144,77.1,2191.239,77.252,2191.335,77.4Zm-109.657-5.414a99.7,99.7,0,0,0-26.053-19.748A100.216,100.216,0,0,1,2081.678,71.986Zm72.295-1.66a16.009,16.009,0,0,1,3.122-4.569c3.576-3.822,8.823-5.581,15.74-5.237q-10.375-.531-15.74,5.237a16.009,16.009,0,0,0-3.122,4.569Zm144.491-49.341q-19.314,12.365-35.5,15.543h.108q16.2-3.257,35.358-15.523,12.689-3.213,25.265-6.73a.14.14,0,0,0,.034-.039Q2311.113,17.786,2298.464,20.985Zm5.868,7.762c.027-.01.054-.029.081-.039C2304.386,28.717,2304.359,28.736,2304.332,28.746Zm1.361-.658.226-.118Zm.678-.344a1.028,1.028,0,0,1,.15-.069A1.028,1.028,0,0,0,2306.371,27.744Zm.663-.344c.093-.049.189-.1.28-.157C2307.223,27.3,2307.127,27.351,2307.034,27.4Zm.656-.354c.118-.059.233-.128.354-.2C2307.923,26.919,2307.808,26.988,2307.69,27.047Zm.651-.364c.115-.059.226-.118.339-.187C2308.567,26.565,2308.456,26.624,2308.341,26.683Zm.646-.364c.1-.059.2-.118.3-.177C2309.188,26.2,2309.088,26.261,2308.987,26.319Zm.641-.373.388-.236Zm.626-.383c.152-.088.3-.177.447-.275C2310.552,25.386,2310.406,25.475,2310.254,25.563Zm.626-.393q1.861-1.164,3.6-2.466Q2312.741,24,2310.881,25.17Zm3.6-2.466a43.041,43.041,0,0,0,4.2-3.36C2317.343,20.523,2315.94,21.653,2314.484,22.7Zm255.091,556q2.214-128.128-52.463-283.657-12.369-34.721-26.579-68.785-10.781-31.627-22.146-63.135c-.329-.924-.661-1.837-.988-2.751.327.914.658,1.827.988,2.751q11.362,31.479,22.146,63.165-38.406-92.817-99.878-209.547c-.3-.354-.631-.707-.936-1.091,0,0-.01.01-.012.01l-.14-.167q-4.1-4.731-4.094-7.86c0-3.34.111-4.9.3-4.706v.943Q2492.262,3.5,2555.56.892q63.316-2.594,80.882,2.338,17.6,4.893,38.03,17.891c5.851,2.122,12.873,6.819,21.035,14.148a201.464,201.464,0,0,1,16.968,18.53q16.963,21.649,25.127,36.745,10.909,20.574,19.782,42.071,8.861,21.4-15.381,55.609-24.276,34.22-49.172,46.5-8.441,4.141-14.123,6.75,30.5,8.474,64.857,44.458a350.563,350.563,0,0,1,28.276,33.454l28.588,42.247a123.849,123.849,0,0,1-1.9-22.46h0a120.941,120.941,0,0,1,3.453-26.832q3.762-16.344,19.476-25.741c1.142-.717,2.282-1.4,3.454-2.063a82.507,82.507,0,0,1,7.551-3.92,83.578,83.578,0,0,1,8.717-3.527c.388-.147.776-.295,1.174-.432a91.3,91.3,0,0,1,43.21-3.291q27.331,3.478,46.806,21.065,45.554,40.823,43.35,101.443a85.257,85.257,0,0,1-11.613,39.9q-33.94,56.872-100.22,62.516c-7.548.835-14.958,1.67-22.315,2.535a107.885,107.885,0,0,1-69.738-11.652q-24.74-14.487-44.91-45.853-21.064-32.982-28.586-64.049-14.122-52.495-24.486-68.824-23.742-36.9-73.358-49,24.03,41.913,64.887,128.8,42.709,77.9,103.641,124.06c-1.029,3.144-1.864,5.04-2.505,5.659a4.918,4.918,0,0,1-2.2,1.425v2.034c0,3.34-.417,5.453-1.253,6.258-.223,0-1.476.147-3.76.344q-75.725,7.516-119.693,21.674-27.743,12.542-56.221,23.541a30.931,30.931,0,0,1-7.384-1.867l-.169.619c-.442,1.611-.975,3.173-1.555,4.706Zm10.306-50.893c-.705-.442-1.43-.845-2.171-1.238C2578.467,526.971,2579.186,527.384,2579.881,527.806Zm-2.449-1.091a.23.23,0,0,1-.081-.01A.23.23,0,0,0,2577.432,526.716Zm.135-.039a.748.748,0,0,0,.142-.108A.748.748,0,0,1,2577.568,526.676Zm58.569-7.939a60.806,60.806,0,0,0,15.406,1.562c6.074,0,10.864-.727,14.433-2.2q-5.353,2.181-14.462,2.181c-6.49,0-11.616-.511-15.376-1.572l-3.458-1.552Zm29.838-.639c3.341-1.67,5.35-2.505,5.961-2.505C2671.293,515.594,2669.316,516.429,2665.975,518.1Zm-33.3-.943a2.905,2.905,0,0,0-.191-.855A3.038,3.038,0,0,1,2632.678,517.156Zm-.214-.933a.151.151,0,0,1-.012-.029A.151.151,0,0,0,2632.465,516.223Zm-12.353-3.773Zm-30.477-23.885q-13.5,4.392-13.512,23.885,0-19.483,13.512-23.885,14.6-4.849,29.492,22.057-12.626-22.784-25-22.814A14.069,14.069,0,0,0,2589.635,488.565Zm85.45,10.365a45.176,45.176,0,0,0-1.626-5.492A47.929,47.929,0,0,1,2675.085,498.931Zm133.507-8.469q-17.888,0-23.234-12.6C2788.9,486.257,2796.667,490.462,2808.592,490.462Zm-136.548-.933a25.177,25.177,0,0,1-1.68-6.465A24.864,24.864,0,0,0,2672.045,489.528Zm-1.695-6.927c0,.118,0,.236.007.373-.007-.138-.007-.255-.007-.373Zm157.408,0q5.98-6.6,5.966-14.148C2833.725,473.494,2831.745,478.171,2827.758,482.6Zm-210.79-37.7c5.237,3.576,10.974,9.314,17.272,17.282q-9.111,11.245-16.783,16.909,7.66-5.644,16.811-16.909-9.447-11.952-17.3-17.282Zm216.756,23.55q0-21.06-25.132-21.035-25.072,0-25.13,20.868.041-20.868,25.13-20.868Q2833.753,447.418,2833.725,468.454Zm-50.252-.285v0Zm-182.529-16.683q-1.249,3.139-1.253,10.67h0c0-5.021.42-8.558,1.253-10.64q3.25-7.354,12.827-6.927c-.337-.01-.668-.02-.995-.02Q2604.029,444.569,2600.944,451.486Zm257.911-2.2c-3.149,1.258-4.709,5.237-4.709,11.957,0-6.691,1.56-10.68,4.709-11.937a38.123,38.123,0,0,1,9.444-1.248c5.239,2.093,9.916,6.268,14.126,12.566-4.21-6.3-8.887-10.473-14.126-12.6A40.551,40.551,0,0,0,2858.854,449.285Zm26.689,1.9q4.723,4.716,14.155,7.88c-6.271-2.112-11.006-4.736-14.128-7.88l-1.587-9.422Zm-271.263-6.563c-.064,0-.13-.01-.2-.01C2614.151,444.608,2614.217,444.618,2614.281,444.618Zm269.7-2.859a4.114,4.114,0,0,1,.049-.648A4.114,4.114,0,0,0,2883.984,441.759Zm5.657-8.155a33.222,33.222,0,0,0-2.554,2.358,31.206,31.206,0,0,1,2.582-2.358,34.1,34.1,0,0,1,3.7-2.928A31.89,31.89,0,0,0,2889.641,433.6Zm17.747-1.729c.481.344.953.7,1.41,1.071-.457-.373-.928-.737-1.41-1.071a33.842,33.842,0,0,0-5.824-3.39A36.327,36.327,0,0,1,2907.387,431.875Zm1.071.079c-.359-.02-.717-.049-1.071-.079C2907.739,431.9,2908.1,431.934,2908.458,431.954Zm-113.992-1.169q0-26.7-26.717-26.714-26.664,0-26.689,26.714,0-26.7,26.689-26.714T2794.466,430.785Zm99.441-.472c.007,0,.015-.01.02-.01S2893.915,430.313,2893.907,430.313Zm1.557-.953a18.753,18.753,0,0,1,4.22-1.719s-.012-.01-.017-.01a18.971,18.971,0,0,0-4.222,1.729Zm-83.2-1.179c-1.4-2.044-2.113-5.669-2.113-10.916Q2810.152,425.121,2812.264,428.181Zm87.9-.334a2.873,2.873,0,0,0-.373-.177C2899.916,427.729,2900.038,427.788,2900.161,427.847Zm32.494-23.776q-3.754,0-21.033,8.774-16.34,8.474-22.929,13.2a.018.018,0,0,0,.02.01q6.566-4.716,22.909-13.195,17.261-8.769,21.033-8.764l.98-1.592Zm-89.515,6.6a75.278,75.278,0,0,0,20.09,5.345q41.162,8.15,64.717-24.513a24.674,24.674,0,0,0,4.4-16.329,121.688,121.688,0,0,0-13.178-49.312,84.05,84.05,0,0,0-22.956-13.185q-39.869-13.824-69.4,16.329c.219,2.427.528,4.824.943,7.221a37.367,37.367,0,0,0,4.375,11.3q14.506,24.847,45.249,27.038a59.631,59.631,0,0,1-16.494-17.616,61.451,61.451,0,0,1-5.183-11,9.925,9.925,0,0,1-.612-5.964c.137-.835.277-1.611.442-2.358l5.352-11.593a16.872,16.872,0,0,1,2.675-2.672l.3-.206a.8.8,0,0,0,.123-.059q8.809-6.765,25.65-1.965c5.237,2.112,10.447,4.421,15.686,6.936q16.34,7.516,19.166,26.38,3.806,24.494-14.43,40.823a36.806,36.806,0,0,1-15.715,7.546,137.174,137.174,0,0,1-46.163.943,21.74,21.74,0,0,1-14.46-5.659,110.017,110.017,0,0,0-19.476-12.556Q2825.236,403.137,2843.139,410.673Zm-32.988,6.593c0-.206,0-.413,0-.609C2810.157,416.853,2810.152,417.059,2810.152,417.265Zm28.279-.639c-.128-.187-.263-.393-.393-.58C2838.168,416.234,2838.3,416.44,2838.431,416.627Zm97.373-5.649v-.01c0-6.484-.5-9.628-1.56-9.442l-.015.029h.081Q2935.8,401.541,2935.8,410.977Zm-120.943-5.659a40.771,40.771,0,0,1,9.447-1.248A40.771,40.771,0,0,0,2814.861,405.318Zm-230.853-1.248c9.415,0,16.211-.54,20.421-1.562l4.682-7.86-.007-.02-4.7,7.88C2600.229,403.53,2593.437,404.07,2584.008,404.07Zm-1.587-.314a.69.69,0,0,1-.233-.147A.69.69,0,0,0,2582.421,403.756Zm23.568-18.55a76.889,76.889,0,0,0-10.019-1.562A90.882,90.882,0,0,1,2605.989,385.207Zm-23.568-1.562c1.054,0,3.564-.088,7.548-.3-3.984.216-6.494.3-7.548.3l-.644-.953Zm232.439-28.286a10.79,10.79,0,0,1-.943,4.745,10.569,10.569,0,0,0,.97-4.745q-1.585-5.32-3.176-10.66Q2813.119,349.429,2814.861,355.358Zm58.117,0c-2.589.894-6.6,1.4-12.09,1.592,5.49-.157,9.5-.7,12.09-1.552,3.149-11.544,6.3-20.4,9.447-26.694a.3.3,0,0,1-.027-.029Q2877.674,338.076,2872.978,355.358Zm-64.385-21.025c.2.648.41,1.346.634,2.083-.211-.707-.422-1.4-.634-2.112a64.7,64.7,0,0,1-3.007-18.206A64.658,64.658,0,0,0,2808.592,334.333Zm-136.182-90,.474-.167,2.365-1.091Zm-74.28-22.46q3.641-1.5,7.241-3.085C2603.049,219.8,2600.636,220.844,2598.131,221.876Zm-15.71-3.144Zm9.749-1.258a9.659,9.659,0,0,1,2.508-.295,65.83,65.83,0,0,0,21.033-3.154,46.657,46.657,0,0,0,14.128-7.379A51.669,51.669,0,0,0,2644.91,187.3q7.52-15.99,7.551-37.659V146.5h0q-.671-28.311-12.564-51.522-22.279-42.709-76.033-42.709c-3.122,0-8.889.924-17.275,2.81-6.128,1.425-11.365,2.564-15.686,3.458q20.268,33.675,35.8,82.3,14.292,45.229,22.922,69.571s.01-.01.01-.01C2590.529,212.935,2591.359,215.3,2592.17,217.474Zm-6.585-2.82c.982-1.13,2.08-2.289,3.286-3.5C2587.719,212.277,2586.624,213.436,2585.585,214.655Zm64.15-24.386q8.065-11.363,8.073-29.622v-.02Q2657.808,178.916,2649.735,190.269Zm-139.252-9.54a13.317,13.317,0,0,1-2.55,1.926,12.119,12.119,0,0,0,2.577-1.926,13.784,13.784,0,0,0,1.191-1.415A13.4,13.4,0,0,1,2510.482,180.729Zm1.226-1.425s0-.01,0-.01S2511.708,179.3,2511.708,179.3Zm.027-13.951,3.142,9.393h.007l-3.122-9.422a29.443,29.443,0,0,0-10.392-1.886c-3.537.216-5.851.295-6.907.295l-.616-.914c-.639.835-.973,4.52-.973,11,.029-6.484.334-10.169.973-11l.616.953c1.056,0,3.37-.088,6.907-.314A28.777,28.777,0,0,1,2511.735,165.353Zm145.739-16.025a6.547,6.547,0,0,1-.319-.58A2.58,2.58,0,0,0,2657.474,149.328ZM2481.9,103.75q-4.723,1.886-4.736,11.957,0-10.021,4.736-11.957a1.42,1.42,0,0,0,.182-.059A1.42,1.42,0,0,1,2481.9,103.75Zm23.57,11.318Zm-.516-.757a42.36,42.36,0,0,0-4.856-5.856A42.36,42.36,0,0,1,2504.951,114.312Zm162.3-3.959a22.874,22.874,0,0,0,7.958-4.971,22.972,22.972,0,0,1-7.973,4.971Zm-15.713-2.505c.641,0,1.142-.717,1.557-2.2-.415,1.484-.943,2.2-1.587,2.2a.174.174,0,0,1-.069.01A.35.35,0,0,0,2651.542,107.847Zm23.705-2.505a.14.14,0,0,0,.027-.039A.14.14,0,0,1,2675.248,105.342ZM2491.316,102.5Zm158.678-1.258a.662.662,0,0,1,0-.1A.662.662,0,0,0,2649.995,101.245Zm-.032-1.346c-.007-.472-.012-.963-.012-1.464C2649.951,98.936,2649.956,99.427,2649.963,99.9Zm-.012-1.464a25.4,25.4,0,0,1,.155-2.859A25.4,25.4,0,0,0,2649.951,98.435Zm29.836-.629,0-.01c-1.867-5.856-6.074-10.031-12.564-12.566-.471.01-.928.039-1.375.059.447-.02.9-.049,1.375-.059C2673.712,87.755,2677.917,91.931,2679.787,97.806ZM2500.741,81.271q-1.7-1.606-3.387-3.213Q2498.551,79.222,2500.741,81.271Zm-24.833-13.323q-6.348,10.611-17.847,12.262,11.517-1.651,17.874-12.262,4.388-7.84,4.375-14.119Q2480.31,60.093,2475.908,67.948Zm34.267-12.527q7.855,5.305,17.272,17.233-9.4-11.908-17.272-17.272-17.3-2.83-17.3,17.272,0-17.6,13.273-17.587A23.793,23.793,0,0,1,2510.176,55.421ZM2635.827,71.1c4.91-3.557,10.262-8.813,16.1-15.848-5.834,7.025-11.178,12.291-16.111,15.828C2635.82,71.092,2635.825,71.092,2635.827,71.1Zm-205.819-3.861c-.025-.049-.047-.1-.074-.147C2429.962,67.142,2429.984,67.191,2430.009,67.241Zm-.371-.766c-.03-.069-.066-.138-.1-.216C2429.571,66.337,2429.608,66.405,2429.638,66.474Zm-.373-.825c-.025-.059-.047-.108-.069-.167C2429.218,65.541,2429.24,65.59,2429.264,65.649Zm-.374-.914a.353.353,0,0,0-.017-.039A.353.353,0,0,1,2428.891,64.735ZM2635.8,36.547c5.264,3.566,11.006,9.314,17.3,17.282-6.293-7.968-12.036-13.735-17.3-17.282-8.135-1.248-13.482.924-15.993,6.583a10.907,10.907,0,0,0-.427,1.346,10.907,10.907,0,0,1,.427-1.346q3.077-6.912,11.827-6.917A29.058,29.058,0,0,1,2635.8,36.547ZM2480.31,53.829q0-26.7-26.692-26.694t-26.689,26.694q0-26.7,26.689-26.694Q2480.326,27.135,2480.31,53.829Zm48.729-18.864c3.117,0,6.909-1.454,11.311-4.372,4.176-2.928,6.686-5.659,7.521-8.165-.835,2.476-3.373,5.207-7.548,8.135-4.362,2.938-8.143,4.392-11.289,4.4Zm-12.566-7.831c.027.029.049.049.076.079-.027-.029-.049-.049-.076-.079Zm31.4-4.706q-2.844-8.813-12.566-12.6-4.351,0-9.923,5.728,5.578-5.7,9.923-5.7Q2545.047,13.621,2547.872,22.429Zm-151.091-9.452.309,2.515c.192,1.474.528,2.2.948,2.2l-.31-4.873A5.267,5.267,0,0,1,2396.781,12.977Zm-4.792,1.582c.118-.01.243-.01.366-.01C2392.231,14.549,2392.106,14.549,2391.988,14.559Zm86.453,378.527a31.551,31.551,0,0,1,.307-5.983,7.521,7.521,0,0,0,.3-1.091c-.027.472-.081.943-.138,1.385-.194,3.321-.25,7.614-.167,12.91C2478.551,397.881,2478.441,395.483,2478.441,393.086ZM0,254.868l5.352-1.592,2.505,8.174L3.149,264.6Z" transform="translate(1.446 1.28)" fill="#f82257"/>
  </g>
</svg>
