<?xml version="1.0" encoding="UTF-8"?>
<svg width="139px" height="21px" viewBox="0 0 139 21" version="1.1" xmlns="http://www.w3.org/2000/svg" xmlns:xlink="http://www.w3.org/1999/xlink">
    <title>A383F9CF-72F5-45AE-BF0A-07EF904C3B17</title>
    <g id="Page-1" stroke="none" stroke-width="1" fill="none" fill-rule="evenodd">
        <g id="Desktop-HD-Copy-25" transform="translate(-554.000000, -2363.000000)" fill="#2D2D39" fill-rule="nonzero">
            <g id="brands" transform="translate(-409.180211, 2074.500000)">
                <g id="Group-18" transform="translate(439.180211, 249.000000)">
                    <g id="Group-5" transform="translate(479.000000, 0.000000)">
                        <g id="logo/ownerly" transform="translate(45.180854, 40.000000)">
                            <path d="M97.8892446,11.3628532 L94.056102,11.3628532 L94.056102,7.29026497 L97.8892446,7.29026497 C99.0120233,7.29026497 99.9255387,8.20378032 99.9255387,9.3265591 C99.9255387,10.4493379 99.0120233,11.3628532 97.8892446,11.3628532 L97.8892446,11.3628532 Z M99.7172813,14.0128526 C101.59864,13.2784185 102.929676,11.4453513 102.919615,9.30140725 C102.906536,6.51860608 100.580493,4.29618824 97.7956797,4.29618824 L91.5429287,4.27606675 C91.2783312,4.27606675 91.0630313,4.49036055 91.0630313,4.75596413 L91.0630313,18.7665531 C91.0630313,19.0321566 91.2773251,19.2454444 91.5419226,19.2454444 L93.5782167,19.2454444 C93.8418082,19.2454444 94.057108,19.0321566 94.057108,18.7665531 L94.057108,14.35693 L96.2563862,14.35693 L99.8068219,19.0764239 C99.8973686,19.1971528 100.040231,19.267578 100.191142,19.267578 L102.707334,19.2615416 C103.101715,19.2605355 103.326069,18.8088082 103.089642,18.493907 L99.7172813,14.0128526 L99.7172813,14.0128526 Z M45.3641241,4.17646541 L43.2684716,4.17646541 C43.070275,4.17646541 42.893206,4.29920646 42.8217747,4.48533018 L39.4544445,13.285461 L36.1917459,4.4883484 C36.1213207,4.30121861 35.9422395,4.17646541 35.7420308,4.17646541 L34.280205,4.17646541 C34.0799962,4.17646541 33.900915,4.30121861 33.8314959,4.4883484 L30.5617548,13.3045764 L27.2467404,4.48633626 C27.1763152,4.30021253 26.9982401,4.17646541 26.7980314,4.17646541 L24.5886925,4.17646541 C24.2536698,4.17646541 24.0222727,4.51148811 24.1409895,4.82538325 L29.4329396,18.8500572 C29.5043709,19.0381931 29.6844582,19.1619402 29.885673,19.1599522 L31.255946,19.1498673 C31.4551487,19.1488612 31.6322178,19.0241081 31.7016369,18.8379843 L35.0116209,9.91712464 L38.3205989,18.8379843 C38.390018,19.0241081 38.567087,19.1498673 38.7662897,19.1498673 L40.1365627,19.1599522 C40.3377776,19.1619402 40.5188709,19.037187 40.5892961,18.8480451 L45.8128332,4.8233711 C45.9295378,4.50947596 45.6981408,4.17646541 45.3641241,4.17646541 M64.4372783,4.17646541 L62.4009842,4.17646541 C62.1363867,4.17646541 61.9220929,4.39075921 61.9220929,4.65535672 L61.9220929,13.4434146 L54.3755305,4.34951017 C54.2839778,4.23984808 54.1481577,4.17646541 54.0063013,4.17646541 L52.4589592,4.17948363 C52.1953678,4.17948363 51.981074,4.39478351 51.981074,4.65837494 L51.981074,18.6689639 C51.981074,18.9335614 52.1963739,19.1478552 52.4599653,19.1478552 L54.4962594,19.1478552 C54.7608569,19.1478552 54.9751507,18.9335614 54.9751507,18.6689639 L54.9751507,9.76118314 L62.6213144,18.9738043 C62.7118611,19.0834664 62.8476811,19.1468491 62.9905437,19.1468491 L64.4372783,19.1468491 C64.7018758,19.1468491 64.9161696,18.9335614 64.9161696,18.6689639 L64.9161696,4.65535672 C64.9161696,4.39075921 64.7018758,4.17646541 64.4372783,4.17646541 M82.9510552,16.1527724 L75.7928375,16.1527724 L75.7928375,13.1285134 L82.2538458,13.1285134 C82.5174373,13.1285134 82.7327371,12.9142196 82.7327371,12.6496221 L82.7327371,10.613328 C82.7327371,10.3487305 82.5174373,10.1344367 82.2538458,10.1344367 L75.7928375,10.1344367 L75.7928375,7.17054215 L82.8303263,7.17054215 C83.0949238,7.17054215 83.3102237,6.95524228 83.3102237,6.69064477 L83.3102237,4.65535672 C83.3102237,4.38975313 83.0949238,4.17545934 82.8303263,4.17545934 L73.2776521,4.17545934 C73.0130546,4.17545934 72.7987608,4.38975313 72.7987608,4.65535672 L72.7987608,18.6679578 C72.7987608,18.9325553 73.0130546,19.1468491 73.2776521,19.1468491 L82.9500492,19.1468491 C83.2146467,19.1468491 83.4299465,18.9325553 83.4299465,18.6679578 L83.4299465,16.6316637 C83.4299465,16.3670662 83.2146467,16.1527724 82.9500492,16.1527724 M120.093302,16.2131368 L113.565892,16.2131368 L113.565892,4.77507954 C113.565892,4.51048204 113.351599,4.29618824 113.087001,4.29618824 L111.050707,4.29618824 C110.786109,4.29618824 110.571816,4.51048204 110.571816,4.77507954 L110.571816,18.7293283 C110.571816,18.9939258 110.786109,19.2072136 111.050707,19.2072136 L119.974585,19.2072136 C120.238176,19.2072136 120.45247,18.9939258 120.45247,18.7283222 L120.45247,16.5723053 C120.45247,16.3741087 120.291498,16.2131368 120.093302,16.2131368 M138.159375,4.29518216 L135.613002,4.29015179 C135.462091,4.29015179 135.320234,4.36158306 135.228681,4.48231196 L130.840186,10.3346454 L126.443642,4.48734233 C126.353095,4.36661343 126.212245,4.29618824 126.061334,4.29618824 L123.544136,4.29618824 C123.149755,4.29618824 122.924394,4.74690947 123.160822,5.06281676 L129.343147,13.3257039 L129.343147,18.7886867 C129.343147,19.0532842 129.557441,19.267578 129.822039,19.267578 L131.858333,19.267578 C132.12293,19.267578 132.337224,19.0532842 132.337224,18.7886867 L132.337224,13.3297282 L138.541684,5.06080461 C138.778111,4.74489732 138.553757,4.29417609 138.159375,4.29417609 M9.58309619,16.9767471 C6.78520391,16.9767471 4.50845806,14.7000013 4.50845806,11.9011029 C4.50845806,11.1002679 4.69558786,10.3416879 5.02859841,9.66761825 C5.85659745,7.98546223 7.58704503,6.82646478 9.58309619,6.82646478 C11.5680805,6.82646478 13.2894734,7.97338934 14.1235089,9.63642995 C14.4655741,10.3195543 14.6587404,11.088195 14.6587404,11.9011029 C14.6587404,14.7000013 12.3819945,16.9767471 9.58309619,16.9767471 L9.58309619,16.9767471 Z M10.3285972,0.270885471 C9.95634971,-0.090295157 9.36578417,-0.090295157 8.9945428,0.270885471 L0.146120447,8.85974068 C-0.162744324,9.15955079 0.050543401,9.68371543 0.482149221,9.68170328 L1.79708817,9.67767899 C1.59486726,10.3849491 1.4841991,11.1304501 1.4841991,11.9011029 C1.4841991,16.3680722 5.11713294,20 9.58309619,20 C14.0500655,20 17.6819933,16.3680722 17.6819933,11.9011029 C17.6819933,11.1123408 17.5673008,10.3487305 17.3550192,9.62536313 L18.7896809,9.62133883 C19.2192746,9.62033276 19.4295441,9.09818026 19.1216854,8.79837016 L10.3285972,0.269879397 L10.3285972,0.270885471 Z" id="Shape"></path>
                        </g>
                    </g>
                </g>
            </g>
        </g>
    </g>
</svg>