<svg width="19" height="19" viewBox="0 0 19 19" fill="none" xmlns="http://www.w3.org/2000/svg">
<path d="M16.2571 8.44787C16.3521 7.81062 16.3205 7.16089 16.1641 6.53587C15.9499 5.6812 15.5071 4.90097 14.8831 4.27887C14.261 3.6549 13.4808 3.21206 12.6261 2.99787C12.0009 2.841 11.3508 2.80906 10.7131 2.90387M13.4101 8.14587C13.5121 7.46587 13.3001 6.74587 12.7761 6.22187C12.5276 5.97275 12.224 5.78551 11.8898 5.67521C11.5556 5.56491 11.2002 5.53465 10.8521 5.58687" stroke="#0C0C0C" stroke-width="1.5" stroke-linecap="round" stroke-linejoin="round"/>
<path d="M5.98215 4.01758C6.11599 4.01753 6.2474 4.0533 6.36275 4.12118C6.4781 4.18905 6.57319 4.28656 6.63815 4.40358L7.55515 6.05558C7.6144 6.16224 7.64673 6.28174 7.64934 6.40372C7.65196 6.5257 7.62477 6.64648 7.57015 6.75558L6.68615 8.52258C6.68615 8.52258 6.94315 9.83958 8.01415 10.9126C8.67424 11.562 9.49875 12.0194 10.3991 12.2356L12.1661 11.3516C12.2752 11.297 12.396 11.2698 12.518 11.2724C12.64 11.275 12.7595 11.3073 12.8661 11.3666L14.5231 12.2886C14.64 12.3535 14.7374 12.4484 14.8053 12.5635C14.8732 12.6787 14.909 12.8099 14.9091 12.9436V14.8466C14.9091 15.8156 14.0091 16.5146 13.0911 16.2056C11.2051 15.5696 8.27915 14.3576 6.42315 12.5026C4.56815 10.6476 3.35715 7.72058 2.72115 5.83558C2.41115 4.91758 3.11115 4.01758 4.08015 4.01758H5.98215Z" stroke="#0C0C0C" stroke-width="1.5" stroke-linejoin="round"/>
</svg>
