<svg width="40" height="40" viewBox="0 0 40 40" fill="none" xmlns="http://www.w3.org/2000/svg">
<g clip-path="url(#clip0_110_151024)">
<g clip-path="url(#clip1_110_151024)">
<path fill-rule="evenodd" clip-rule="evenodd" d="M15.71 7.59608C9.43498 11.6261 5.94998 16.3171 5.25098 21.6701C4.16598 30.0001 11.616 34.0781 15.391 30.4141C19.166 26.7511 16.903 22.1001 14.17 20.8291C11.436 19.5581 9.76498 20.0011 10.056 18.3021C10.348 16.6031 14.236 11.8931 17.653 9.70007C17.7741 9.59714 17.8514 9.45187 17.869 9.29391C17.8867 9.13595 17.8434 8.97721 17.748 8.85008L16.903 7.75108C16.536 7.27508 16.185 7.29108 15.71 7.59608ZM32.234 7.59608C25.958 11.6261 22.472 16.3171 21.774 21.6691C20.69 29.9991 28.14 34.0771 31.914 30.4131C35.69 26.7501 33.427 22.0991 30.694 20.8281C27.96 19.5571 26.288 20.0001 26.58 18.3011C26.872 16.6021 30.76 11.8921 34.177 9.69908C34.2979 9.596 34.375 9.45067 34.3925 9.29271C34.41 9.13476 34.3665 8.97609 34.271 8.84908L33.427 7.75008C33.06 7.27408 32.708 7.29108 32.234 7.59608Z" fill="#0C0C0C"/>
</g>
</g>
<defs>
<clipPath id="clip0_110_151024">
<rect width="40" height="40" fill="white"/>
</clipPath>
<clipPath id="clip1_110_151024">
<rect width="40" height="40" fill="white"/>
</clipPath>
</defs>
</svg>
